%FSLAX46Y46*%
G04 Gerber Fmt 4.6, Leading zero omitted, Abs format (unit mm)*
G04 Created by KiCad (PCBNEW (2014-09-25 BZR 5147)-product) date jue 25 dic 2014 15:50:29 ART*
%MOMM*%
G01*
G04 APERTURE LIST*
%ADD10C,0.100000*%
%ADD11R,1.397000X1.397000*%
%ADD12C,1.397000*%
%ADD13C,1.506220*%
%ADD14C,1.500000*%
%ADD15C,0.203200*%
%ADD16C,0.254000*%
G04 APERTURE END LIST*
D10*
D11*
X119500000Y-111950000D03*
D12*
X119500000Y-114490000D03*
X119500000Y-117030000D03*
X119500000Y-119570000D03*
X119500000Y-122110000D03*
D13*
X168430000Y-79730000D03*
X168430000Y-82270000D03*
X165890000Y-79730000D03*
X165890000Y-82270000D03*
X163350000Y-79730000D03*
X163350000Y-82270000D03*
X160810000Y-79730000D03*
X160810000Y-82270000D03*
X158270000Y-79730000D03*
X158270000Y-82270000D03*
X155730000Y-79730000D03*
X155730000Y-82270000D03*
X153190000Y-79730000D03*
X153190000Y-82270000D03*
X150650000Y-79730000D03*
X150650000Y-82270000D03*
X148110000Y-79730000D03*
X148110000Y-82270000D03*
X145570000Y-79730000D03*
X145570000Y-82270000D03*
X109480000Y-81820000D03*
X112020000Y-81820000D03*
X109480000Y-84360000D03*
X112020000Y-84360000D03*
X109480000Y-86900000D03*
X112020000Y-86900000D03*
X109480000Y-89440000D03*
X112020000Y-89440000D03*
X109480000Y-91980000D03*
X112020000Y-91980000D03*
X109480000Y-94520000D03*
X112020000Y-94520000D03*
X109480000Y-97060000D03*
X112020000Y-97060000D03*
X109480000Y-99600000D03*
X112020000Y-99600000D03*
X109480000Y-102140000D03*
X112020000Y-102140000D03*
X109480000Y-104680000D03*
X112020000Y-104680000D03*
X109480000Y-115320000D03*
X112020000Y-115320000D03*
X109480000Y-117860000D03*
X112020000Y-117860000D03*
X109480000Y-120400000D03*
X112020000Y-120400000D03*
X109480000Y-122940000D03*
X112020000Y-122940000D03*
X109480000Y-125480000D03*
X112020000Y-125480000D03*
X109480000Y-128020000D03*
X112020000Y-128020000D03*
X109480000Y-130560000D03*
X112020000Y-130560000D03*
X109480000Y-133100000D03*
X112020000Y-133100000D03*
X109480000Y-135640000D03*
X112020000Y-135640000D03*
X109480000Y-138180000D03*
X112020000Y-138180000D03*
X177230000Y-81570000D03*
X179770000Y-81570000D03*
X177230000Y-84110000D03*
X179770000Y-84110000D03*
X177230000Y-86650000D03*
X179770000Y-86650000D03*
X177230000Y-89190000D03*
X179770000Y-89190000D03*
X177230000Y-91730000D03*
X179770000Y-91730000D03*
X177230000Y-94270000D03*
X179770000Y-94270000D03*
X177230000Y-96810000D03*
X179770000Y-96810000D03*
X177230000Y-99350000D03*
X179770000Y-99350000D03*
X177230000Y-101890000D03*
X179770000Y-101890000D03*
X177230000Y-104430000D03*
X179770000Y-104430000D03*
X177230000Y-115070000D03*
X179770000Y-115070000D03*
X177230000Y-117610000D03*
X179770000Y-117610000D03*
X177230000Y-120150000D03*
X179770000Y-120150000D03*
X177230000Y-122690000D03*
X179770000Y-122690000D03*
X177230000Y-125230000D03*
X179770000Y-125230000D03*
X177230000Y-127770000D03*
X179770000Y-127770000D03*
X177230000Y-130310000D03*
X179770000Y-130310000D03*
X177230000Y-132850000D03*
X179770000Y-132850000D03*
X177230000Y-135390000D03*
X179770000Y-135390000D03*
X177230000Y-137930000D03*
X179770000Y-137930000D03*
X168680000Y-137230000D03*
X168680000Y-139770000D03*
X166140000Y-137230000D03*
X166140000Y-139770000D03*
X163600000Y-137230000D03*
X163600000Y-139770000D03*
X161060000Y-137230000D03*
X161060000Y-139770000D03*
X158520000Y-137230000D03*
X158520000Y-139770000D03*
X155980000Y-137230000D03*
X155980000Y-139770000D03*
X153440000Y-137230000D03*
X153440000Y-139770000D03*
X150900000Y-137230000D03*
X150900000Y-139770000D03*
X148360000Y-137230000D03*
X148360000Y-139770000D03*
X145820000Y-137230000D03*
X145820000Y-139770000D03*
D12*
X122940000Y-83540000D03*
X122940000Y-78460000D03*
X130560000Y-83540000D03*
X130560000Y-78460000D03*
D14*
X135200000Y-90300000D03*
X151600000Y-126500000D03*
X160800000Y-118400000D03*
X151100000Y-85900000D03*
X167100000Y-107900000D03*
X125600000Y-105800000D03*
X116900000Y-122200000D03*
X124500000Y-112100000D03*
X137400000Y-131900000D03*
X140100000Y-123100000D03*
X127100000Y-127600000D03*
X128100000Y-133400000D03*
X136900000Y-116900000D03*
X138200000Y-83100000D03*
X132200000Y-95400000D03*
X115500000Y-108500000D03*
X117600000Y-112900000D03*
X145600000Y-85400000D03*
D15*
X136900000Y-124600000D02*
X128100000Y-133400000D01*
X136900000Y-116900000D02*
X136900000Y-124600000D01*
X138200000Y-83100000D02*
X132200000Y-89100000D01*
X132200000Y-89100000D02*
X132200000Y-95400000D01*
X128600000Y-95400000D02*
X115500000Y-108500000D01*
X132200000Y-95400000D02*
X128600000Y-95400000D01*
X117600000Y-112900000D02*
X121500000Y-109000000D01*
X121500000Y-109000000D02*
X126100000Y-109000000D01*
X126100000Y-109000000D02*
X145600000Y-89500000D01*
X145600000Y-89500000D02*
X145600000Y-85400000D01*
D16*
G36*
X183417000Y-143417000D02*
X181031329Y-143417000D01*
X181031329Y-137680250D01*
X181031329Y-135140250D01*
X181031329Y-132600250D01*
X181031329Y-130060250D01*
X181031329Y-127520250D01*
X181031329Y-124980250D01*
X181031329Y-122440250D01*
X181031329Y-119900250D01*
X181031329Y-117360250D01*
X181031329Y-114820250D01*
X181031329Y-104180250D01*
X181031329Y-101640250D01*
X181031329Y-99100250D01*
X181031329Y-96560250D01*
X181031329Y-94020250D01*
X181031329Y-91480250D01*
X181031329Y-88940250D01*
X181031329Y-86400250D01*
X181031329Y-83860250D01*
X181031329Y-81320250D01*
X180839741Y-80856572D01*
X180485294Y-80501506D01*
X180021951Y-80309109D01*
X179520250Y-80308671D01*
X179056572Y-80500259D01*
X178701506Y-80854706D01*
X178509109Y-81318049D01*
X178508671Y-81819750D01*
X178700259Y-82283428D01*
X179054706Y-82638494D01*
X179518049Y-82830891D01*
X180019750Y-82831329D01*
X180483428Y-82639741D01*
X180838494Y-82285294D01*
X181030891Y-81821951D01*
X181031329Y-81320250D01*
X181031329Y-83860250D01*
X180839741Y-83396572D01*
X180485294Y-83041506D01*
X180021951Y-82849109D01*
X179520250Y-82848671D01*
X179056572Y-83040259D01*
X178701506Y-83394706D01*
X178509109Y-83858049D01*
X178508671Y-84359750D01*
X178700259Y-84823428D01*
X179054706Y-85178494D01*
X179518049Y-85370891D01*
X180019750Y-85371329D01*
X180483428Y-85179741D01*
X180838494Y-84825294D01*
X181030891Y-84361951D01*
X181031329Y-83860250D01*
X181031329Y-86400250D01*
X180839741Y-85936572D01*
X180485294Y-85581506D01*
X180021951Y-85389109D01*
X179520250Y-85388671D01*
X179056572Y-85580259D01*
X178701506Y-85934706D01*
X178509109Y-86398049D01*
X178508671Y-86899750D01*
X178700259Y-87363428D01*
X179054706Y-87718494D01*
X179518049Y-87910891D01*
X180019750Y-87911329D01*
X180483428Y-87719741D01*
X180838494Y-87365294D01*
X181030891Y-86901951D01*
X181031329Y-86400250D01*
X181031329Y-88940250D01*
X180839741Y-88476572D01*
X180485294Y-88121506D01*
X180021951Y-87929109D01*
X179520250Y-87928671D01*
X179056572Y-88120259D01*
X178701506Y-88474706D01*
X178509109Y-88938049D01*
X178508671Y-89439750D01*
X178700259Y-89903428D01*
X179054706Y-90258494D01*
X179518049Y-90450891D01*
X180019750Y-90451329D01*
X180483428Y-90259741D01*
X180838494Y-89905294D01*
X181030891Y-89441951D01*
X181031329Y-88940250D01*
X181031329Y-91480250D01*
X180839741Y-91016572D01*
X180485294Y-90661506D01*
X180021951Y-90469109D01*
X179520250Y-90468671D01*
X179056572Y-90660259D01*
X178701506Y-91014706D01*
X178509109Y-91478049D01*
X178508671Y-91979750D01*
X178700259Y-92443428D01*
X179054706Y-92798494D01*
X179518049Y-92990891D01*
X180019750Y-92991329D01*
X180483428Y-92799741D01*
X180838494Y-92445294D01*
X181030891Y-91981951D01*
X181031329Y-91480250D01*
X181031329Y-94020250D01*
X180839741Y-93556572D01*
X180485294Y-93201506D01*
X180021951Y-93009109D01*
X179520250Y-93008671D01*
X179056572Y-93200259D01*
X178701506Y-93554706D01*
X178509109Y-94018049D01*
X178508671Y-94519750D01*
X178700259Y-94983428D01*
X179054706Y-95338494D01*
X179518049Y-95530891D01*
X180019750Y-95531329D01*
X180483428Y-95339741D01*
X180838494Y-94985294D01*
X181030891Y-94521951D01*
X181031329Y-94020250D01*
X181031329Y-96560250D01*
X180839741Y-96096572D01*
X180485294Y-95741506D01*
X180021951Y-95549109D01*
X179520250Y-95548671D01*
X179056572Y-95740259D01*
X178701506Y-96094706D01*
X178509109Y-96558049D01*
X178508671Y-97059750D01*
X178700259Y-97523428D01*
X179054706Y-97878494D01*
X179518049Y-98070891D01*
X180019750Y-98071329D01*
X180483428Y-97879741D01*
X180838494Y-97525294D01*
X181030891Y-97061951D01*
X181031329Y-96560250D01*
X181031329Y-99100250D01*
X180839741Y-98636572D01*
X180485294Y-98281506D01*
X180021951Y-98089109D01*
X179520250Y-98088671D01*
X179056572Y-98280259D01*
X178701506Y-98634706D01*
X178509109Y-99098049D01*
X178508671Y-99599750D01*
X178700259Y-100063428D01*
X179054706Y-100418494D01*
X179518049Y-100610891D01*
X180019750Y-100611329D01*
X180483428Y-100419741D01*
X180838494Y-100065294D01*
X181030891Y-99601951D01*
X181031329Y-99100250D01*
X181031329Y-101640250D01*
X180839741Y-101176572D01*
X180485294Y-100821506D01*
X180021951Y-100629109D01*
X179520250Y-100628671D01*
X179056572Y-100820259D01*
X178701506Y-101174706D01*
X178509109Y-101638049D01*
X178508671Y-102139750D01*
X178700259Y-102603428D01*
X179054706Y-102958494D01*
X179518049Y-103150891D01*
X180019750Y-103151329D01*
X180483428Y-102959741D01*
X180838494Y-102605294D01*
X181030891Y-102141951D01*
X181031329Y-101640250D01*
X181031329Y-104180250D01*
X180839741Y-103716572D01*
X180485294Y-103361506D01*
X180021951Y-103169109D01*
X179520250Y-103168671D01*
X179056572Y-103360259D01*
X178701506Y-103714706D01*
X178509109Y-104178049D01*
X178508671Y-104679750D01*
X178700259Y-105143428D01*
X179054706Y-105498494D01*
X179518049Y-105690891D01*
X180019750Y-105691329D01*
X180483428Y-105499741D01*
X180838494Y-105145294D01*
X181030891Y-104681951D01*
X181031329Y-104180250D01*
X181031329Y-114820250D01*
X180839741Y-114356572D01*
X180485294Y-114001506D01*
X180021951Y-113809109D01*
X179520250Y-113808671D01*
X179056572Y-114000259D01*
X178701506Y-114354706D01*
X178509109Y-114818049D01*
X178508671Y-115319750D01*
X178700259Y-115783428D01*
X179054706Y-116138494D01*
X179518049Y-116330891D01*
X180019750Y-116331329D01*
X180483428Y-116139741D01*
X180838494Y-115785294D01*
X181030891Y-115321951D01*
X181031329Y-114820250D01*
X181031329Y-117360250D01*
X180839741Y-116896572D01*
X180485294Y-116541506D01*
X180021951Y-116349109D01*
X179520250Y-116348671D01*
X179056572Y-116540259D01*
X178701506Y-116894706D01*
X178509109Y-117358049D01*
X178508671Y-117859750D01*
X178700259Y-118323428D01*
X179054706Y-118678494D01*
X179518049Y-118870891D01*
X180019750Y-118871329D01*
X180483428Y-118679741D01*
X180838494Y-118325294D01*
X181030891Y-117861951D01*
X181031329Y-117360250D01*
X181031329Y-119900250D01*
X180839741Y-119436572D01*
X180485294Y-119081506D01*
X180021951Y-118889109D01*
X179520250Y-118888671D01*
X179056572Y-119080259D01*
X178701506Y-119434706D01*
X178509109Y-119898049D01*
X178508671Y-120399750D01*
X178700259Y-120863428D01*
X179054706Y-121218494D01*
X179518049Y-121410891D01*
X180019750Y-121411329D01*
X180483428Y-121219741D01*
X180838494Y-120865294D01*
X181030891Y-120401951D01*
X181031329Y-119900250D01*
X181031329Y-122440250D01*
X180839741Y-121976572D01*
X180485294Y-121621506D01*
X180021951Y-121429109D01*
X179520250Y-121428671D01*
X179056572Y-121620259D01*
X178701506Y-121974706D01*
X178509109Y-122438049D01*
X178508671Y-122939750D01*
X178700259Y-123403428D01*
X179054706Y-123758494D01*
X179518049Y-123950891D01*
X180019750Y-123951329D01*
X180483428Y-123759741D01*
X180838494Y-123405294D01*
X181030891Y-122941951D01*
X181031329Y-122440250D01*
X181031329Y-124980250D01*
X180839741Y-124516572D01*
X180485294Y-124161506D01*
X180021951Y-123969109D01*
X179520250Y-123968671D01*
X179056572Y-124160259D01*
X178701506Y-124514706D01*
X178509109Y-124978049D01*
X178508671Y-125479750D01*
X178700259Y-125943428D01*
X179054706Y-126298494D01*
X179518049Y-126490891D01*
X180019750Y-126491329D01*
X180483428Y-126299741D01*
X180838494Y-125945294D01*
X181030891Y-125481951D01*
X181031329Y-124980250D01*
X181031329Y-127520250D01*
X180839741Y-127056572D01*
X180485294Y-126701506D01*
X180021951Y-126509109D01*
X179520250Y-126508671D01*
X179056572Y-126700259D01*
X178701506Y-127054706D01*
X178509109Y-127518049D01*
X178508671Y-128019750D01*
X178700259Y-128483428D01*
X179054706Y-128838494D01*
X179518049Y-129030891D01*
X180019750Y-129031329D01*
X180483428Y-128839741D01*
X180838494Y-128485294D01*
X181030891Y-128021951D01*
X181031329Y-127520250D01*
X181031329Y-130060250D01*
X180839741Y-129596572D01*
X180485294Y-129241506D01*
X180021951Y-129049109D01*
X179520250Y-129048671D01*
X179056572Y-129240259D01*
X178701506Y-129594706D01*
X178509109Y-130058049D01*
X178508671Y-130559750D01*
X178700259Y-131023428D01*
X179054706Y-131378494D01*
X179518049Y-131570891D01*
X180019750Y-131571329D01*
X180483428Y-131379741D01*
X180838494Y-131025294D01*
X181030891Y-130561951D01*
X181031329Y-130060250D01*
X181031329Y-132600250D01*
X180839741Y-132136572D01*
X180485294Y-131781506D01*
X180021951Y-131589109D01*
X179520250Y-131588671D01*
X179056572Y-131780259D01*
X178701506Y-132134706D01*
X178509109Y-132598049D01*
X178508671Y-133099750D01*
X178700259Y-133563428D01*
X179054706Y-133918494D01*
X179518049Y-134110891D01*
X180019750Y-134111329D01*
X180483428Y-133919741D01*
X180838494Y-133565294D01*
X181030891Y-133101951D01*
X181031329Y-132600250D01*
X181031329Y-135140250D01*
X180839741Y-134676572D01*
X180485294Y-134321506D01*
X180021951Y-134129109D01*
X179520250Y-134128671D01*
X179056572Y-134320259D01*
X178701506Y-134674706D01*
X178509109Y-135138049D01*
X178508671Y-135639750D01*
X178700259Y-136103428D01*
X179054706Y-136458494D01*
X179518049Y-136650891D01*
X180019750Y-136651329D01*
X180483428Y-136459741D01*
X180838494Y-136105294D01*
X181030891Y-135641951D01*
X181031329Y-135140250D01*
X181031329Y-137680250D01*
X180839741Y-137216572D01*
X180485294Y-136861506D01*
X180021951Y-136669109D01*
X179520250Y-136668671D01*
X179056572Y-136860259D01*
X178701506Y-137214706D01*
X178509109Y-137678049D01*
X178508671Y-138179750D01*
X178700259Y-138643428D01*
X179054706Y-138998494D01*
X179518049Y-139190891D01*
X180019750Y-139191329D01*
X180483428Y-138999741D01*
X180838494Y-138645294D01*
X181030891Y-138181951D01*
X181031329Y-137680250D01*
X181031329Y-143417000D01*
X178491329Y-143417000D01*
X178491329Y-137680250D01*
X178491329Y-135140250D01*
X178491329Y-132600250D01*
X178491329Y-130060250D01*
X178491329Y-127520250D01*
X178491329Y-124980250D01*
X178491329Y-122440250D01*
X178491329Y-119900250D01*
X178491329Y-117360250D01*
X178491329Y-114820250D01*
X178491329Y-104180250D01*
X178491329Y-101640250D01*
X178491329Y-99100250D01*
X178491329Y-96560250D01*
X178491329Y-94020250D01*
X178491329Y-91480250D01*
X178491329Y-88940250D01*
X178491329Y-86400250D01*
X178491329Y-83860250D01*
X178491329Y-81320250D01*
X178299741Y-80856572D01*
X177945294Y-80501506D01*
X177481951Y-80309109D01*
X176980250Y-80308671D01*
X176516572Y-80500259D01*
X176161506Y-80854706D01*
X175969109Y-81318049D01*
X175968671Y-81819750D01*
X176160259Y-82283428D01*
X176514706Y-82638494D01*
X176978049Y-82830891D01*
X177479750Y-82831329D01*
X177943428Y-82639741D01*
X178298494Y-82285294D01*
X178490891Y-81821951D01*
X178491329Y-81320250D01*
X178491329Y-83860250D01*
X178299741Y-83396572D01*
X177945294Y-83041506D01*
X177481951Y-82849109D01*
X176980250Y-82848671D01*
X176516572Y-83040259D01*
X176161506Y-83394706D01*
X175969109Y-83858049D01*
X175968671Y-84359750D01*
X176160259Y-84823428D01*
X176514706Y-85178494D01*
X176978049Y-85370891D01*
X177479750Y-85371329D01*
X177943428Y-85179741D01*
X178298494Y-84825294D01*
X178490891Y-84361951D01*
X178491329Y-83860250D01*
X178491329Y-86400250D01*
X178299741Y-85936572D01*
X177945294Y-85581506D01*
X177481951Y-85389109D01*
X176980250Y-85388671D01*
X176516572Y-85580259D01*
X176161506Y-85934706D01*
X175969109Y-86398049D01*
X175968671Y-86899750D01*
X176160259Y-87363428D01*
X176514706Y-87718494D01*
X176978049Y-87910891D01*
X177479750Y-87911329D01*
X177943428Y-87719741D01*
X178298494Y-87365294D01*
X178490891Y-86901951D01*
X178491329Y-86400250D01*
X178491329Y-88940250D01*
X178299741Y-88476572D01*
X177945294Y-88121506D01*
X177481951Y-87929109D01*
X176980250Y-87928671D01*
X176516572Y-88120259D01*
X176161506Y-88474706D01*
X175969109Y-88938049D01*
X175968671Y-89439750D01*
X176160259Y-89903428D01*
X176514706Y-90258494D01*
X176978049Y-90450891D01*
X177479750Y-90451329D01*
X177943428Y-90259741D01*
X178298494Y-89905294D01*
X178490891Y-89441951D01*
X178491329Y-88940250D01*
X178491329Y-91480250D01*
X178299741Y-91016572D01*
X177945294Y-90661506D01*
X177481951Y-90469109D01*
X176980250Y-90468671D01*
X176516572Y-90660259D01*
X176161506Y-91014706D01*
X175969109Y-91478049D01*
X175968671Y-91979750D01*
X176160259Y-92443428D01*
X176514706Y-92798494D01*
X176978049Y-92990891D01*
X177479750Y-92991329D01*
X177943428Y-92799741D01*
X178298494Y-92445294D01*
X178490891Y-91981951D01*
X178491329Y-91480250D01*
X178491329Y-94020250D01*
X178299741Y-93556572D01*
X177945294Y-93201506D01*
X177481951Y-93009109D01*
X176980250Y-93008671D01*
X176516572Y-93200259D01*
X176161506Y-93554706D01*
X175969109Y-94018049D01*
X175968671Y-94519750D01*
X176160259Y-94983428D01*
X176514706Y-95338494D01*
X176978049Y-95530891D01*
X177479750Y-95531329D01*
X177943428Y-95339741D01*
X178298494Y-94985294D01*
X178490891Y-94521951D01*
X178491329Y-94020250D01*
X178491329Y-96560250D01*
X178299741Y-96096572D01*
X177945294Y-95741506D01*
X177481951Y-95549109D01*
X176980250Y-95548671D01*
X176516572Y-95740259D01*
X176161506Y-96094706D01*
X175969109Y-96558049D01*
X175968671Y-97059750D01*
X176160259Y-97523428D01*
X176514706Y-97878494D01*
X176978049Y-98070891D01*
X177479750Y-98071329D01*
X177943428Y-97879741D01*
X178298494Y-97525294D01*
X178490891Y-97061951D01*
X178491329Y-96560250D01*
X178491329Y-99100250D01*
X178299741Y-98636572D01*
X177945294Y-98281506D01*
X177481951Y-98089109D01*
X176980250Y-98088671D01*
X176516572Y-98280259D01*
X176161506Y-98634706D01*
X175969109Y-99098049D01*
X175968671Y-99599750D01*
X176160259Y-100063428D01*
X176514706Y-100418494D01*
X176978049Y-100610891D01*
X177479750Y-100611329D01*
X177943428Y-100419741D01*
X178298494Y-100065294D01*
X178490891Y-99601951D01*
X178491329Y-99100250D01*
X178491329Y-101640250D01*
X178299741Y-101176572D01*
X177945294Y-100821506D01*
X177481951Y-100629109D01*
X176980250Y-100628671D01*
X176516572Y-100820259D01*
X176161506Y-101174706D01*
X175969109Y-101638049D01*
X175968671Y-102139750D01*
X176160259Y-102603428D01*
X176514706Y-102958494D01*
X176978049Y-103150891D01*
X177479750Y-103151329D01*
X177943428Y-102959741D01*
X178298494Y-102605294D01*
X178490891Y-102141951D01*
X178491329Y-101640250D01*
X178491329Y-104180250D01*
X178299741Y-103716572D01*
X177945294Y-103361506D01*
X177481951Y-103169109D01*
X176980250Y-103168671D01*
X176516572Y-103360259D01*
X176161506Y-103714706D01*
X175969109Y-104178049D01*
X175968671Y-104679750D01*
X176160259Y-105143428D01*
X176514706Y-105498494D01*
X176978049Y-105690891D01*
X177479750Y-105691329D01*
X177943428Y-105499741D01*
X178298494Y-105145294D01*
X178490891Y-104681951D01*
X178491329Y-104180250D01*
X178491329Y-114820250D01*
X178299741Y-114356572D01*
X177945294Y-114001506D01*
X177481951Y-113809109D01*
X176980250Y-113808671D01*
X176516572Y-114000259D01*
X176161506Y-114354706D01*
X175969109Y-114818049D01*
X175968671Y-115319750D01*
X176160259Y-115783428D01*
X176514706Y-116138494D01*
X176978049Y-116330891D01*
X177479750Y-116331329D01*
X177943428Y-116139741D01*
X178298494Y-115785294D01*
X178490891Y-115321951D01*
X178491329Y-114820250D01*
X178491329Y-117360250D01*
X178299741Y-116896572D01*
X177945294Y-116541506D01*
X177481951Y-116349109D01*
X176980250Y-116348671D01*
X176516572Y-116540259D01*
X176161506Y-116894706D01*
X175969109Y-117358049D01*
X175968671Y-117859750D01*
X176160259Y-118323428D01*
X176514706Y-118678494D01*
X176978049Y-118870891D01*
X177479750Y-118871329D01*
X177943428Y-118679741D01*
X178298494Y-118325294D01*
X178490891Y-117861951D01*
X178491329Y-117360250D01*
X178491329Y-119900250D01*
X178299741Y-119436572D01*
X177945294Y-119081506D01*
X177481951Y-118889109D01*
X176980250Y-118888671D01*
X176516572Y-119080259D01*
X176161506Y-119434706D01*
X175969109Y-119898049D01*
X175968671Y-120399750D01*
X176160259Y-120863428D01*
X176514706Y-121218494D01*
X176978049Y-121410891D01*
X177479750Y-121411329D01*
X177943428Y-121219741D01*
X178298494Y-120865294D01*
X178490891Y-120401951D01*
X178491329Y-119900250D01*
X178491329Y-122440250D01*
X178299741Y-121976572D01*
X177945294Y-121621506D01*
X177481951Y-121429109D01*
X176980250Y-121428671D01*
X176516572Y-121620259D01*
X176161506Y-121974706D01*
X175969109Y-122438049D01*
X175968671Y-122939750D01*
X176160259Y-123403428D01*
X176514706Y-123758494D01*
X176978049Y-123950891D01*
X177479750Y-123951329D01*
X177943428Y-123759741D01*
X178298494Y-123405294D01*
X178490891Y-122941951D01*
X178491329Y-122440250D01*
X178491329Y-124980250D01*
X178299741Y-124516572D01*
X177945294Y-124161506D01*
X177481951Y-123969109D01*
X176980250Y-123968671D01*
X176516572Y-124160259D01*
X176161506Y-124514706D01*
X175969109Y-124978049D01*
X175968671Y-125479750D01*
X176160259Y-125943428D01*
X176514706Y-126298494D01*
X176978049Y-126490891D01*
X177479750Y-126491329D01*
X177943428Y-126299741D01*
X178298494Y-125945294D01*
X178490891Y-125481951D01*
X178491329Y-124980250D01*
X178491329Y-127520250D01*
X178299741Y-127056572D01*
X177945294Y-126701506D01*
X177481951Y-126509109D01*
X176980250Y-126508671D01*
X176516572Y-126700259D01*
X176161506Y-127054706D01*
X175969109Y-127518049D01*
X175968671Y-128019750D01*
X176160259Y-128483428D01*
X176514706Y-128838494D01*
X176978049Y-129030891D01*
X177479750Y-129031329D01*
X177943428Y-128839741D01*
X178298494Y-128485294D01*
X178490891Y-128021951D01*
X178491329Y-127520250D01*
X178491329Y-130060250D01*
X178299741Y-129596572D01*
X177945294Y-129241506D01*
X177481951Y-129049109D01*
X176980250Y-129048671D01*
X176516572Y-129240259D01*
X176161506Y-129594706D01*
X175969109Y-130058049D01*
X175968671Y-130559750D01*
X176160259Y-131023428D01*
X176514706Y-131378494D01*
X176978049Y-131570891D01*
X177479750Y-131571329D01*
X177943428Y-131379741D01*
X178298494Y-131025294D01*
X178490891Y-130561951D01*
X178491329Y-130060250D01*
X178491329Y-132600250D01*
X178299741Y-132136572D01*
X177945294Y-131781506D01*
X177481951Y-131589109D01*
X176980250Y-131588671D01*
X176516572Y-131780259D01*
X176161506Y-132134706D01*
X175969109Y-132598049D01*
X175968671Y-133099750D01*
X176160259Y-133563428D01*
X176514706Y-133918494D01*
X176978049Y-134110891D01*
X177479750Y-134111329D01*
X177943428Y-133919741D01*
X178298494Y-133565294D01*
X178490891Y-133101951D01*
X178491329Y-132600250D01*
X178491329Y-135140250D01*
X178299741Y-134676572D01*
X177945294Y-134321506D01*
X177481951Y-134129109D01*
X176980250Y-134128671D01*
X176516572Y-134320259D01*
X176161506Y-134674706D01*
X175969109Y-135138049D01*
X175968671Y-135639750D01*
X176160259Y-136103428D01*
X176514706Y-136458494D01*
X176978049Y-136650891D01*
X177479750Y-136651329D01*
X177943428Y-136459741D01*
X178298494Y-136105294D01*
X178490891Y-135641951D01*
X178491329Y-135140250D01*
X178491329Y-137680250D01*
X178299741Y-137216572D01*
X177945294Y-136861506D01*
X177481951Y-136669109D01*
X176980250Y-136668671D01*
X176516572Y-136860259D01*
X176161506Y-137214706D01*
X175969109Y-137678049D01*
X175968671Y-138179750D01*
X176160259Y-138643428D01*
X176514706Y-138998494D01*
X176978049Y-139190891D01*
X177479750Y-139191329D01*
X177943428Y-138999741D01*
X178298494Y-138645294D01*
X178490891Y-138181951D01*
X178491329Y-137680250D01*
X178491329Y-143417000D01*
X169941329Y-143417000D01*
X169941329Y-139520250D01*
X169941329Y-136980250D01*
X169749741Y-136516572D01*
X169691329Y-136458057D01*
X169691329Y-82020250D01*
X169691329Y-79480250D01*
X169499741Y-79016572D01*
X169145294Y-78661506D01*
X168681951Y-78469109D01*
X168180250Y-78468671D01*
X167716572Y-78660259D01*
X167361506Y-79014706D01*
X167169109Y-79478049D01*
X167168671Y-79979750D01*
X167360259Y-80443428D01*
X167714706Y-80798494D01*
X168178049Y-80990891D01*
X168679750Y-80991329D01*
X169143428Y-80799741D01*
X169498494Y-80445294D01*
X169690891Y-79981951D01*
X169691329Y-79480250D01*
X169691329Y-82020250D01*
X169499741Y-81556572D01*
X169145294Y-81201506D01*
X168681951Y-81009109D01*
X168180250Y-81008671D01*
X167716572Y-81200259D01*
X167361506Y-81554706D01*
X167169109Y-82018049D01*
X167168671Y-82519750D01*
X167360259Y-82983428D01*
X167714706Y-83338494D01*
X168178049Y-83530891D01*
X168679750Y-83531329D01*
X169143428Y-83339741D01*
X169498494Y-82985294D01*
X169690891Y-82521951D01*
X169691329Y-82020250D01*
X169691329Y-136458057D01*
X169395294Y-136161506D01*
X168931951Y-135969109D01*
X168430250Y-135968671D01*
X167966572Y-136160259D01*
X167611506Y-136514706D01*
X167419109Y-136978049D01*
X167418671Y-137479750D01*
X167610259Y-137943428D01*
X167964706Y-138298494D01*
X168428049Y-138490891D01*
X168929750Y-138491329D01*
X169393428Y-138299741D01*
X169748494Y-137945294D01*
X169940891Y-137481951D01*
X169941329Y-136980250D01*
X169941329Y-139520250D01*
X169749741Y-139056572D01*
X169395294Y-138701506D01*
X168931951Y-138509109D01*
X168430250Y-138508671D01*
X167966572Y-138700259D01*
X167611506Y-139054706D01*
X167419109Y-139518049D01*
X167418671Y-140019750D01*
X167610259Y-140483428D01*
X167964706Y-140838494D01*
X168428049Y-141030891D01*
X168929750Y-141031329D01*
X169393428Y-140839741D01*
X169748494Y-140485294D01*
X169940891Y-140021951D01*
X169941329Y-139520250D01*
X169941329Y-143417000D01*
X167401329Y-143417000D01*
X167401329Y-139520250D01*
X167401329Y-136980250D01*
X167209741Y-136516572D01*
X167151329Y-136458057D01*
X167151329Y-82020250D01*
X167151329Y-79480250D01*
X166959741Y-79016572D01*
X166605294Y-78661506D01*
X166141951Y-78469109D01*
X165640250Y-78468671D01*
X165176572Y-78660259D01*
X164821506Y-79014706D01*
X164629109Y-79478049D01*
X164628671Y-79979750D01*
X164820259Y-80443428D01*
X165174706Y-80798494D01*
X165638049Y-80990891D01*
X166139750Y-80991329D01*
X166603428Y-80799741D01*
X166958494Y-80445294D01*
X167150891Y-79981951D01*
X167151329Y-79480250D01*
X167151329Y-82020250D01*
X166959741Y-81556572D01*
X166605294Y-81201506D01*
X166141951Y-81009109D01*
X165640250Y-81008671D01*
X165176572Y-81200259D01*
X164821506Y-81554706D01*
X164629109Y-82018049D01*
X164628671Y-82519750D01*
X164820259Y-82983428D01*
X165174706Y-83338494D01*
X165638049Y-83530891D01*
X166139750Y-83531329D01*
X166603428Y-83339741D01*
X166958494Y-82985294D01*
X167150891Y-82521951D01*
X167151329Y-82020250D01*
X167151329Y-136458057D01*
X166855294Y-136161506D01*
X166391951Y-135969109D01*
X165890250Y-135968671D01*
X165426572Y-136160259D01*
X165071506Y-136514706D01*
X164879109Y-136978049D01*
X164878671Y-137479750D01*
X165070259Y-137943428D01*
X165424706Y-138298494D01*
X165888049Y-138490891D01*
X166389750Y-138491329D01*
X166853428Y-138299741D01*
X167208494Y-137945294D01*
X167400891Y-137481951D01*
X167401329Y-136980250D01*
X167401329Y-139520250D01*
X167209741Y-139056572D01*
X166855294Y-138701506D01*
X166391951Y-138509109D01*
X165890250Y-138508671D01*
X165426572Y-138700259D01*
X165071506Y-139054706D01*
X164879109Y-139518049D01*
X164878671Y-140019750D01*
X165070259Y-140483428D01*
X165424706Y-140838494D01*
X165888049Y-141030891D01*
X166389750Y-141031329D01*
X166853428Y-140839741D01*
X167208494Y-140485294D01*
X167400891Y-140021951D01*
X167401329Y-139520250D01*
X167401329Y-143417000D01*
X164861329Y-143417000D01*
X164861329Y-139520250D01*
X164861329Y-136980250D01*
X164669741Y-136516572D01*
X164611329Y-136458057D01*
X164611329Y-82020250D01*
X164611329Y-79480250D01*
X164419741Y-79016572D01*
X164065294Y-78661506D01*
X163601951Y-78469109D01*
X163100250Y-78468671D01*
X162636572Y-78660259D01*
X162281506Y-79014706D01*
X162089109Y-79478049D01*
X162088671Y-79979750D01*
X162280259Y-80443428D01*
X162634706Y-80798494D01*
X163098049Y-80990891D01*
X163599750Y-80991329D01*
X164063428Y-80799741D01*
X164418494Y-80445294D01*
X164610891Y-79981951D01*
X164611329Y-79480250D01*
X164611329Y-82020250D01*
X164419741Y-81556572D01*
X164065294Y-81201506D01*
X163601951Y-81009109D01*
X163100250Y-81008671D01*
X162636572Y-81200259D01*
X162281506Y-81554706D01*
X162089109Y-82018049D01*
X162088671Y-82519750D01*
X162280259Y-82983428D01*
X162634706Y-83338494D01*
X163098049Y-83530891D01*
X163599750Y-83531329D01*
X164063428Y-83339741D01*
X164418494Y-82985294D01*
X164610891Y-82521951D01*
X164611329Y-82020250D01*
X164611329Y-136458057D01*
X164315294Y-136161506D01*
X163851951Y-135969109D01*
X163350250Y-135968671D01*
X162886572Y-136160259D01*
X162531506Y-136514706D01*
X162339109Y-136978049D01*
X162338671Y-137479750D01*
X162530259Y-137943428D01*
X162884706Y-138298494D01*
X163348049Y-138490891D01*
X163849750Y-138491329D01*
X164313428Y-138299741D01*
X164668494Y-137945294D01*
X164860891Y-137481951D01*
X164861329Y-136980250D01*
X164861329Y-139520250D01*
X164669741Y-139056572D01*
X164315294Y-138701506D01*
X163851951Y-138509109D01*
X163350250Y-138508671D01*
X162886572Y-138700259D01*
X162531506Y-139054706D01*
X162339109Y-139518049D01*
X162338671Y-140019750D01*
X162530259Y-140483428D01*
X162884706Y-140838494D01*
X163348049Y-141030891D01*
X163849750Y-141031329D01*
X164313428Y-140839741D01*
X164668494Y-140485294D01*
X164860891Y-140021951D01*
X164861329Y-139520250D01*
X164861329Y-143417000D01*
X162321329Y-143417000D01*
X162321329Y-139520250D01*
X162321329Y-136980250D01*
X162129741Y-136516572D01*
X162071329Y-136458057D01*
X162071329Y-82020250D01*
X162071329Y-79480250D01*
X161879741Y-79016572D01*
X161525294Y-78661506D01*
X161061951Y-78469109D01*
X160560250Y-78468671D01*
X160096572Y-78660259D01*
X159741506Y-79014706D01*
X159549109Y-79478049D01*
X159548671Y-79979750D01*
X159740259Y-80443428D01*
X160094706Y-80798494D01*
X160558049Y-80990891D01*
X161059750Y-80991329D01*
X161523428Y-80799741D01*
X161878494Y-80445294D01*
X162070891Y-79981951D01*
X162071329Y-79480250D01*
X162071329Y-82020250D01*
X161879741Y-81556572D01*
X161525294Y-81201506D01*
X161061951Y-81009109D01*
X160560250Y-81008671D01*
X160096572Y-81200259D01*
X159741506Y-81554706D01*
X159549109Y-82018049D01*
X159548671Y-82519750D01*
X159740259Y-82983428D01*
X160094706Y-83338494D01*
X160558049Y-83530891D01*
X161059750Y-83531329D01*
X161523428Y-83339741D01*
X161878494Y-82985294D01*
X162070891Y-82521951D01*
X162071329Y-82020250D01*
X162071329Y-136458057D01*
X161775294Y-136161506D01*
X161311951Y-135969109D01*
X160810250Y-135968671D01*
X160346572Y-136160259D01*
X159991506Y-136514706D01*
X159799109Y-136978049D01*
X159798671Y-137479750D01*
X159990259Y-137943428D01*
X160344706Y-138298494D01*
X160808049Y-138490891D01*
X161309750Y-138491329D01*
X161773428Y-138299741D01*
X162128494Y-137945294D01*
X162320891Y-137481951D01*
X162321329Y-136980250D01*
X162321329Y-139520250D01*
X162129741Y-139056572D01*
X161775294Y-138701506D01*
X161311951Y-138509109D01*
X160810250Y-138508671D01*
X160346572Y-138700259D01*
X159991506Y-139054706D01*
X159799109Y-139518049D01*
X159798671Y-140019750D01*
X159990259Y-140483428D01*
X160344706Y-140838494D01*
X160808049Y-141030891D01*
X161309750Y-141031329D01*
X161773428Y-140839741D01*
X162128494Y-140485294D01*
X162320891Y-140021951D01*
X162321329Y-139520250D01*
X162321329Y-143417000D01*
X159781329Y-143417000D01*
X159781329Y-139520250D01*
X159781329Y-136980250D01*
X159589741Y-136516572D01*
X159531329Y-136458057D01*
X159531329Y-82020250D01*
X159531329Y-79480250D01*
X159339741Y-79016572D01*
X158985294Y-78661506D01*
X158521951Y-78469109D01*
X158020250Y-78468671D01*
X157556572Y-78660259D01*
X157201506Y-79014706D01*
X157009109Y-79478049D01*
X157008671Y-79979750D01*
X157200259Y-80443428D01*
X157554706Y-80798494D01*
X158018049Y-80990891D01*
X158519750Y-80991329D01*
X158983428Y-80799741D01*
X159338494Y-80445294D01*
X159530891Y-79981951D01*
X159531329Y-79480250D01*
X159531329Y-82020250D01*
X159339741Y-81556572D01*
X158985294Y-81201506D01*
X158521951Y-81009109D01*
X158020250Y-81008671D01*
X157556572Y-81200259D01*
X157201506Y-81554706D01*
X157009109Y-82018049D01*
X157008671Y-82519750D01*
X157200259Y-82983428D01*
X157554706Y-83338494D01*
X158018049Y-83530891D01*
X158519750Y-83531329D01*
X158983428Y-83339741D01*
X159338494Y-82985294D01*
X159530891Y-82521951D01*
X159531329Y-82020250D01*
X159531329Y-136458057D01*
X159235294Y-136161506D01*
X158771951Y-135969109D01*
X158270250Y-135968671D01*
X157806572Y-136160259D01*
X157451506Y-136514706D01*
X157259109Y-136978049D01*
X157258671Y-137479750D01*
X157450259Y-137943428D01*
X157804706Y-138298494D01*
X158268049Y-138490891D01*
X158769750Y-138491329D01*
X159233428Y-138299741D01*
X159588494Y-137945294D01*
X159780891Y-137481951D01*
X159781329Y-136980250D01*
X159781329Y-139520250D01*
X159589741Y-139056572D01*
X159235294Y-138701506D01*
X158771951Y-138509109D01*
X158270250Y-138508671D01*
X157806572Y-138700259D01*
X157451506Y-139054706D01*
X157259109Y-139518049D01*
X157258671Y-140019750D01*
X157450259Y-140483428D01*
X157804706Y-140838494D01*
X158268049Y-141030891D01*
X158769750Y-141031329D01*
X159233428Y-140839741D01*
X159588494Y-140485294D01*
X159780891Y-140021951D01*
X159781329Y-139520250D01*
X159781329Y-143417000D01*
X157241329Y-143417000D01*
X157241329Y-139520250D01*
X157241329Y-136980250D01*
X157049741Y-136516572D01*
X156991329Y-136458057D01*
X156991329Y-82020250D01*
X156991329Y-79480250D01*
X156799741Y-79016572D01*
X156445294Y-78661506D01*
X155981951Y-78469109D01*
X155480250Y-78468671D01*
X155016572Y-78660259D01*
X154661506Y-79014706D01*
X154469109Y-79478049D01*
X154468671Y-79979750D01*
X154660259Y-80443428D01*
X155014706Y-80798494D01*
X155478049Y-80990891D01*
X155979750Y-80991329D01*
X156443428Y-80799741D01*
X156798494Y-80445294D01*
X156990891Y-79981951D01*
X156991329Y-79480250D01*
X156991329Y-82020250D01*
X156799741Y-81556572D01*
X156445294Y-81201506D01*
X155981951Y-81009109D01*
X155480250Y-81008671D01*
X155016572Y-81200259D01*
X154661506Y-81554706D01*
X154469109Y-82018049D01*
X154468671Y-82519750D01*
X154660259Y-82983428D01*
X155014706Y-83338494D01*
X155478049Y-83530891D01*
X155979750Y-83531329D01*
X156443428Y-83339741D01*
X156798494Y-82985294D01*
X156990891Y-82521951D01*
X156991329Y-82020250D01*
X156991329Y-136458057D01*
X156695294Y-136161506D01*
X156231951Y-135969109D01*
X155730250Y-135968671D01*
X155266572Y-136160259D01*
X154911506Y-136514706D01*
X154719109Y-136978049D01*
X154718671Y-137479750D01*
X154910259Y-137943428D01*
X155264706Y-138298494D01*
X155728049Y-138490891D01*
X156229750Y-138491329D01*
X156693428Y-138299741D01*
X157048494Y-137945294D01*
X157240891Y-137481951D01*
X157241329Y-136980250D01*
X157241329Y-139520250D01*
X157049741Y-139056572D01*
X156695294Y-138701506D01*
X156231951Y-138509109D01*
X155730250Y-138508671D01*
X155266572Y-138700259D01*
X154911506Y-139054706D01*
X154719109Y-139518049D01*
X154718671Y-140019750D01*
X154910259Y-140483428D01*
X155264706Y-140838494D01*
X155728049Y-141030891D01*
X156229750Y-141031329D01*
X156693428Y-140839741D01*
X157048494Y-140485294D01*
X157240891Y-140021951D01*
X157241329Y-139520250D01*
X157241329Y-143417000D01*
X154701329Y-143417000D01*
X154701329Y-139520250D01*
X154701329Y-136980250D01*
X154509741Y-136516572D01*
X154451329Y-136458057D01*
X154451329Y-82020250D01*
X154451329Y-79480250D01*
X154259741Y-79016572D01*
X153905294Y-78661506D01*
X153441951Y-78469109D01*
X152940250Y-78468671D01*
X152476572Y-78660259D01*
X152121506Y-79014706D01*
X151929109Y-79478049D01*
X151928671Y-79979750D01*
X152120259Y-80443428D01*
X152474706Y-80798494D01*
X152938049Y-80990891D01*
X153439750Y-80991329D01*
X153903428Y-80799741D01*
X154258494Y-80445294D01*
X154450891Y-79981951D01*
X154451329Y-79480250D01*
X154451329Y-82020250D01*
X154259741Y-81556572D01*
X153905294Y-81201506D01*
X153441951Y-81009109D01*
X152940250Y-81008671D01*
X152476572Y-81200259D01*
X152121506Y-81554706D01*
X151929109Y-82018049D01*
X151928671Y-82519750D01*
X152120259Y-82983428D01*
X152474706Y-83338494D01*
X152938049Y-83530891D01*
X153439750Y-83531329D01*
X153903428Y-83339741D01*
X154258494Y-82985294D01*
X154450891Y-82521951D01*
X154451329Y-82020250D01*
X154451329Y-136458057D01*
X154155294Y-136161506D01*
X153691951Y-135969109D01*
X153190250Y-135968671D01*
X152726572Y-136160259D01*
X152371506Y-136514706D01*
X152179109Y-136978049D01*
X152178671Y-137479750D01*
X152370259Y-137943428D01*
X152724706Y-138298494D01*
X153188049Y-138490891D01*
X153689750Y-138491329D01*
X154153428Y-138299741D01*
X154508494Y-137945294D01*
X154700891Y-137481951D01*
X154701329Y-136980250D01*
X154701329Y-139520250D01*
X154509741Y-139056572D01*
X154155294Y-138701506D01*
X153691951Y-138509109D01*
X153190250Y-138508671D01*
X152726572Y-138700259D01*
X152371506Y-139054706D01*
X152179109Y-139518049D01*
X152178671Y-140019750D01*
X152370259Y-140483428D01*
X152724706Y-140838494D01*
X153188049Y-141030891D01*
X153689750Y-141031329D01*
X154153428Y-140839741D01*
X154508494Y-140485294D01*
X154700891Y-140021951D01*
X154701329Y-139520250D01*
X154701329Y-143417000D01*
X152161329Y-143417000D01*
X152161329Y-139520250D01*
X152161329Y-136980250D01*
X151969741Y-136516572D01*
X151911329Y-136458057D01*
X151911329Y-82020250D01*
X151911329Y-79480250D01*
X151719741Y-79016572D01*
X151365294Y-78661506D01*
X150901951Y-78469109D01*
X150400250Y-78468671D01*
X149936572Y-78660259D01*
X149581506Y-79014706D01*
X149389109Y-79478049D01*
X149388671Y-79979750D01*
X149580259Y-80443428D01*
X149934706Y-80798494D01*
X150398049Y-80990891D01*
X150899750Y-80991329D01*
X151363428Y-80799741D01*
X151718494Y-80445294D01*
X151910891Y-79981951D01*
X151911329Y-79480250D01*
X151911329Y-82020250D01*
X151719741Y-81556572D01*
X151365294Y-81201506D01*
X150901951Y-81009109D01*
X150400250Y-81008671D01*
X149936572Y-81200259D01*
X149581506Y-81554706D01*
X149389109Y-82018049D01*
X149388671Y-82519750D01*
X149580259Y-82983428D01*
X149934706Y-83338494D01*
X150398049Y-83530891D01*
X150899750Y-83531329D01*
X151363428Y-83339741D01*
X151718494Y-82985294D01*
X151910891Y-82521951D01*
X151911329Y-82020250D01*
X151911329Y-136458057D01*
X151615294Y-136161506D01*
X151151951Y-135969109D01*
X150650250Y-135968671D01*
X150186572Y-136160259D01*
X149831506Y-136514706D01*
X149639109Y-136978049D01*
X149638671Y-137479750D01*
X149830259Y-137943428D01*
X150184706Y-138298494D01*
X150648049Y-138490891D01*
X151149750Y-138491329D01*
X151613428Y-138299741D01*
X151968494Y-137945294D01*
X152160891Y-137481951D01*
X152161329Y-136980250D01*
X152161329Y-139520250D01*
X151969741Y-139056572D01*
X151615294Y-138701506D01*
X151151951Y-138509109D01*
X150650250Y-138508671D01*
X150186572Y-138700259D01*
X149831506Y-139054706D01*
X149639109Y-139518049D01*
X149638671Y-140019750D01*
X149830259Y-140483428D01*
X150184706Y-140838494D01*
X150648049Y-141030891D01*
X151149750Y-141031329D01*
X151613428Y-140839741D01*
X151968494Y-140485294D01*
X152160891Y-140021951D01*
X152161329Y-139520250D01*
X152161329Y-143417000D01*
X149621329Y-143417000D01*
X149621329Y-139520250D01*
X149621329Y-136980250D01*
X149429741Y-136516572D01*
X149371329Y-136458057D01*
X149371329Y-82020250D01*
X149371329Y-79480250D01*
X149179741Y-79016572D01*
X148825294Y-78661506D01*
X148361951Y-78469109D01*
X147860250Y-78468671D01*
X147396572Y-78660259D01*
X147041506Y-79014706D01*
X146849109Y-79478049D01*
X146848671Y-79979750D01*
X147040259Y-80443428D01*
X147394706Y-80798494D01*
X147858049Y-80990891D01*
X148359750Y-80991329D01*
X148823428Y-80799741D01*
X149178494Y-80445294D01*
X149370891Y-79981951D01*
X149371329Y-79480250D01*
X149371329Y-82020250D01*
X149179741Y-81556572D01*
X148825294Y-81201506D01*
X148361951Y-81009109D01*
X147860250Y-81008671D01*
X147396572Y-81200259D01*
X147041506Y-81554706D01*
X146849109Y-82018049D01*
X146848671Y-82519750D01*
X147040259Y-82983428D01*
X147394706Y-83338494D01*
X147858049Y-83530891D01*
X148359750Y-83531329D01*
X148823428Y-83339741D01*
X149178494Y-82985294D01*
X149370891Y-82521951D01*
X149371329Y-82020250D01*
X149371329Y-136458057D01*
X149075294Y-136161506D01*
X148611951Y-135969109D01*
X148110250Y-135968671D01*
X147646572Y-136160259D01*
X147291506Y-136514706D01*
X147099109Y-136978049D01*
X147098671Y-137479750D01*
X147290259Y-137943428D01*
X147644706Y-138298494D01*
X148108049Y-138490891D01*
X148609750Y-138491329D01*
X149073428Y-138299741D01*
X149428494Y-137945294D01*
X149620891Y-137481951D01*
X149621329Y-136980250D01*
X149621329Y-139520250D01*
X149429741Y-139056572D01*
X149075294Y-138701506D01*
X148611951Y-138509109D01*
X148110250Y-138508671D01*
X147646572Y-138700259D01*
X147291506Y-139054706D01*
X147099109Y-139518049D01*
X147098671Y-140019750D01*
X147290259Y-140483428D01*
X147644706Y-140838494D01*
X148108049Y-141030891D01*
X148609750Y-141031329D01*
X149073428Y-140839741D01*
X149428494Y-140485294D01*
X149620891Y-140021951D01*
X149621329Y-139520250D01*
X149621329Y-143417000D01*
X147081329Y-143417000D01*
X147081329Y-136980250D01*
X146889741Y-136516572D01*
X146858218Y-136484993D01*
X146858218Y-85150866D01*
X146831329Y-85085789D01*
X146831329Y-82020250D01*
X146831329Y-79480250D01*
X146639741Y-79016572D01*
X146285294Y-78661506D01*
X145821951Y-78469109D01*
X145320250Y-78468671D01*
X144856572Y-78660259D01*
X144501506Y-79014706D01*
X144309109Y-79478049D01*
X144308671Y-79979750D01*
X144500259Y-80443428D01*
X144854706Y-80798494D01*
X145318049Y-80990891D01*
X145819750Y-80991329D01*
X146283428Y-80799741D01*
X146638494Y-80445294D01*
X146830891Y-79981951D01*
X146831329Y-79480250D01*
X146831329Y-82020250D01*
X146639741Y-81556572D01*
X146285294Y-81201506D01*
X145821951Y-81009109D01*
X145320250Y-81008671D01*
X144856572Y-81200259D01*
X144501506Y-81554706D01*
X144309109Y-82018049D01*
X144308671Y-82519750D01*
X144500259Y-82983428D01*
X144854706Y-83338494D01*
X145318049Y-83530891D01*
X145819750Y-83531329D01*
X146283428Y-83339741D01*
X146638494Y-82985294D01*
X146830891Y-82521951D01*
X146831329Y-82020250D01*
X146831329Y-85085789D01*
X146667103Y-84688331D01*
X146313530Y-84334141D01*
X145851330Y-84142219D01*
X145350866Y-84141782D01*
X144888331Y-84332897D01*
X144534141Y-84686470D01*
X144342219Y-85148670D01*
X144341782Y-85649134D01*
X144532897Y-86111669D01*
X144886470Y-86465859D01*
X144990400Y-86509014D01*
X144990400Y-89247495D01*
X141018420Y-93219475D01*
X141018420Y-82700000D01*
X140159210Y-81840790D01*
X139210420Y-80892000D01*
X137089580Y-80892000D01*
X131766709Y-86214871D01*
X131766709Y-78221065D01*
X131583418Y-77777465D01*
X131244320Y-77437775D01*
X130801041Y-77253710D01*
X130321065Y-77253291D01*
X129877465Y-77436582D01*
X129537775Y-77775680D01*
X129353710Y-78218959D01*
X129353291Y-78698935D01*
X129536582Y-79142535D01*
X129875680Y-79482225D01*
X130318959Y-79666290D01*
X130798935Y-79666709D01*
X131242535Y-79483418D01*
X131582225Y-79144320D01*
X131766290Y-78701041D01*
X131766709Y-78221065D01*
X131766709Y-86214871D01*
X124146709Y-93834871D01*
X124146709Y-78221065D01*
X123963418Y-77777465D01*
X123624320Y-77437775D01*
X123181041Y-77253710D01*
X122701065Y-77253291D01*
X122257465Y-77436582D01*
X121917775Y-77775680D01*
X121733710Y-78218959D01*
X121733291Y-78698935D01*
X121916582Y-79142535D01*
X122255680Y-79482225D01*
X122698959Y-79666290D01*
X123178935Y-79666709D01*
X123622535Y-79483418D01*
X123962225Y-79144320D01*
X124146290Y-78701041D01*
X124146709Y-78221065D01*
X124146709Y-93834871D01*
X113292000Y-104689580D01*
X113292000Y-110010420D01*
X114189580Y-110908000D01*
X117110420Y-110908000D01*
X129910420Y-98108000D01*
X133010420Y-98108000D01*
X134508000Y-96610420D01*
X134508000Y-89210420D01*
X141018420Y-82700000D01*
X141018420Y-93219475D01*
X125847495Y-108390400D01*
X121500000Y-108390400D01*
X121266716Y-108436803D01*
X121068948Y-108568948D01*
X118894396Y-110743500D01*
X118700453Y-110743500D01*
X118513742Y-110820838D01*
X118370839Y-110963741D01*
X118293500Y-111150452D01*
X118293500Y-111344396D01*
X117953325Y-111684570D01*
X117851330Y-111642219D01*
X117350866Y-111641782D01*
X116888331Y-111832897D01*
X116534141Y-112186470D01*
X116342219Y-112648670D01*
X116341782Y-113149134D01*
X116532897Y-113611669D01*
X116886470Y-113965859D01*
X117348670Y-114157781D01*
X117849134Y-114158218D01*
X118311669Y-113967103D01*
X118665859Y-113613530D01*
X118855634Y-113156500D01*
X118902547Y-113156500D01*
X120299547Y-113156500D01*
X120486258Y-113079162D01*
X120629161Y-112936259D01*
X120706500Y-112749548D01*
X120706500Y-112547453D01*
X120706500Y-111150453D01*
X120629162Y-110963742D01*
X120513762Y-110848342D01*
X121752504Y-109609600D01*
X126100000Y-109609600D01*
X126333284Y-109563197D01*
X126531052Y-109431052D01*
X146031052Y-89931053D01*
X146031052Y-89931052D01*
X146163197Y-89733284D01*
X146209599Y-89500000D01*
X146209600Y-89500000D01*
X146209600Y-86509276D01*
X146311669Y-86467103D01*
X146665859Y-86113530D01*
X146857781Y-85651330D01*
X146858218Y-85150866D01*
X146858218Y-136484993D01*
X146535294Y-136161506D01*
X146071951Y-135969109D01*
X145570250Y-135968671D01*
X145106572Y-136160259D01*
X144751506Y-136514706D01*
X144559109Y-136978049D01*
X144558671Y-137479750D01*
X144750259Y-137943428D01*
X145104706Y-138298494D01*
X145568049Y-138490891D01*
X146069750Y-138491329D01*
X146533428Y-138299741D01*
X146888494Y-137945294D01*
X147080891Y-137481951D01*
X147081329Y-136980250D01*
X147081329Y-143417000D01*
X139108000Y-143417000D01*
X139108000Y-126310420D01*
X139108000Y-115589580D01*
X138110420Y-114592000D01*
X135589580Y-114592000D01*
X134092000Y-116089580D01*
X134092000Y-124289580D01*
X125892000Y-132489580D01*
X125892000Y-135710420D01*
X126489580Y-136308000D01*
X129110420Y-136308000D01*
X139108000Y-126310420D01*
X139108000Y-143417000D01*
X138157386Y-143417000D01*
X138157386Y-137459461D01*
X138011910Y-137107383D01*
X137742774Y-136837777D01*
X137390950Y-136691687D01*
X137010001Y-136691354D01*
X136657923Y-136836830D01*
X136388317Y-137105966D01*
X136242227Y-137457790D01*
X136241894Y-137838739D01*
X136387370Y-138190817D01*
X136656506Y-138460423D01*
X137008330Y-138606513D01*
X137389279Y-138606846D01*
X137741357Y-138461370D01*
X138010963Y-138192234D01*
X138157053Y-137840410D01*
X138157386Y-137459461D01*
X138157386Y-143417000D01*
X133758106Y-143417000D01*
X133758106Y-137459461D01*
X133612630Y-137107383D01*
X133343494Y-136837777D01*
X132991670Y-136691687D01*
X132610721Y-136691354D01*
X132258643Y-136836830D01*
X131989037Y-137105966D01*
X131842947Y-137457790D01*
X131842614Y-137838739D01*
X131988090Y-138190817D01*
X132257226Y-138460423D01*
X132609050Y-138606513D01*
X132989999Y-138606846D01*
X133342077Y-138461370D01*
X133611683Y-138192234D01*
X133757773Y-137840410D01*
X133758106Y-137459461D01*
X133758106Y-143417000D01*
X120706709Y-143417000D01*
X120706709Y-119331065D01*
X120706709Y-116791065D01*
X120706709Y-114251065D01*
X120523418Y-113807465D01*
X120184320Y-113467775D01*
X119741041Y-113283710D01*
X119261065Y-113283291D01*
X118817465Y-113466582D01*
X118477775Y-113805680D01*
X118293710Y-114248959D01*
X118293291Y-114728935D01*
X118476582Y-115172535D01*
X118815680Y-115512225D01*
X119258959Y-115696290D01*
X119738935Y-115696709D01*
X120182535Y-115513418D01*
X120522225Y-115174320D01*
X120706290Y-114731041D01*
X120706709Y-114251065D01*
X120706709Y-116791065D01*
X120523418Y-116347465D01*
X120184320Y-116007775D01*
X119741041Y-115823710D01*
X119261065Y-115823291D01*
X118817465Y-116006582D01*
X118477775Y-116345680D01*
X118293710Y-116788959D01*
X118293291Y-117268935D01*
X118476582Y-117712535D01*
X118815680Y-118052225D01*
X119258959Y-118236290D01*
X119738935Y-118236709D01*
X120182535Y-118053418D01*
X120522225Y-117714320D01*
X120706290Y-117271041D01*
X120706709Y-116791065D01*
X120706709Y-119331065D01*
X120523418Y-118887465D01*
X120184320Y-118547775D01*
X119741041Y-118363710D01*
X119261065Y-118363291D01*
X118817465Y-118546582D01*
X118477775Y-118885680D01*
X118293710Y-119328959D01*
X118293291Y-119808935D01*
X118476582Y-120252535D01*
X118815680Y-120592225D01*
X119258959Y-120776290D01*
X119738935Y-120776709D01*
X120182535Y-120593418D01*
X120522225Y-120254320D01*
X120706290Y-119811041D01*
X120706709Y-119331065D01*
X120706709Y-143417000D01*
X113281329Y-143417000D01*
X113281329Y-137930250D01*
X113281329Y-135390250D01*
X113281329Y-132850250D01*
X113281329Y-130310250D01*
X113281329Y-127770250D01*
X113281329Y-125230250D01*
X113281329Y-122690250D01*
X113281329Y-120150250D01*
X113281329Y-117610250D01*
X113281329Y-115070250D01*
X113281329Y-104430250D01*
X113281329Y-101890250D01*
X113281329Y-99350250D01*
X113281329Y-96810250D01*
X113281329Y-94270250D01*
X113281329Y-91730250D01*
X113281329Y-89190250D01*
X113281329Y-86650250D01*
X113281329Y-84110250D01*
X113281329Y-81570250D01*
X113089741Y-81106572D01*
X112735294Y-80751506D01*
X112271951Y-80559109D01*
X111770250Y-80558671D01*
X111306572Y-80750259D01*
X110951506Y-81104706D01*
X110759109Y-81568049D01*
X110758671Y-82069750D01*
X110950259Y-82533428D01*
X111304706Y-82888494D01*
X111768049Y-83080891D01*
X112269750Y-83081329D01*
X112733428Y-82889741D01*
X113088494Y-82535294D01*
X113280891Y-82071951D01*
X113281329Y-81570250D01*
X113281329Y-84110250D01*
X113089741Y-83646572D01*
X112735294Y-83291506D01*
X112271951Y-83099109D01*
X111770250Y-83098671D01*
X111306572Y-83290259D01*
X110951506Y-83644706D01*
X110759109Y-84108049D01*
X110758671Y-84609750D01*
X110950259Y-85073428D01*
X111304706Y-85428494D01*
X111768049Y-85620891D01*
X112269750Y-85621329D01*
X112733428Y-85429741D01*
X113088494Y-85075294D01*
X113280891Y-84611951D01*
X113281329Y-84110250D01*
X113281329Y-86650250D01*
X113089741Y-86186572D01*
X112735294Y-85831506D01*
X112271951Y-85639109D01*
X111770250Y-85638671D01*
X111306572Y-85830259D01*
X110951506Y-86184706D01*
X110759109Y-86648049D01*
X110758671Y-87149750D01*
X110950259Y-87613428D01*
X111304706Y-87968494D01*
X111768049Y-88160891D01*
X112269750Y-88161329D01*
X112733428Y-87969741D01*
X113088494Y-87615294D01*
X113280891Y-87151951D01*
X113281329Y-86650250D01*
X113281329Y-89190250D01*
X113089741Y-88726572D01*
X112735294Y-88371506D01*
X112271951Y-88179109D01*
X111770250Y-88178671D01*
X111306572Y-88370259D01*
X110951506Y-88724706D01*
X110759109Y-89188049D01*
X110758671Y-89689750D01*
X110950259Y-90153428D01*
X111304706Y-90508494D01*
X111768049Y-90700891D01*
X112269750Y-90701329D01*
X112733428Y-90509741D01*
X113088494Y-90155294D01*
X113280891Y-89691951D01*
X113281329Y-89190250D01*
X113281329Y-91730250D01*
X113089741Y-91266572D01*
X112735294Y-90911506D01*
X112271951Y-90719109D01*
X111770250Y-90718671D01*
X111306572Y-90910259D01*
X110951506Y-91264706D01*
X110759109Y-91728049D01*
X110758671Y-92229750D01*
X110950259Y-92693428D01*
X111304706Y-93048494D01*
X111768049Y-93240891D01*
X112269750Y-93241329D01*
X112733428Y-93049741D01*
X113088494Y-92695294D01*
X113280891Y-92231951D01*
X113281329Y-91730250D01*
X113281329Y-94270250D01*
X113089741Y-93806572D01*
X112735294Y-93451506D01*
X112271951Y-93259109D01*
X111770250Y-93258671D01*
X111306572Y-93450259D01*
X110951506Y-93804706D01*
X110759109Y-94268049D01*
X110758671Y-94769750D01*
X110950259Y-95233428D01*
X111304706Y-95588494D01*
X111768049Y-95780891D01*
X112269750Y-95781329D01*
X112733428Y-95589741D01*
X113088494Y-95235294D01*
X113280891Y-94771951D01*
X113281329Y-94270250D01*
X113281329Y-96810250D01*
X113089741Y-96346572D01*
X112735294Y-95991506D01*
X112271951Y-95799109D01*
X111770250Y-95798671D01*
X111306572Y-95990259D01*
X110951506Y-96344706D01*
X110759109Y-96808049D01*
X110758671Y-97309750D01*
X110950259Y-97773428D01*
X111304706Y-98128494D01*
X111768049Y-98320891D01*
X112269750Y-98321329D01*
X112733428Y-98129741D01*
X113088494Y-97775294D01*
X113280891Y-97311951D01*
X113281329Y-96810250D01*
X113281329Y-99350250D01*
X113089741Y-98886572D01*
X112735294Y-98531506D01*
X112271951Y-98339109D01*
X111770250Y-98338671D01*
X111306572Y-98530259D01*
X110951506Y-98884706D01*
X110759109Y-99348049D01*
X110758671Y-99849750D01*
X110950259Y-100313428D01*
X111304706Y-100668494D01*
X111768049Y-100860891D01*
X112269750Y-100861329D01*
X112733428Y-100669741D01*
X113088494Y-100315294D01*
X113280891Y-99851951D01*
X113281329Y-99350250D01*
X113281329Y-101890250D01*
X113089741Y-101426572D01*
X112735294Y-101071506D01*
X112271951Y-100879109D01*
X111770250Y-100878671D01*
X111306572Y-101070259D01*
X110951506Y-101424706D01*
X110759109Y-101888049D01*
X110758671Y-102389750D01*
X110950259Y-102853428D01*
X111304706Y-103208494D01*
X111768049Y-103400891D01*
X112269750Y-103401329D01*
X112733428Y-103209741D01*
X113088494Y-102855294D01*
X113280891Y-102391951D01*
X113281329Y-101890250D01*
X113281329Y-104430250D01*
X113089741Y-103966572D01*
X112735294Y-103611506D01*
X112271951Y-103419109D01*
X111770250Y-103418671D01*
X111306572Y-103610259D01*
X110951506Y-103964706D01*
X110759109Y-104428049D01*
X110758671Y-104929750D01*
X110950259Y-105393428D01*
X111304706Y-105748494D01*
X111768049Y-105940891D01*
X112269750Y-105941329D01*
X112733428Y-105749741D01*
X113088494Y-105395294D01*
X113280891Y-104931951D01*
X113281329Y-104430250D01*
X113281329Y-115070250D01*
X113089741Y-114606572D01*
X112735294Y-114251506D01*
X112271951Y-114059109D01*
X111770250Y-114058671D01*
X111306572Y-114250259D01*
X110951506Y-114604706D01*
X110759109Y-115068049D01*
X110758671Y-115569750D01*
X110950259Y-116033428D01*
X111304706Y-116388494D01*
X111768049Y-116580891D01*
X112269750Y-116581329D01*
X112733428Y-116389741D01*
X113088494Y-116035294D01*
X113280891Y-115571951D01*
X113281329Y-115070250D01*
X113281329Y-117610250D01*
X113089741Y-117146572D01*
X112735294Y-116791506D01*
X112271951Y-116599109D01*
X111770250Y-116598671D01*
X111306572Y-116790259D01*
X110951506Y-117144706D01*
X110759109Y-117608049D01*
X110758671Y-118109750D01*
X110950259Y-118573428D01*
X111304706Y-118928494D01*
X111768049Y-119120891D01*
X112269750Y-119121329D01*
X112733428Y-118929741D01*
X113088494Y-118575294D01*
X113280891Y-118111951D01*
X113281329Y-117610250D01*
X113281329Y-120150250D01*
X113089741Y-119686572D01*
X112735294Y-119331506D01*
X112271951Y-119139109D01*
X111770250Y-119138671D01*
X111306572Y-119330259D01*
X110951506Y-119684706D01*
X110759109Y-120148049D01*
X110758671Y-120649750D01*
X110950259Y-121113428D01*
X111304706Y-121468494D01*
X111768049Y-121660891D01*
X112269750Y-121661329D01*
X112733428Y-121469741D01*
X113088494Y-121115294D01*
X113280891Y-120651951D01*
X113281329Y-120150250D01*
X113281329Y-122690250D01*
X113089741Y-122226572D01*
X112735294Y-121871506D01*
X112271951Y-121679109D01*
X111770250Y-121678671D01*
X111306572Y-121870259D01*
X110951506Y-122224706D01*
X110759109Y-122688049D01*
X110758671Y-123189750D01*
X110950259Y-123653428D01*
X111304706Y-124008494D01*
X111768049Y-124200891D01*
X112269750Y-124201329D01*
X112733428Y-124009741D01*
X113088494Y-123655294D01*
X113280891Y-123191951D01*
X113281329Y-122690250D01*
X113281329Y-125230250D01*
X113089741Y-124766572D01*
X112735294Y-124411506D01*
X112271951Y-124219109D01*
X111770250Y-124218671D01*
X111306572Y-124410259D01*
X110951506Y-124764706D01*
X110759109Y-125228049D01*
X110758671Y-125729750D01*
X110950259Y-126193428D01*
X111304706Y-126548494D01*
X111768049Y-126740891D01*
X112269750Y-126741329D01*
X112733428Y-126549741D01*
X113088494Y-126195294D01*
X113280891Y-125731951D01*
X113281329Y-125230250D01*
X113281329Y-127770250D01*
X113089741Y-127306572D01*
X112735294Y-126951506D01*
X112271951Y-126759109D01*
X111770250Y-126758671D01*
X111306572Y-126950259D01*
X110951506Y-127304706D01*
X110759109Y-127768049D01*
X110758671Y-128269750D01*
X110950259Y-128733428D01*
X111304706Y-129088494D01*
X111768049Y-129280891D01*
X112269750Y-129281329D01*
X112733428Y-129089741D01*
X113088494Y-128735294D01*
X113280891Y-128271951D01*
X113281329Y-127770250D01*
X113281329Y-130310250D01*
X113089741Y-129846572D01*
X112735294Y-129491506D01*
X112271951Y-129299109D01*
X111770250Y-129298671D01*
X111306572Y-129490259D01*
X110951506Y-129844706D01*
X110759109Y-130308049D01*
X110758671Y-130809750D01*
X110950259Y-131273428D01*
X111304706Y-131628494D01*
X111768049Y-131820891D01*
X112269750Y-131821329D01*
X112733428Y-131629741D01*
X113088494Y-131275294D01*
X113280891Y-130811951D01*
X113281329Y-130310250D01*
X113281329Y-132850250D01*
X113089741Y-132386572D01*
X112735294Y-132031506D01*
X112271951Y-131839109D01*
X111770250Y-131838671D01*
X111306572Y-132030259D01*
X110951506Y-132384706D01*
X110759109Y-132848049D01*
X110758671Y-133349750D01*
X110950259Y-133813428D01*
X111304706Y-134168494D01*
X111768049Y-134360891D01*
X112269750Y-134361329D01*
X112733428Y-134169741D01*
X113088494Y-133815294D01*
X113280891Y-133351951D01*
X113281329Y-132850250D01*
X113281329Y-135390250D01*
X113089741Y-134926572D01*
X112735294Y-134571506D01*
X112271951Y-134379109D01*
X111770250Y-134378671D01*
X111306572Y-134570259D01*
X110951506Y-134924706D01*
X110759109Y-135388049D01*
X110758671Y-135889750D01*
X110950259Y-136353428D01*
X111304706Y-136708494D01*
X111768049Y-136900891D01*
X112269750Y-136901329D01*
X112733428Y-136709741D01*
X113088494Y-136355294D01*
X113280891Y-135891951D01*
X113281329Y-135390250D01*
X113281329Y-137930250D01*
X113089741Y-137466572D01*
X112735294Y-137111506D01*
X112271951Y-136919109D01*
X111770250Y-136918671D01*
X111306572Y-137110259D01*
X110951506Y-137464706D01*
X110759109Y-137928049D01*
X110758671Y-138429750D01*
X110950259Y-138893428D01*
X111304706Y-139248494D01*
X111768049Y-139440891D01*
X112269750Y-139441329D01*
X112733428Y-139249741D01*
X113088494Y-138895294D01*
X113280891Y-138431951D01*
X113281329Y-137930250D01*
X113281329Y-143417000D01*
X110741329Y-143417000D01*
X110741329Y-137930250D01*
X110741329Y-135390250D01*
X110741329Y-132850250D01*
X110741329Y-130310250D01*
X110741329Y-127770250D01*
X110741329Y-125230250D01*
X110741329Y-122690250D01*
X110741329Y-120150250D01*
X110741329Y-117610250D01*
X110741329Y-115070250D01*
X110741329Y-104430250D01*
X110741329Y-101890250D01*
X110741329Y-99350250D01*
X110741329Y-96810250D01*
X110741329Y-94270250D01*
X110741329Y-91730250D01*
X110741329Y-89190250D01*
X110741329Y-86650250D01*
X110741329Y-84110250D01*
X110741329Y-81570250D01*
X110549741Y-81106572D01*
X110195294Y-80751506D01*
X109731951Y-80559109D01*
X109230250Y-80558671D01*
X108766572Y-80750259D01*
X108411506Y-81104706D01*
X108219109Y-81568049D01*
X108218671Y-82069750D01*
X108410259Y-82533428D01*
X108764706Y-82888494D01*
X109228049Y-83080891D01*
X109729750Y-83081329D01*
X110193428Y-82889741D01*
X110548494Y-82535294D01*
X110740891Y-82071951D01*
X110741329Y-81570250D01*
X110741329Y-84110250D01*
X110549741Y-83646572D01*
X110195294Y-83291506D01*
X109731951Y-83099109D01*
X109230250Y-83098671D01*
X108766572Y-83290259D01*
X108411506Y-83644706D01*
X108219109Y-84108049D01*
X108218671Y-84609750D01*
X108410259Y-85073428D01*
X108764706Y-85428494D01*
X109228049Y-85620891D01*
X109729750Y-85621329D01*
X110193428Y-85429741D01*
X110548494Y-85075294D01*
X110740891Y-84611951D01*
X110741329Y-84110250D01*
X110741329Y-86650250D01*
X110549741Y-86186572D01*
X110195294Y-85831506D01*
X109731951Y-85639109D01*
X109230250Y-85638671D01*
X108766572Y-85830259D01*
X108411506Y-86184706D01*
X108219109Y-86648049D01*
X108218671Y-87149750D01*
X108410259Y-87613428D01*
X108764706Y-87968494D01*
X109228049Y-88160891D01*
X109729750Y-88161329D01*
X110193428Y-87969741D01*
X110548494Y-87615294D01*
X110740891Y-87151951D01*
X110741329Y-86650250D01*
X110741329Y-89190250D01*
X110549741Y-88726572D01*
X110195294Y-88371506D01*
X109731951Y-88179109D01*
X109230250Y-88178671D01*
X108766572Y-88370259D01*
X108411506Y-88724706D01*
X108219109Y-89188049D01*
X108218671Y-89689750D01*
X108410259Y-90153428D01*
X108764706Y-90508494D01*
X109228049Y-90700891D01*
X109729750Y-90701329D01*
X110193428Y-90509741D01*
X110548494Y-90155294D01*
X110740891Y-89691951D01*
X110741329Y-89190250D01*
X110741329Y-91730250D01*
X110549741Y-91266572D01*
X110195294Y-90911506D01*
X109731951Y-90719109D01*
X109230250Y-90718671D01*
X108766572Y-90910259D01*
X108411506Y-91264706D01*
X108219109Y-91728049D01*
X108218671Y-92229750D01*
X108410259Y-92693428D01*
X108764706Y-93048494D01*
X109228049Y-93240891D01*
X109729750Y-93241329D01*
X110193428Y-93049741D01*
X110548494Y-92695294D01*
X110740891Y-92231951D01*
X110741329Y-91730250D01*
X110741329Y-94270250D01*
X110549741Y-93806572D01*
X110195294Y-93451506D01*
X109731951Y-93259109D01*
X109230250Y-93258671D01*
X108766572Y-93450259D01*
X108411506Y-93804706D01*
X108219109Y-94268049D01*
X108218671Y-94769750D01*
X108410259Y-95233428D01*
X108764706Y-95588494D01*
X109228049Y-95780891D01*
X109729750Y-95781329D01*
X110193428Y-95589741D01*
X110548494Y-95235294D01*
X110740891Y-94771951D01*
X110741329Y-94270250D01*
X110741329Y-96810250D01*
X110549741Y-96346572D01*
X110195294Y-95991506D01*
X109731951Y-95799109D01*
X109230250Y-95798671D01*
X108766572Y-95990259D01*
X108411506Y-96344706D01*
X108219109Y-96808049D01*
X108218671Y-97309750D01*
X108410259Y-97773428D01*
X108764706Y-98128494D01*
X109228049Y-98320891D01*
X109729750Y-98321329D01*
X110193428Y-98129741D01*
X110548494Y-97775294D01*
X110740891Y-97311951D01*
X110741329Y-96810250D01*
X110741329Y-99350250D01*
X110549741Y-98886572D01*
X110195294Y-98531506D01*
X109731951Y-98339109D01*
X109230250Y-98338671D01*
X108766572Y-98530259D01*
X108411506Y-98884706D01*
X108219109Y-99348049D01*
X108218671Y-99849750D01*
X108410259Y-100313428D01*
X108764706Y-100668494D01*
X109228049Y-100860891D01*
X109729750Y-100861329D01*
X110193428Y-100669741D01*
X110548494Y-100315294D01*
X110740891Y-99851951D01*
X110741329Y-99350250D01*
X110741329Y-101890250D01*
X110549741Y-101426572D01*
X110195294Y-101071506D01*
X109731951Y-100879109D01*
X109230250Y-100878671D01*
X108766572Y-101070259D01*
X108411506Y-101424706D01*
X108219109Y-101888049D01*
X108218671Y-102389750D01*
X108410259Y-102853428D01*
X108764706Y-103208494D01*
X109228049Y-103400891D01*
X109729750Y-103401329D01*
X110193428Y-103209741D01*
X110548494Y-102855294D01*
X110740891Y-102391951D01*
X110741329Y-101890250D01*
X110741329Y-104430250D01*
X110549741Y-103966572D01*
X110195294Y-103611506D01*
X109731951Y-103419109D01*
X109230250Y-103418671D01*
X108766572Y-103610259D01*
X108411506Y-103964706D01*
X108219109Y-104428049D01*
X108218671Y-104929750D01*
X108410259Y-105393428D01*
X108764706Y-105748494D01*
X109228049Y-105940891D01*
X109729750Y-105941329D01*
X110193428Y-105749741D01*
X110548494Y-105395294D01*
X110740891Y-104931951D01*
X110741329Y-104430250D01*
X110741329Y-115070250D01*
X110549741Y-114606572D01*
X110195294Y-114251506D01*
X109731951Y-114059109D01*
X109230250Y-114058671D01*
X108766572Y-114250259D01*
X108411506Y-114604706D01*
X108219109Y-115068049D01*
X108218671Y-115569750D01*
X108410259Y-116033428D01*
X108764706Y-116388494D01*
X109228049Y-116580891D01*
X109729750Y-116581329D01*
X110193428Y-116389741D01*
X110548494Y-116035294D01*
X110740891Y-115571951D01*
X110741329Y-115070250D01*
X110741329Y-117610250D01*
X110549741Y-117146572D01*
X110195294Y-116791506D01*
X109731951Y-116599109D01*
X109230250Y-116598671D01*
X108766572Y-116790259D01*
X108411506Y-117144706D01*
X108219109Y-117608049D01*
X108218671Y-118109750D01*
X108410259Y-118573428D01*
X108764706Y-118928494D01*
X109228049Y-119120891D01*
X109729750Y-119121329D01*
X110193428Y-118929741D01*
X110548494Y-118575294D01*
X110740891Y-118111951D01*
X110741329Y-117610250D01*
X110741329Y-120150250D01*
X110549741Y-119686572D01*
X110195294Y-119331506D01*
X109731951Y-119139109D01*
X109230250Y-119138671D01*
X108766572Y-119330259D01*
X108411506Y-119684706D01*
X108219109Y-120148049D01*
X108218671Y-120649750D01*
X108410259Y-121113428D01*
X108764706Y-121468494D01*
X109228049Y-121660891D01*
X109729750Y-121661329D01*
X110193428Y-121469741D01*
X110548494Y-121115294D01*
X110740891Y-120651951D01*
X110741329Y-120150250D01*
X110741329Y-122690250D01*
X110549741Y-122226572D01*
X110195294Y-121871506D01*
X109731951Y-121679109D01*
X109230250Y-121678671D01*
X108766572Y-121870259D01*
X108411506Y-122224706D01*
X108219109Y-122688049D01*
X108218671Y-123189750D01*
X108410259Y-123653428D01*
X108764706Y-124008494D01*
X109228049Y-124200891D01*
X109729750Y-124201329D01*
X110193428Y-124009741D01*
X110548494Y-123655294D01*
X110740891Y-123191951D01*
X110741329Y-122690250D01*
X110741329Y-125230250D01*
X110549741Y-124766572D01*
X110195294Y-124411506D01*
X109731951Y-124219109D01*
X109230250Y-124218671D01*
X108766572Y-124410259D01*
X108411506Y-124764706D01*
X108219109Y-125228049D01*
X108218671Y-125729750D01*
X108410259Y-126193428D01*
X108764706Y-126548494D01*
X109228049Y-126740891D01*
X109729750Y-126741329D01*
X110193428Y-126549741D01*
X110548494Y-126195294D01*
X110740891Y-125731951D01*
X110741329Y-125230250D01*
X110741329Y-127770250D01*
X110549741Y-127306572D01*
X110195294Y-126951506D01*
X109731951Y-126759109D01*
X109230250Y-126758671D01*
X108766572Y-126950259D01*
X108411506Y-127304706D01*
X108219109Y-127768049D01*
X108218671Y-128269750D01*
X108410259Y-128733428D01*
X108764706Y-129088494D01*
X109228049Y-129280891D01*
X109729750Y-129281329D01*
X110193428Y-129089741D01*
X110548494Y-128735294D01*
X110740891Y-128271951D01*
X110741329Y-127770250D01*
X110741329Y-130310250D01*
X110549741Y-129846572D01*
X110195294Y-129491506D01*
X109731951Y-129299109D01*
X109230250Y-129298671D01*
X108766572Y-129490259D01*
X108411506Y-129844706D01*
X108219109Y-130308049D01*
X108218671Y-130809750D01*
X108410259Y-131273428D01*
X108764706Y-131628494D01*
X109228049Y-131820891D01*
X109729750Y-131821329D01*
X110193428Y-131629741D01*
X110548494Y-131275294D01*
X110740891Y-130811951D01*
X110741329Y-130310250D01*
X110741329Y-132850250D01*
X110549741Y-132386572D01*
X110195294Y-132031506D01*
X109731951Y-131839109D01*
X109230250Y-131838671D01*
X108766572Y-132030259D01*
X108411506Y-132384706D01*
X108219109Y-132848049D01*
X108218671Y-133349750D01*
X108410259Y-133813428D01*
X108764706Y-134168494D01*
X109228049Y-134360891D01*
X109729750Y-134361329D01*
X110193428Y-134169741D01*
X110548494Y-133815294D01*
X110740891Y-133351951D01*
X110741329Y-132850250D01*
X110741329Y-135390250D01*
X110549741Y-134926572D01*
X110195294Y-134571506D01*
X109731951Y-134379109D01*
X109230250Y-134378671D01*
X108766572Y-134570259D01*
X108411506Y-134924706D01*
X108219109Y-135388049D01*
X108218671Y-135889750D01*
X108410259Y-136353428D01*
X108764706Y-136708494D01*
X109228049Y-136900891D01*
X109729750Y-136901329D01*
X110193428Y-136709741D01*
X110548494Y-136355294D01*
X110740891Y-135891951D01*
X110741329Y-135390250D01*
X110741329Y-137930250D01*
X110549741Y-137466572D01*
X110195294Y-137111506D01*
X109731951Y-136919109D01*
X109230250Y-136918671D01*
X108766572Y-137110259D01*
X108411506Y-137464706D01*
X108219109Y-137928049D01*
X108218671Y-138429750D01*
X108410259Y-138893428D01*
X108764706Y-139248494D01*
X109228049Y-139440891D01*
X109729750Y-139441329D01*
X110193428Y-139249741D01*
X110548494Y-138895294D01*
X110740891Y-138431951D01*
X110741329Y-137930250D01*
X110741329Y-143417000D01*
X106000000Y-143417000D01*
X105583000Y-143417000D01*
X105583000Y-76583000D01*
X183417000Y-76583000D01*
X183417000Y-143417000D01*
X183417000Y-143417000D01*
G37*
X183417000Y-143417000D02*
X181031329Y-143417000D01*
X181031329Y-137680250D01*
X181031329Y-135140250D01*
X181031329Y-132600250D01*
X181031329Y-130060250D01*
X181031329Y-127520250D01*
X181031329Y-124980250D01*
X181031329Y-122440250D01*
X181031329Y-119900250D01*
X181031329Y-117360250D01*
X181031329Y-114820250D01*
X181031329Y-104180250D01*
X181031329Y-101640250D01*
X181031329Y-99100250D01*
X181031329Y-96560250D01*
X181031329Y-94020250D01*
X181031329Y-91480250D01*
X181031329Y-88940250D01*
X181031329Y-86400250D01*
X181031329Y-83860250D01*
X181031329Y-81320250D01*
X180839741Y-80856572D01*
X180485294Y-80501506D01*
X180021951Y-80309109D01*
X179520250Y-80308671D01*
X179056572Y-80500259D01*
X178701506Y-80854706D01*
X178509109Y-81318049D01*
X178508671Y-81819750D01*
X178700259Y-82283428D01*
X179054706Y-82638494D01*
X179518049Y-82830891D01*
X180019750Y-82831329D01*
X180483428Y-82639741D01*
X180838494Y-82285294D01*
X181030891Y-81821951D01*
X181031329Y-81320250D01*
X181031329Y-83860250D01*
X180839741Y-83396572D01*
X180485294Y-83041506D01*
X180021951Y-82849109D01*
X179520250Y-82848671D01*
X179056572Y-83040259D01*
X178701506Y-83394706D01*
X178509109Y-83858049D01*
X178508671Y-84359750D01*
X178700259Y-84823428D01*
X179054706Y-85178494D01*
X179518049Y-85370891D01*
X180019750Y-85371329D01*
X180483428Y-85179741D01*
X180838494Y-84825294D01*
X181030891Y-84361951D01*
X181031329Y-83860250D01*
X181031329Y-86400250D01*
X180839741Y-85936572D01*
X180485294Y-85581506D01*
X180021951Y-85389109D01*
X179520250Y-85388671D01*
X179056572Y-85580259D01*
X178701506Y-85934706D01*
X178509109Y-86398049D01*
X178508671Y-86899750D01*
X178700259Y-87363428D01*
X179054706Y-87718494D01*
X179518049Y-87910891D01*
X180019750Y-87911329D01*
X180483428Y-87719741D01*
X180838494Y-87365294D01*
X181030891Y-86901951D01*
X181031329Y-86400250D01*
X181031329Y-88940250D01*
X180839741Y-88476572D01*
X180485294Y-88121506D01*
X180021951Y-87929109D01*
X179520250Y-87928671D01*
X179056572Y-88120259D01*
X178701506Y-88474706D01*
X178509109Y-88938049D01*
X178508671Y-89439750D01*
X178700259Y-89903428D01*
X179054706Y-90258494D01*
X179518049Y-90450891D01*
X180019750Y-90451329D01*
X180483428Y-90259741D01*
X180838494Y-89905294D01*
X181030891Y-89441951D01*
X181031329Y-88940250D01*
X181031329Y-91480250D01*
X180839741Y-91016572D01*
X180485294Y-90661506D01*
X180021951Y-90469109D01*
X179520250Y-90468671D01*
X179056572Y-90660259D01*
X178701506Y-91014706D01*
X178509109Y-91478049D01*
X178508671Y-91979750D01*
X178700259Y-92443428D01*
X179054706Y-92798494D01*
X179518049Y-92990891D01*
X180019750Y-92991329D01*
X180483428Y-92799741D01*
X180838494Y-92445294D01*
X181030891Y-91981951D01*
X181031329Y-91480250D01*
X181031329Y-94020250D01*
X180839741Y-93556572D01*
X180485294Y-93201506D01*
X180021951Y-93009109D01*
X179520250Y-93008671D01*
X179056572Y-93200259D01*
X178701506Y-93554706D01*
X178509109Y-94018049D01*
X178508671Y-94519750D01*
X178700259Y-94983428D01*
X179054706Y-95338494D01*
X179518049Y-95530891D01*
X180019750Y-95531329D01*
X180483428Y-95339741D01*
X180838494Y-94985294D01*
X181030891Y-94521951D01*
X181031329Y-94020250D01*
X181031329Y-96560250D01*
X180839741Y-96096572D01*
X180485294Y-95741506D01*
X180021951Y-95549109D01*
X179520250Y-95548671D01*
X179056572Y-95740259D01*
X178701506Y-96094706D01*
X178509109Y-96558049D01*
X178508671Y-97059750D01*
X178700259Y-97523428D01*
X179054706Y-97878494D01*
X179518049Y-98070891D01*
X180019750Y-98071329D01*
X180483428Y-97879741D01*
X180838494Y-97525294D01*
X181030891Y-97061951D01*
X181031329Y-96560250D01*
X181031329Y-99100250D01*
X180839741Y-98636572D01*
X180485294Y-98281506D01*
X180021951Y-98089109D01*
X179520250Y-98088671D01*
X179056572Y-98280259D01*
X178701506Y-98634706D01*
X178509109Y-99098049D01*
X178508671Y-99599750D01*
X178700259Y-100063428D01*
X179054706Y-100418494D01*
X179518049Y-100610891D01*
X180019750Y-100611329D01*
X180483428Y-100419741D01*
X180838494Y-100065294D01*
X181030891Y-99601951D01*
X181031329Y-99100250D01*
X181031329Y-101640250D01*
X180839741Y-101176572D01*
X180485294Y-100821506D01*
X180021951Y-100629109D01*
X179520250Y-100628671D01*
X179056572Y-100820259D01*
X178701506Y-101174706D01*
X178509109Y-101638049D01*
X178508671Y-102139750D01*
X178700259Y-102603428D01*
X179054706Y-102958494D01*
X179518049Y-103150891D01*
X180019750Y-103151329D01*
X180483428Y-102959741D01*
X180838494Y-102605294D01*
X181030891Y-102141951D01*
X181031329Y-101640250D01*
X181031329Y-104180250D01*
X180839741Y-103716572D01*
X180485294Y-103361506D01*
X180021951Y-103169109D01*
X179520250Y-103168671D01*
X179056572Y-103360259D01*
X178701506Y-103714706D01*
X178509109Y-104178049D01*
X178508671Y-104679750D01*
X178700259Y-105143428D01*
X179054706Y-105498494D01*
X179518049Y-105690891D01*
X180019750Y-105691329D01*
X180483428Y-105499741D01*
X180838494Y-105145294D01*
X181030891Y-104681951D01*
X181031329Y-104180250D01*
X181031329Y-114820250D01*
X180839741Y-114356572D01*
X180485294Y-114001506D01*
X180021951Y-113809109D01*
X179520250Y-113808671D01*
X179056572Y-114000259D01*
X178701506Y-114354706D01*
X178509109Y-114818049D01*
X178508671Y-115319750D01*
X178700259Y-115783428D01*
X179054706Y-116138494D01*
X179518049Y-116330891D01*
X180019750Y-116331329D01*
X180483428Y-116139741D01*
X180838494Y-115785294D01*
X181030891Y-115321951D01*
X181031329Y-114820250D01*
X181031329Y-117360250D01*
X180839741Y-116896572D01*
X180485294Y-116541506D01*
X180021951Y-116349109D01*
X179520250Y-116348671D01*
X179056572Y-116540259D01*
X178701506Y-116894706D01*
X178509109Y-117358049D01*
X178508671Y-117859750D01*
X178700259Y-118323428D01*
X179054706Y-118678494D01*
X179518049Y-118870891D01*
X180019750Y-118871329D01*
X180483428Y-118679741D01*
X180838494Y-118325294D01*
X181030891Y-117861951D01*
X181031329Y-117360250D01*
X181031329Y-119900250D01*
X180839741Y-119436572D01*
X180485294Y-119081506D01*
X180021951Y-118889109D01*
X179520250Y-118888671D01*
X179056572Y-119080259D01*
X178701506Y-119434706D01*
X178509109Y-119898049D01*
X178508671Y-120399750D01*
X178700259Y-120863428D01*
X179054706Y-121218494D01*
X179518049Y-121410891D01*
X180019750Y-121411329D01*
X180483428Y-121219741D01*
X180838494Y-120865294D01*
X181030891Y-120401951D01*
X181031329Y-119900250D01*
X181031329Y-122440250D01*
X180839741Y-121976572D01*
X180485294Y-121621506D01*
X180021951Y-121429109D01*
X179520250Y-121428671D01*
X179056572Y-121620259D01*
X178701506Y-121974706D01*
X178509109Y-122438049D01*
X178508671Y-122939750D01*
X178700259Y-123403428D01*
X179054706Y-123758494D01*
X179518049Y-123950891D01*
X180019750Y-123951329D01*
X180483428Y-123759741D01*
X180838494Y-123405294D01*
X181030891Y-122941951D01*
X181031329Y-122440250D01*
X181031329Y-124980250D01*
X180839741Y-124516572D01*
X180485294Y-124161506D01*
X180021951Y-123969109D01*
X179520250Y-123968671D01*
X179056572Y-124160259D01*
X178701506Y-124514706D01*
X178509109Y-124978049D01*
X178508671Y-125479750D01*
X178700259Y-125943428D01*
X179054706Y-126298494D01*
X179518049Y-126490891D01*
X180019750Y-126491329D01*
X180483428Y-126299741D01*
X180838494Y-125945294D01*
X181030891Y-125481951D01*
X181031329Y-124980250D01*
X181031329Y-127520250D01*
X180839741Y-127056572D01*
X180485294Y-126701506D01*
X180021951Y-126509109D01*
X179520250Y-126508671D01*
X179056572Y-126700259D01*
X178701506Y-127054706D01*
X178509109Y-127518049D01*
X178508671Y-128019750D01*
X178700259Y-128483428D01*
X179054706Y-128838494D01*
X179518049Y-129030891D01*
X180019750Y-129031329D01*
X180483428Y-128839741D01*
X180838494Y-128485294D01*
X181030891Y-128021951D01*
X181031329Y-127520250D01*
X181031329Y-130060250D01*
X180839741Y-129596572D01*
X180485294Y-129241506D01*
X180021951Y-129049109D01*
X179520250Y-129048671D01*
X179056572Y-129240259D01*
X178701506Y-129594706D01*
X178509109Y-130058049D01*
X178508671Y-130559750D01*
X178700259Y-131023428D01*
X179054706Y-131378494D01*
X179518049Y-131570891D01*
X180019750Y-131571329D01*
X180483428Y-131379741D01*
X180838494Y-131025294D01*
X181030891Y-130561951D01*
X181031329Y-130060250D01*
X181031329Y-132600250D01*
X180839741Y-132136572D01*
X180485294Y-131781506D01*
X180021951Y-131589109D01*
X179520250Y-131588671D01*
X179056572Y-131780259D01*
X178701506Y-132134706D01*
X178509109Y-132598049D01*
X178508671Y-133099750D01*
X178700259Y-133563428D01*
X179054706Y-133918494D01*
X179518049Y-134110891D01*
X180019750Y-134111329D01*
X180483428Y-133919741D01*
X180838494Y-133565294D01*
X181030891Y-133101951D01*
X181031329Y-132600250D01*
X181031329Y-135140250D01*
X180839741Y-134676572D01*
X180485294Y-134321506D01*
X180021951Y-134129109D01*
X179520250Y-134128671D01*
X179056572Y-134320259D01*
X178701506Y-134674706D01*
X178509109Y-135138049D01*
X178508671Y-135639750D01*
X178700259Y-136103428D01*
X179054706Y-136458494D01*
X179518049Y-136650891D01*
X180019750Y-136651329D01*
X180483428Y-136459741D01*
X180838494Y-136105294D01*
X181030891Y-135641951D01*
X181031329Y-135140250D01*
X181031329Y-137680250D01*
X180839741Y-137216572D01*
X180485294Y-136861506D01*
X180021951Y-136669109D01*
X179520250Y-136668671D01*
X179056572Y-136860259D01*
X178701506Y-137214706D01*
X178509109Y-137678049D01*
X178508671Y-138179750D01*
X178700259Y-138643428D01*
X179054706Y-138998494D01*
X179518049Y-139190891D01*
X180019750Y-139191329D01*
X180483428Y-138999741D01*
X180838494Y-138645294D01*
X181030891Y-138181951D01*
X181031329Y-137680250D01*
X181031329Y-143417000D01*
X178491329Y-143417000D01*
X178491329Y-137680250D01*
X178491329Y-135140250D01*
X178491329Y-132600250D01*
X178491329Y-130060250D01*
X178491329Y-127520250D01*
X178491329Y-124980250D01*
X178491329Y-122440250D01*
X178491329Y-119900250D01*
X178491329Y-117360250D01*
X178491329Y-114820250D01*
X178491329Y-104180250D01*
X178491329Y-101640250D01*
X178491329Y-99100250D01*
X178491329Y-96560250D01*
X178491329Y-94020250D01*
X178491329Y-91480250D01*
X178491329Y-88940250D01*
X178491329Y-86400250D01*
X178491329Y-83860250D01*
X178491329Y-81320250D01*
X178299741Y-80856572D01*
X177945294Y-80501506D01*
X177481951Y-80309109D01*
X176980250Y-80308671D01*
X176516572Y-80500259D01*
X176161506Y-80854706D01*
X175969109Y-81318049D01*
X175968671Y-81819750D01*
X176160259Y-82283428D01*
X176514706Y-82638494D01*
X176978049Y-82830891D01*
X177479750Y-82831329D01*
X177943428Y-82639741D01*
X178298494Y-82285294D01*
X178490891Y-81821951D01*
X178491329Y-81320250D01*
X178491329Y-83860250D01*
X178299741Y-83396572D01*
X177945294Y-83041506D01*
X177481951Y-82849109D01*
X176980250Y-82848671D01*
X176516572Y-83040259D01*
X176161506Y-83394706D01*
X175969109Y-83858049D01*
X175968671Y-84359750D01*
X176160259Y-84823428D01*
X176514706Y-85178494D01*
X176978049Y-85370891D01*
X177479750Y-85371329D01*
X177943428Y-85179741D01*
X178298494Y-84825294D01*
X178490891Y-84361951D01*
X178491329Y-83860250D01*
X178491329Y-86400250D01*
X178299741Y-85936572D01*
X177945294Y-85581506D01*
X177481951Y-85389109D01*
X176980250Y-85388671D01*
X176516572Y-85580259D01*
X176161506Y-85934706D01*
X175969109Y-86398049D01*
X175968671Y-86899750D01*
X176160259Y-87363428D01*
X176514706Y-87718494D01*
X176978049Y-87910891D01*
X177479750Y-87911329D01*
X177943428Y-87719741D01*
X178298494Y-87365294D01*
X178490891Y-86901951D01*
X178491329Y-86400250D01*
X178491329Y-88940250D01*
X178299741Y-88476572D01*
X177945294Y-88121506D01*
X177481951Y-87929109D01*
X176980250Y-87928671D01*
X176516572Y-88120259D01*
X176161506Y-88474706D01*
X175969109Y-88938049D01*
X175968671Y-89439750D01*
X176160259Y-89903428D01*
X176514706Y-90258494D01*
X176978049Y-90450891D01*
X177479750Y-90451329D01*
X177943428Y-90259741D01*
X178298494Y-89905294D01*
X178490891Y-89441951D01*
X178491329Y-88940250D01*
X178491329Y-91480250D01*
X178299741Y-91016572D01*
X177945294Y-90661506D01*
X177481951Y-90469109D01*
X176980250Y-90468671D01*
X176516572Y-90660259D01*
X176161506Y-91014706D01*
X175969109Y-91478049D01*
X175968671Y-91979750D01*
X176160259Y-92443428D01*
X176514706Y-92798494D01*
X176978049Y-92990891D01*
X177479750Y-92991329D01*
X177943428Y-92799741D01*
X178298494Y-92445294D01*
X178490891Y-91981951D01*
X178491329Y-91480250D01*
X178491329Y-94020250D01*
X178299741Y-93556572D01*
X177945294Y-93201506D01*
X177481951Y-93009109D01*
X176980250Y-93008671D01*
X176516572Y-93200259D01*
X176161506Y-93554706D01*
X175969109Y-94018049D01*
X175968671Y-94519750D01*
X176160259Y-94983428D01*
X176514706Y-95338494D01*
X176978049Y-95530891D01*
X177479750Y-95531329D01*
X177943428Y-95339741D01*
X178298494Y-94985294D01*
X178490891Y-94521951D01*
X178491329Y-94020250D01*
X178491329Y-96560250D01*
X178299741Y-96096572D01*
X177945294Y-95741506D01*
X177481951Y-95549109D01*
X176980250Y-95548671D01*
X176516572Y-95740259D01*
X176161506Y-96094706D01*
X175969109Y-96558049D01*
X175968671Y-97059750D01*
X176160259Y-97523428D01*
X176514706Y-97878494D01*
X176978049Y-98070891D01*
X177479750Y-98071329D01*
X177943428Y-97879741D01*
X178298494Y-97525294D01*
X178490891Y-97061951D01*
X178491329Y-96560250D01*
X178491329Y-99100250D01*
X178299741Y-98636572D01*
X177945294Y-98281506D01*
X177481951Y-98089109D01*
X176980250Y-98088671D01*
X176516572Y-98280259D01*
X176161506Y-98634706D01*
X175969109Y-99098049D01*
X175968671Y-99599750D01*
X176160259Y-100063428D01*
X176514706Y-100418494D01*
X176978049Y-100610891D01*
X177479750Y-100611329D01*
X177943428Y-100419741D01*
X178298494Y-100065294D01*
X178490891Y-99601951D01*
X178491329Y-99100250D01*
X178491329Y-101640250D01*
X178299741Y-101176572D01*
X177945294Y-100821506D01*
X177481951Y-100629109D01*
X176980250Y-100628671D01*
X176516572Y-100820259D01*
X176161506Y-101174706D01*
X175969109Y-101638049D01*
X175968671Y-102139750D01*
X176160259Y-102603428D01*
X176514706Y-102958494D01*
X176978049Y-103150891D01*
X177479750Y-103151329D01*
X177943428Y-102959741D01*
X178298494Y-102605294D01*
X178490891Y-102141951D01*
X178491329Y-101640250D01*
X178491329Y-104180250D01*
X178299741Y-103716572D01*
X177945294Y-103361506D01*
X177481951Y-103169109D01*
X176980250Y-103168671D01*
X176516572Y-103360259D01*
X176161506Y-103714706D01*
X175969109Y-104178049D01*
X175968671Y-104679750D01*
X176160259Y-105143428D01*
X176514706Y-105498494D01*
X176978049Y-105690891D01*
X177479750Y-105691329D01*
X177943428Y-105499741D01*
X178298494Y-105145294D01*
X178490891Y-104681951D01*
X178491329Y-104180250D01*
X178491329Y-114820250D01*
X178299741Y-114356572D01*
X177945294Y-114001506D01*
X177481951Y-113809109D01*
X176980250Y-113808671D01*
X176516572Y-114000259D01*
X176161506Y-114354706D01*
X175969109Y-114818049D01*
X175968671Y-115319750D01*
X176160259Y-115783428D01*
X176514706Y-116138494D01*
X176978049Y-116330891D01*
X177479750Y-116331329D01*
X177943428Y-116139741D01*
X178298494Y-115785294D01*
X178490891Y-115321951D01*
X178491329Y-114820250D01*
X178491329Y-117360250D01*
X178299741Y-116896572D01*
X177945294Y-116541506D01*
X177481951Y-116349109D01*
X176980250Y-116348671D01*
X176516572Y-116540259D01*
X176161506Y-116894706D01*
X175969109Y-117358049D01*
X175968671Y-117859750D01*
X176160259Y-118323428D01*
X176514706Y-118678494D01*
X176978049Y-118870891D01*
X177479750Y-118871329D01*
X177943428Y-118679741D01*
X178298494Y-118325294D01*
X178490891Y-117861951D01*
X178491329Y-117360250D01*
X178491329Y-119900250D01*
X178299741Y-119436572D01*
X177945294Y-119081506D01*
X177481951Y-118889109D01*
X176980250Y-118888671D01*
X176516572Y-119080259D01*
X176161506Y-119434706D01*
X175969109Y-119898049D01*
X175968671Y-120399750D01*
X176160259Y-120863428D01*
X176514706Y-121218494D01*
X176978049Y-121410891D01*
X177479750Y-121411329D01*
X177943428Y-121219741D01*
X178298494Y-120865294D01*
X178490891Y-120401951D01*
X178491329Y-119900250D01*
X178491329Y-122440250D01*
X178299741Y-121976572D01*
X177945294Y-121621506D01*
X177481951Y-121429109D01*
X176980250Y-121428671D01*
X176516572Y-121620259D01*
X176161506Y-121974706D01*
X175969109Y-122438049D01*
X175968671Y-122939750D01*
X176160259Y-123403428D01*
X176514706Y-123758494D01*
X176978049Y-123950891D01*
X177479750Y-123951329D01*
X177943428Y-123759741D01*
X178298494Y-123405294D01*
X178490891Y-122941951D01*
X178491329Y-122440250D01*
X178491329Y-124980250D01*
X178299741Y-124516572D01*
X177945294Y-124161506D01*
X177481951Y-123969109D01*
X176980250Y-123968671D01*
X176516572Y-124160259D01*
X176161506Y-124514706D01*
X175969109Y-124978049D01*
X175968671Y-125479750D01*
X176160259Y-125943428D01*
X176514706Y-126298494D01*
X176978049Y-126490891D01*
X177479750Y-126491329D01*
X177943428Y-126299741D01*
X178298494Y-125945294D01*
X178490891Y-125481951D01*
X178491329Y-124980250D01*
X178491329Y-127520250D01*
X178299741Y-127056572D01*
X177945294Y-126701506D01*
X177481951Y-126509109D01*
X176980250Y-126508671D01*
X176516572Y-126700259D01*
X176161506Y-127054706D01*
X175969109Y-127518049D01*
X175968671Y-128019750D01*
X176160259Y-128483428D01*
X176514706Y-128838494D01*
X176978049Y-129030891D01*
X177479750Y-129031329D01*
X177943428Y-128839741D01*
X178298494Y-128485294D01*
X178490891Y-128021951D01*
X178491329Y-127520250D01*
X178491329Y-130060250D01*
X178299741Y-129596572D01*
X177945294Y-129241506D01*
X177481951Y-129049109D01*
X176980250Y-129048671D01*
X176516572Y-129240259D01*
X176161506Y-129594706D01*
X175969109Y-130058049D01*
X175968671Y-130559750D01*
X176160259Y-131023428D01*
X176514706Y-131378494D01*
X176978049Y-131570891D01*
X177479750Y-131571329D01*
X177943428Y-131379741D01*
X178298494Y-131025294D01*
X178490891Y-130561951D01*
X178491329Y-130060250D01*
X178491329Y-132600250D01*
X178299741Y-132136572D01*
X177945294Y-131781506D01*
X177481951Y-131589109D01*
X176980250Y-131588671D01*
X176516572Y-131780259D01*
X176161506Y-132134706D01*
X175969109Y-132598049D01*
X175968671Y-133099750D01*
X176160259Y-133563428D01*
X176514706Y-133918494D01*
X176978049Y-134110891D01*
X177479750Y-134111329D01*
X177943428Y-133919741D01*
X178298494Y-133565294D01*
X178490891Y-133101951D01*
X178491329Y-132600250D01*
X178491329Y-135140250D01*
X178299741Y-134676572D01*
X177945294Y-134321506D01*
X177481951Y-134129109D01*
X176980250Y-134128671D01*
X176516572Y-134320259D01*
X176161506Y-134674706D01*
X175969109Y-135138049D01*
X175968671Y-135639750D01*
X176160259Y-136103428D01*
X176514706Y-136458494D01*
X176978049Y-136650891D01*
X177479750Y-136651329D01*
X177943428Y-136459741D01*
X178298494Y-136105294D01*
X178490891Y-135641951D01*
X178491329Y-135140250D01*
X178491329Y-137680250D01*
X178299741Y-137216572D01*
X177945294Y-136861506D01*
X177481951Y-136669109D01*
X176980250Y-136668671D01*
X176516572Y-136860259D01*
X176161506Y-137214706D01*
X175969109Y-137678049D01*
X175968671Y-138179750D01*
X176160259Y-138643428D01*
X176514706Y-138998494D01*
X176978049Y-139190891D01*
X177479750Y-139191329D01*
X177943428Y-138999741D01*
X178298494Y-138645294D01*
X178490891Y-138181951D01*
X178491329Y-137680250D01*
X178491329Y-143417000D01*
X169941329Y-143417000D01*
X169941329Y-139520250D01*
X169941329Y-136980250D01*
X169749741Y-136516572D01*
X169691329Y-136458057D01*
X169691329Y-82020250D01*
X169691329Y-79480250D01*
X169499741Y-79016572D01*
X169145294Y-78661506D01*
X168681951Y-78469109D01*
X168180250Y-78468671D01*
X167716572Y-78660259D01*
X167361506Y-79014706D01*
X167169109Y-79478049D01*
X167168671Y-79979750D01*
X167360259Y-80443428D01*
X167714706Y-80798494D01*
X168178049Y-80990891D01*
X168679750Y-80991329D01*
X169143428Y-80799741D01*
X169498494Y-80445294D01*
X169690891Y-79981951D01*
X169691329Y-79480250D01*
X169691329Y-82020250D01*
X169499741Y-81556572D01*
X169145294Y-81201506D01*
X168681951Y-81009109D01*
X168180250Y-81008671D01*
X167716572Y-81200259D01*
X167361506Y-81554706D01*
X167169109Y-82018049D01*
X167168671Y-82519750D01*
X167360259Y-82983428D01*
X167714706Y-83338494D01*
X168178049Y-83530891D01*
X168679750Y-83531329D01*
X169143428Y-83339741D01*
X169498494Y-82985294D01*
X169690891Y-82521951D01*
X169691329Y-82020250D01*
X169691329Y-136458057D01*
X169395294Y-136161506D01*
X168931951Y-135969109D01*
X168430250Y-135968671D01*
X167966572Y-136160259D01*
X167611506Y-136514706D01*
X167419109Y-136978049D01*
X167418671Y-137479750D01*
X167610259Y-137943428D01*
X167964706Y-138298494D01*
X168428049Y-138490891D01*
X168929750Y-138491329D01*
X169393428Y-138299741D01*
X169748494Y-137945294D01*
X169940891Y-137481951D01*
X169941329Y-136980250D01*
X169941329Y-139520250D01*
X169749741Y-139056572D01*
X169395294Y-138701506D01*
X168931951Y-138509109D01*
X168430250Y-138508671D01*
X167966572Y-138700259D01*
X167611506Y-139054706D01*
X167419109Y-139518049D01*
X167418671Y-140019750D01*
X167610259Y-140483428D01*
X167964706Y-140838494D01*
X168428049Y-141030891D01*
X168929750Y-141031329D01*
X169393428Y-140839741D01*
X169748494Y-140485294D01*
X169940891Y-140021951D01*
X169941329Y-139520250D01*
X169941329Y-143417000D01*
X167401329Y-143417000D01*
X167401329Y-139520250D01*
X167401329Y-136980250D01*
X167209741Y-136516572D01*
X167151329Y-136458057D01*
X167151329Y-82020250D01*
X167151329Y-79480250D01*
X166959741Y-79016572D01*
X166605294Y-78661506D01*
X166141951Y-78469109D01*
X165640250Y-78468671D01*
X165176572Y-78660259D01*
X164821506Y-79014706D01*
X164629109Y-79478049D01*
X164628671Y-79979750D01*
X164820259Y-80443428D01*
X165174706Y-80798494D01*
X165638049Y-80990891D01*
X166139750Y-80991329D01*
X166603428Y-80799741D01*
X166958494Y-80445294D01*
X167150891Y-79981951D01*
X167151329Y-79480250D01*
X167151329Y-82020250D01*
X166959741Y-81556572D01*
X166605294Y-81201506D01*
X166141951Y-81009109D01*
X165640250Y-81008671D01*
X165176572Y-81200259D01*
X164821506Y-81554706D01*
X164629109Y-82018049D01*
X164628671Y-82519750D01*
X164820259Y-82983428D01*
X165174706Y-83338494D01*
X165638049Y-83530891D01*
X166139750Y-83531329D01*
X166603428Y-83339741D01*
X166958494Y-82985294D01*
X167150891Y-82521951D01*
X167151329Y-82020250D01*
X167151329Y-136458057D01*
X166855294Y-136161506D01*
X166391951Y-135969109D01*
X165890250Y-135968671D01*
X165426572Y-136160259D01*
X165071506Y-136514706D01*
X164879109Y-136978049D01*
X164878671Y-137479750D01*
X165070259Y-137943428D01*
X165424706Y-138298494D01*
X165888049Y-138490891D01*
X166389750Y-138491329D01*
X166853428Y-138299741D01*
X167208494Y-137945294D01*
X167400891Y-137481951D01*
X167401329Y-136980250D01*
X167401329Y-139520250D01*
X167209741Y-139056572D01*
X166855294Y-138701506D01*
X166391951Y-138509109D01*
X165890250Y-138508671D01*
X165426572Y-138700259D01*
X165071506Y-139054706D01*
X164879109Y-139518049D01*
X164878671Y-140019750D01*
X165070259Y-140483428D01*
X165424706Y-140838494D01*
X165888049Y-141030891D01*
X166389750Y-141031329D01*
X166853428Y-140839741D01*
X167208494Y-140485294D01*
X167400891Y-140021951D01*
X167401329Y-139520250D01*
X167401329Y-143417000D01*
X164861329Y-143417000D01*
X164861329Y-139520250D01*
X164861329Y-136980250D01*
X164669741Y-136516572D01*
X164611329Y-136458057D01*
X164611329Y-82020250D01*
X164611329Y-79480250D01*
X164419741Y-79016572D01*
X164065294Y-78661506D01*
X163601951Y-78469109D01*
X163100250Y-78468671D01*
X162636572Y-78660259D01*
X162281506Y-79014706D01*
X162089109Y-79478049D01*
X162088671Y-79979750D01*
X162280259Y-80443428D01*
X162634706Y-80798494D01*
X163098049Y-80990891D01*
X163599750Y-80991329D01*
X164063428Y-80799741D01*
X164418494Y-80445294D01*
X164610891Y-79981951D01*
X164611329Y-79480250D01*
X164611329Y-82020250D01*
X164419741Y-81556572D01*
X164065294Y-81201506D01*
X163601951Y-81009109D01*
X163100250Y-81008671D01*
X162636572Y-81200259D01*
X162281506Y-81554706D01*
X162089109Y-82018049D01*
X162088671Y-82519750D01*
X162280259Y-82983428D01*
X162634706Y-83338494D01*
X163098049Y-83530891D01*
X163599750Y-83531329D01*
X164063428Y-83339741D01*
X164418494Y-82985294D01*
X164610891Y-82521951D01*
X164611329Y-82020250D01*
X164611329Y-136458057D01*
X164315294Y-136161506D01*
X163851951Y-135969109D01*
X163350250Y-135968671D01*
X162886572Y-136160259D01*
X162531506Y-136514706D01*
X162339109Y-136978049D01*
X162338671Y-137479750D01*
X162530259Y-137943428D01*
X162884706Y-138298494D01*
X163348049Y-138490891D01*
X163849750Y-138491329D01*
X164313428Y-138299741D01*
X164668494Y-137945294D01*
X164860891Y-137481951D01*
X164861329Y-136980250D01*
X164861329Y-139520250D01*
X164669741Y-139056572D01*
X164315294Y-138701506D01*
X163851951Y-138509109D01*
X163350250Y-138508671D01*
X162886572Y-138700259D01*
X162531506Y-139054706D01*
X162339109Y-139518049D01*
X162338671Y-140019750D01*
X162530259Y-140483428D01*
X162884706Y-140838494D01*
X163348049Y-141030891D01*
X163849750Y-141031329D01*
X164313428Y-140839741D01*
X164668494Y-140485294D01*
X164860891Y-140021951D01*
X164861329Y-139520250D01*
X164861329Y-143417000D01*
X162321329Y-143417000D01*
X162321329Y-139520250D01*
X162321329Y-136980250D01*
X162129741Y-136516572D01*
X162071329Y-136458057D01*
X162071329Y-82020250D01*
X162071329Y-79480250D01*
X161879741Y-79016572D01*
X161525294Y-78661506D01*
X161061951Y-78469109D01*
X160560250Y-78468671D01*
X160096572Y-78660259D01*
X159741506Y-79014706D01*
X159549109Y-79478049D01*
X159548671Y-79979750D01*
X159740259Y-80443428D01*
X160094706Y-80798494D01*
X160558049Y-80990891D01*
X161059750Y-80991329D01*
X161523428Y-80799741D01*
X161878494Y-80445294D01*
X162070891Y-79981951D01*
X162071329Y-79480250D01*
X162071329Y-82020250D01*
X161879741Y-81556572D01*
X161525294Y-81201506D01*
X161061951Y-81009109D01*
X160560250Y-81008671D01*
X160096572Y-81200259D01*
X159741506Y-81554706D01*
X159549109Y-82018049D01*
X159548671Y-82519750D01*
X159740259Y-82983428D01*
X160094706Y-83338494D01*
X160558049Y-83530891D01*
X161059750Y-83531329D01*
X161523428Y-83339741D01*
X161878494Y-82985294D01*
X162070891Y-82521951D01*
X162071329Y-82020250D01*
X162071329Y-136458057D01*
X161775294Y-136161506D01*
X161311951Y-135969109D01*
X160810250Y-135968671D01*
X160346572Y-136160259D01*
X159991506Y-136514706D01*
X159799109Y-136978049D01*
X159798671Y-137479750D01*
X159990259Y-137943428D01*
X160344706Y-138298494D01*
X160808049Y-138490891D01*
X161309750Y-138491329D01*
X161773428Y-138299741D01*
X162128494Y-137945294D01*
X162320891Y-137481951D01*
X162321329Y-136980250D01*
X162321329Y-139520250D01*
X162129741Y-139056572D01*
X161775294Y-138701506D01*
X161311951Y-138509109D01*
X160810250Y-138508671D01*
X160346572Y-138700259D01*
X159991506Y-139054706D01*
X159799109Y-139518049D01*
X159798671Y-140019750D01*
X159990259Y-140483428D01*
X160344706Y-140838494D01*
X160808049Y-141030891D01*
X161309750Y-141031329D01*
X161773428Y-140839741D01*
X162128494Y-140485294D01*
X162320891Y-140021951D01*
X162321329Y-139520250D01*
X162321329Y-143417000D01*
X159781329Y-143417000D01*
X159781329Y-139520250D01*
X159781329Y-136980250D01*
X159589741Y-136516572D01*
X159531329Y-136458057D01*
X159531329Y-82020250D01*
X159531329Y-79480250D01*
X159339741Y-79016572D01*
X158985294Y-78661506D01*
X158521951Y-78469109D01*
X158020250Y-78468671D01*
X157556572Y-78660259D01*
X157201506Y-79014706D01*
X157009109Y-79478049D01*
X157008671Y-79979750D01*
X157200259Y-80443428D01*
X157554706Y-80798494D01*
X158018049Y-80990891D01*
X158519750Y-80991329D01*
X158983428Y-80799741D01*
X159338494Y-80445294D01*
X159530891Y-79981951D01*
X159531329Y-79480250D01*
X159531329Y-82020250D01*
X159339741Y-81556572D01*
X158985294Y-81201506D01*
X158521951Y-81009109D01*
X158020250Y-81008671D01*
X157556572Y-81200259D01*
X157201506Y-81554706D01*
X157009109Y-82018049D01*
X157008671Y-82519750D01*
X157200259Y-82983428D01*
X157554706Y-83338494D01*
X158018049Y-83530891D01*
X158519750Y-83531329D01*
X158983428Y-83339741D01*
X159338494Y-82985294D01*
X159530891Y-82521951D01*
X159531329Y-82020250D01*
X159531329Y-136458057D01*
X159235294Y-136161506D01*
X158771951Y-135969109D01*
X158270250Y-135968671D01*
X157806572Y-136160259D01*
X157451506Y-136514706D01*
X157259109Y-136978049D01*
X157258671Y-137479750D01*
X157450259Y-137943428D01*
X157804706Y-138298494D01*
X158268049Y-138490891D01*
X158769750Y-138491329D01*
X159233428Y-138299741D01*
X159588494Y-137945294D01*
X159780891Y-137481951D01*
X159781329Y-136980250D01*
X159781329Y-139520250D01*
X159589741Y-139056572D01*
X159235294Y-138701506D01*
X158771951Y-138509109D01*
X158270250Y-138508671D01*
X157806572Y-138700259D01*
X157451506Y-139054706D01*
X157259109Y-139518049D01*
X157258671Y-140019750D01*
X157450259Y-140483428D01*
X157804706Y-140838494D01*
X158268049Y-141030891D01*
X158769750Y-141031329D01*
X159233428Y-140839741D01*
X159588494Y-140485294D01*
X159780891Y-140021951D01*
X159781329Y-139520250D01*
X159781329Y-143417000D01*
X157241329Y-143417000D01*
X157241329Y-139520250D01*
X157241329Y-136980250D01*
X157049741Y-136516572D01*
X156991329Y-136458057D01*
X156991329Y-82020250D01*
X156991329Y-79480250D01*
X156799741Y-79016572D01*
X156445294Y-78661506D01*
X155981951Y-78469109D01*
X155480250Y-78468671D01*
X155016572Y-78660259D01*
X154661506Y-79014706D01*
X154469109Y-79478049D01*
X154468671Y-79979750D01*
X154660259Y-80443428D01*
X155014706Y-80798494D01*
X155478049Y-80990891D01*
X155979750Y-80991329D01*
X156443428Y-80799741D01*
X156798494Y-80445294D01*
X156990891Y-79981951D01*
X156991329Y-79480250D01*
X156991329Y-82020250D01*
X156799741Y-81556572D01*
X156445294Y-81201506D01*
X155981951Y-81009109D01*
X155480250Y-81008671D01*
X155016572Y-81200259D01*
X154661506Y-81554706D01*
X154469109Y-82018049D01*
X154468671Y-82519750D01*
X154660259Y-82983428D01*
X155014706Y-83338494D01*
X155478049Y-83530891D01*
X155979750Y-83531329D01*
X156443428Y-83339741D01*
X156798494Y-82985294D01*
X156990891Y-82521951D01*
X156991329Y-82020250D01*
X156991329Y-136458057D01*
X156695294Y-136161506D01*
X156231951Y-135969109D01*
X155730250Y-135968671D01*
X155266572Y-136160259D01*
X154911506Y-136514706D01*
X154719109Y-136978049D01*
X154718671Y-137479750D01*
X154910259Y-137943428D01*
X155264706Y-138298494D01*
X155728049Y-138490891D01*
X156229750Y-138491329D01*
X156693428Y-138299741D01*
X157048494Y-137945294D01*
X157240891Y-137481951D01*
X157241329Y-136980250D01*
X157241329Y-139520250D01*
X157049741Y-139056572D01*
X156695294Y-138701506D01*
X156231951Y-138509109D01*
X155730250Y-138508671D01*
X155266572Y-138700259D01*
X154911506Y-139054706D01*
X154719109Y-139518049D01*
X154718671Y-140019750D01*
X154910259Y-140483428D01*
X155264706Y-140838494D01*
X155728049Y-141030891D01*
X156229750Y-141031329D01*
X156693428Y-140839741D01*
X157048494Y-140485294D01*
X157240891Y-140021951D01*
X157241329Y-139520250D01*
X157241329Y-143417000D01*
X154701329Y-143417000D01*
X154701329Y-139520250D01*
X154701329Y-136980250D01*
X154509741Y-136516572D01*
X154451329Y-136458057D01*
X154451329Y-82020250D01*
X154451329Y-79480250D01*
X154259741Y-79016572D01*
X153905294Y-78661506D01*
X153441951Y-78469109D01*
X152940250Y-78468671D01*
X152476572Y-78660259D01*
X152121506Y-79014706D01*
X151929109Y-79478049D01*
X151928671Y-79979750D01*
X152120259Y-80443428D01*
X152474706Y-80798494D01*
X152938049Y-80990891D01*
X153439750Y-80991329D01*
X153903428Y-80799741D01*
X154258494Y-80445294D01*
X154450891Y-79981951D01*
X154451329Y-79480250D01*
X154451329Y-82020250D01*
X154259741Y-81556572D01*
X153905294Y-81201506D01*
X153441951Y-81009109D01*
X152940250Y-81008671D01*
X152476572Y-81200259D01*
X152121506Y-81554706D01*
X151929109Y-82018049D01*
X151928671Y-82519750D01*
X152120259Y-82983428D01*
X152474706Y-83338494D01*
X152938049Y-83530891D01*
X153439750Y-83531329D01*
X153903428Y-83339741D01*
X154258494Y-82985294D01*
X154450891Y-82521951D01*
X154451329Y-82020250D01*
X154451329Y-136458057D01*
X154155294Y-136161506D01*
X153691951Y-135969109D01*
X153190250Y-135968671D01*
X152726572Y-136160259D01*
X152371506Y-136514706D01*
X152179109Y-136978049D01*
X152178671Y-137479750D01*
X152370259Y-137943428D01*
X152724706Y-138298494D01*
X153188049Y-138490891D01*
X153689750Y-138491329D01*
X154153428Y-138299741D01*
X154508494Y-137945294D01*
X154700891Y-137481951D01*
X154701329Y-136980250D01*
X154701329Y-139520250D01*
X154509741Y-139056572D01*
X154155294Y-138701506D01*
X153691951Y-138509109D01*
X153190250Y-138508671D01*
X152726572Y-138700259D01*
X152371506Y-139054706D01*
X152179109Y-139518049D01*
X152178671Y-140019750D01*
X152370259Y-140483428D01*
X152724706Y-140838494D01*
X153188049Y-141030891D01*
X153689750Y-141031329D01*
X154153428Y-140839741D01*
X154508494Y-140485294D01*
X154700891Y-140021951D01*
X154701329Y-139520250D01*
X154701329Y-143417000D01*
X152161329Y-143417000D01*
X152161329Y-139520250D01*
X152161329Y-136980250D01*
X151969741Y-136516572D01*
X151911329Y-136458057D01*
X151911329Y-82020250D01*
X151911329Y-79480250D01*
X151719741Y-79016572D01*
X151365294Y-78661506D01*
X150901951Y-78469109D01*
X150400250Y-78468671D01*
X149936572Y-78660259D01*
X149581506Y-79014706D01*
X149389109Y-79478049D01*
X149388671Y-79979750D01*
X149580259Y-80443428D01*
X149934706Y-80798494D01*
X150398049Y-80990891D01*
X150899750Y-80991329D01*
X151363428Y-80799741D01*
X151718494Y-80445294D01*
X151910891Y-79981951D01*
X151911329Y-79480250D01*
X151911329Y-82020250D01*
X151719741Y-81556572D01*
X151365294Y-81201506D01*
X150901951Y-81009109D01*
X150400250Y-81008671D01*
X149936572Y-81200259D01*
X149581506Y-81554706D01*
X149389109Y-82018049D01*
X149388671Y-82519750D01*
X149580259Y-82983428D01*
X149934706Y-83338494D01*
X150398049Y-83530891D01*
X150899750Y-83531329D01*
X151363428Y-83339741D01*
X151718494Y-82985294D01*
X151910891Y-82521951D01*
X151911329Y-82020250D01*
X151911329Y-136458057D01*
X151615294Y-136161506D01*
X151151951Y-135969109D01*
X150650250Y-135968671D01*
X150186572Y-136160259D01*
X149831506Y-136514706D01*
X149639109Y-136978049D01*
X149638671Y-137479750D01*
X149830259Y-137943428D01*
X150184706Y-138298494D01*
X150648049Y-138490891D01*
X151149750Y-138491329D01*
X151613428Y-138299741D01*
X151968494Y-137945294D01*
X152160891Y-137481951D01*
X152161329Y-136980250D01*
X152161329Y-139520250D01*
X151969741Y-139056572D01*
X151615294Y-138701506D01*
X151151951Y-138509109D01*
X150650250Y-138508671D01*
X150186572Y-138700259D01*
X149831506Y-139054706D01*
X149639109Y-139518049D01*
X149638671Y-140019750D01*
X149830259Y-140483428D01*
X150184706Y-140838494D01*
X150648049Y-141030891D01*
X151149750Y-141031329D01*
X151613428Y-140839741D01*
X151968494Y-140485294D01*
X152160891Y-140021951D01*
X152161329Y-139520250D01*
X152161329Y-143417000D01*
X149621329Y-143417000D01*
X149621329Y-139520250D01*
X149621329Y-136980250D01*
X149429741Y-136516572D01*
X149371329Y-136458057D01*
X149371329Y-82020250D01*
X149371329Y-79480250D01*
X149179741Y-79016572D01*
X148825294Y-78661506D01*
X148361951Y-78469109D01*
X147860250Y-78468671D01*
X147396572Y-78660259D01*
X147041506Y-79014706D01*
X146849109Y-79478049D01*
X146848671Y-79979750D01*
X147040259Y-80443428D01*
X147394706Y-80798494D01*
X147858049Y-80990891D01*
X148359750Y-80991329D01*
X148823428Y-80799741D01*
X149178494Y-80445294D01*
X149370891Y-79981951D01*
X149371329Y-79480250D01*
X149371329Y-82020250D01*
X149179741Y-81556572D01*
X148825294Y-81201506D01*
X148361951Y-81009109D01*
X147860250Y-81008671D01*
X147396572Y-81200259D01*
X147041506Y-81554706D01*
X146849109Y-82018049D01*
X146848671Y-82519750D01*
X147040259Y-82983428D01*
X147394706Y-83338494D01*
X147858049Y-83530891D01*
X148359750Y-83531329D01*
X148823428Y-83339741D01*
X149178494Y-82985294D01*
X149370891Y-82521951D01*
X149371329Y-82020250D01*
X149371329Y-136458057D01*
X149075294Y-136161506D01*
X148611951Y-135969109D01*
X148110250Y-135968671D01*
X147646572Y-136160259D01*
X147291506Y-136514706D01*
X147099109Y-136978049D01*
X147098671Y-137479750D01*
X147290259Y-137943428D01*
X147644706Y-138298494D01*
X148108049Y-138490891D01*
X148609750Y-138491329D01*
X149073428Y-138299741D01*
X149428494Y-137945294D01*
X149620891Y-137481951D01*
X149621329Y-136980250D01*
X149621329Y-139520250D01*
X149429741Y-139056572D01*
X149075294Y-138701506D01*
X148611951Y-138509109D01*
X148110250Y-138508671D01*
X147646572Y-138700259D01*
X147291506Y-139054706D01*
X147099109Y-139518049D01*
X147098671Y-140019750D01*
X147290259Y-140483428D01*
X147644706Y-140838494D01*
X148108049Y-141030891D01*
X148609750Y-141031329D01*
X149073428Y-140839741D01*
X149428494Y-140485294D01*
X149620891Y-140021951D01*
X149621329Y-139520250D01*
X149621329Y-143417000D01*
X147081329Y-143417000D01*
X147081329Y-136980250D01*
X146889741Y-136516572D01*
X146858218Y-136484993D01*
X146858218Y-85150866D01*
X146831329Y-85085789D01*
X146831329Y-82020250D01*
X146831329Y-79480250D01*
X146639741Y-79016572D01*
X146285294Y-78661506D01*
X145821951Y-78469109D01*
X145320250Y-78468671D01*
X144856572Y-78660259D01*
X144501506Y-79014706D01*
X144309109Y-79478049D01*
X144308671Y-79979750D01*
X144500259Y-80443428D01*
X144854706Y-80798494D01*
X145318049Y-80990891D01*
X145819750Y-80991329D01*
X146283428Y-80799741D01*
X146638494Y-80445294D01*
X146830891Y-79981951D01*
X146831329Y-79480250D01*
X146831329Y-82020250D01*
X146639741Y-81556572D01*
X146285294Y-81201506D01*
X145821951Y-81009109D01*
X145320250Y-81008671D01*
X144856572Y-81200259D01*
X144501506Y-81554706D01*
X144309109Y-82018049D01*
X144308671Y-82519750D01*
X144500259Y-82983428D01*
X144854706Y-83338494D01*
X145318049Y-83530891D01*
X145819750Y-83531329D01*
X146283428Y-83339741D01*
X146638494Y-82985294D01*
X146830891Y-82521951D01*
X146831329Y-82020250D01*
X146831329Y-85085789D01*
X146667103Y-84688331D01*
X146313530Y-84334141D01*
X145851330Y-84142219D01*
X145350866Y-84141782D01*
X144888331Y-84332897D01*
X144534141Y-84686470D01*
X144342219Y-85148670D01*
X144341782Y-85649134D01*
X144532897Y-86111669D01*
X144886470Y-86465859D01*
X144990400Y-86509014D01*
X144990400Y-89247495D01*
X141018420Y-93219475D01*
X141018420Y-82700000D01*
X140159210Y-81840790D01*
X139210420Y-80892000D01*
X137089580Y-80892000D01*
X131766709Y-86214871D01*
X131766709Y-78221065D01*
X131583418Y-77777465D01*
X131244320Y-77437775D01*
X130801041Y-77253710D01*
X130321065Y-77253291D01*
X129877465Y-77436582D01*
X129537775Y-77775680D01*
X129353710Y-78218959D01*
X129353291Y-78698935D01*
X129536582Y-79142535D01*
X129875680Y-79482225D01*
X130318959Y-79666290D01*
X130798935Y-79666709D01*
X131242535Y-79483418D01*
X131582225Y-79144320D01*
X131766290Y-78701041D01*
X131766709Y-78221065D01*
X131766709Y-86214871D01*
X124146709Y-93834871D01*
X124146709Y-78221065D01*
X123963418Y-77777465D01*
X123624320Y-77437775D01*
X123181041Y-77253710D01*
X122701065Y-77253291D01*
X122257465Y-77436582D01*
X121917775Y-77775680D01*
X121733710Y-78218959D01*
X121733291Y-78698935D01*
X121916582Y-79142535D01*
X122255680Y-79482225D01*
X122698959Y-79666290D01*
X123178935Y-79666709D01*
X123622535Y-79483418D01*
X123962225Y-79144320D01*
X124146290Y-78701041D01*
X124146709Y-78221065D01*
X124146709Y-93834871D01*
X113292000Y-104689580D01*
X113292000Y-110010420D01*
X114189580Y-110908000D01*
X117110420Y-110908000D01*
X129910420Y-98108000D01*
X133010420Y-98108000D01*
X134508000Y-96610420D01*
X134508000Y-89210420D01*
X141018420Y-82700000D01*
X141018420Y-93219475D01*
X125847495Y-108390400D01*
X121500000Y-108390400D01*
X121266716Y-108436803D01*
X121068948Y-108568948D01*
X118894396Y-110743500D01*
X118700453Y-110743500D01*
X118513742Y-110820838D01*
X118370839Y-110963741D01*
X118293500Y-111150452D01*
X118293500Y-111344396D01*
X117953325Y-111684570D01*
X117851330Y-111642219D01*
X117350866Y-111641782D01*
X116888331Y-111832897D01*
X116534141Y-112186470D01*
X116342219Y-112648670D01*
X116341782Y-113149134D01*
X116532897Y-113611669D01*
X116886470Y-113965859D01*
X117348670Y-114157781D01*
X117849134Y-114158218D01*
X118311669Y-113967103D01*
X118665859Y-113613530D01*
X118855634Y-113156500D01*
X118902547Y-113156500D01*
X120299547Y-113156500D01*
X120486258Y-113079162D01*
X120629161Y-112936259D01*
X120706500Y-112749548D01*
X120706500Y-112547453D01*
X120706500Y-111150453D01*
X120629162Y-110963742D01*
X120513762Y-110848342D01*
X121752504Y-109609600D01*
X126100000Y-109609600D01*
X126333284Y-109563197D01*
X126531052Y-109431052D01*
X146031052Y-89931053D01*
X146031052Y-89931052D01*
X146163197Y-89733284D01*
X146209599Y-89500000D01*
X146209600Y-89500000D01*
X146209600Y-86509276D01*
X146311669Y-86467103D01*
X146665859Y-86113530D01*
X146857781Y-85651330D01*
X146858218Y-85150866D01*
X146858218Y-136484993D01*
X146535294Y-136161506D01*
X146071951Y-135969109D01*
X145570250Y-135968671D01*
X145106572Y-136160259D01*
X144751506Y-136514706D01*
X144559109Y-136978049D01*
X144558671Y-137479750D01*
X144750259Y-137943428D01*
X145104706Y-138298494D01*
X145568049Y-138490891D01*
X146069750Y-138491329D01*
X146533428Y-138299741D01*
X146888494Y-137945294D01*
X147080891Y-137481951D01*
X147081329Y-136980250D01*
X147081329Y-143417000D01*
X139108000Y-143417000D01*
X139108000Y-126310420D01*
X139108000Y-115589580D01*
X138110420Y-114592000D01*
X135589580Y-114592000D01*
X134092000Y-116089580D01*
X134092000Y-124289580D01*
X125892000Y-132489580D01*
X125892000Y-135710420D01*
X126489580Y-136308000D01*
X129110420Y-136308000D01*
X139108000Y-126310420D01*
X139108000Y-143417000D01*
X138157386Y-143417000D01*
X138157386Y-137459461D01*
X138011910Y-137107383D01*
X137742774Y-136837777D01*
X137390950Y-136691687D01*
X137010001Y-136691354D01*
X136657923Y-136836830D01*
X136388317Y-137105966D01*
X136242227Y-137457790D01*
X136241894Y-137838739D01*
X136387370Y-138190817D01*
X136656506Y-138460423D01*
X137008330Y-138606513D01*
X137389279Y-138606846D01*
X137741357Y-138461370D01*
X138010963Y-138192234D01*
X138157053Y-137840410D01*
X138157386Y-137459461D01*
X138157386Y-143417000D01*
X133758106Y-143417000D01*
X133758106Y-137459461D01*
X133612630Y-137107383D01*
X133343494Y-136837777D01*
X132991670Y-136691687D01*
X132610721Y-136691354D01*
X132258643Y-136836830D01*
X131989037Y-137105966D01*
X131842947Y-137457790D01*
X131842614Y-137838739D01*
X131988090Y-138190817D01*
X132257226Y-138460423D01*
X132609050Y-138606513D01*
X132989999Y-138606846D01*
X133342077Y-138461370D01*
X133611683Y-138192234D01*
X133757773Y-137840410D01*
X133758106Y-137459461D01*
X133758106Y-143417000D01*
X120706709Y-143417000D01*
X120706709Y-119331065D01*
X120706709Y-116791065D01*
X120706709Y-114251065D01*
X120523418Y-113807465D01*
X120184320Y-113467775D01*
X119741041Y-113283710D01*
X119261065Y-113283291D01*
X118817465Y-113466582D01*
X118477775Y-113805680D01*
X118293710Y-114248959D01*
X118293291Y-114728935D01*
X118476582Y-115172535D01*
X118815680Y-115512225D01*
X119258959Y-115696290D01*
X119738935Y-115696709D01*
X120182535Y-115513418D01*
X120522225Y-115174320D01*
X120706290Y-114731041D01*
X120706709Y-114251065D01*
X120706709Y-116791065D01*
X120523418Y-116347465D01*
X120184320Y-116007775D01*
X119741041Y-115823710D01*
X119261065Y-115823291D01*
X118817465Y-116006582D01*
X118477775Y-116345680D01*
X118293710Y-116788959D01*
X118293291Y-117268935D01*
X118476582Y-117712535D01*
X118815680Y-118052225D01*
X119258959Y-118236290D01*
X119738935Y-118236709D01*
X120182535Y-118053418D01*
X120522225Y-117714320D01*
X120706290Y-117271041D01*
X120706709Y-116791065D01*
X120706709Y-119331065D01*
X120523418Y-118887465D01*
X120184320Y-118547775D01*
X119741041Y-118363710D01*
X119261065Y-118363291D01*
X118817465Y-118546582D01*
X118477775Y-118885680D01*
X118293710Y-119328959D01*
X118293291Y-119808935D01*
X118476582Y-120252535D01*
X118815680Y-120592225D01*
X119258959Y-120776290D01*
X119738935Y-120776709D01*
X120182535Y-120593418D01*
X120522225Y-120254320D01*
X120706290Y-119811041D01*
X120706709Y-119331065D01*
X120706709Y-143417000D01*
X113281329Y-143417000D01*
X113281329Y-137930250D01*
X113281329Y-135390250D01*
X113281329Y-132850250D01*
X113281329Y-130310250D01*
X113281329Y-127770250D01*
X113281329Y-125230250D01*
X113281329Y-122690250D01*
X113281329Y-120150250D01*
X113281329Y-117610250D01*
X113281329Y-115070250D01*
X113281329Y-104430250D01*
X113281329Y-101890250D01*
X113281329Y-99350250D01*
X113281329Y-96810250D01*
X113281329Y-94270250D01*
X113281329Y-91730250D01*
X113281329Y-89190250D01*
X113281329Y-86650250D01*
X113281329Y-84110250D01*
X113281329Y-81570250D01*
X113089741Y-81106572D01*
X112735294Y-80751506D01*
X112271951Y-80559109D01*
X111770250Y-80558671D01*
X111306572Y-80750259D01*
X110951506Y-81104706D01*
X110759109Y-81568049D01*
X110758671Y-82069750D01*
X110950259Y-82533428D01*
X111304706Y-82888494D01*
X111768049Y-83080891D01*
X112269750Y-83081329D01*
X112733428Y-82889741D01*
X113088494Y-82535294D01*
X113280891Y-82071951D01*
X113281329Y-81570250D01*
X113281329Y-84110250D01*
X113089741Y-83646572D01*
X112735294Y-83291506D01*
X112271951Y-83099109D01*
X111770250Y-83098671D01*
X111306572Y-83290259D01*
X110951506Y-83644706D01*
X110759109Y-84108049D01*
X110758671Y-84609750D01*
X110950259Y-85073428D01*
X111304706Y-85428494D01*
X111768049Y-85620891D01*
X112269750Y-85621329D01*
X112733428Y-85429741D01*
X113088494Y-85075294D01*
X113280891Y-84611951D01*
X113281329Y-84110250D01*
X113281329Y-86650250D01*
X113089741Y-86186572D01*
X112735294Y-85831506D01*
X112271951Y-85639109D01*
X111770250Y-85638671D01*
X111306572Y-85830259D01*
X110951506Y-86184706D01*
X110759109Y-86648049D01*
X110758671Y-87149750D01*
X110950259Y-87613428D01*
X111304706Y-87968494D01*
X111768049Y-88160891D01*
X112269750Y-88161329D01*
X112733428Y-87969741D01*
X113088494Y-87615294D01*
X113280891Y-87151951D01*
X113281329Y-86650250D01*
X113281329Y-89190250D01*
X113089741Y-88726572D01*
X112735294Y-88371506D01*
X112271951Y-88179109D01*
X111770250Y-88178671D01*
X111306572Y-88370259D01*
X110951506Y-88724706D01*
X110759109Y-89188049D01*
X110758671Y-89689750D01*
X110950259Y-90153428D01*
X111304706Y-90508494D01*
X111768049Y-90700891D01*
X112269750Y-90701329D01*
X112733428Y-90509741D01*
X113088494Y-90155294D01*
X113280891Y-89691951D01*
X113281329Y-89190250D01*
X113281329Y-91730250D01*
X113089741Y-91266572D01*
X112735294Y-90911506D01*
X112271951Y-90719109D01*
X111770250Y-90718671D01*
X111306572Y-90910259D01*
X110951506Y-91264706D01*
X110759109Y-91728049D01*
X110758671Y-92229750D01*
X110950259Y-92693428D01*
X111304706Y-93048494D01*
X111768049Y-93240891D01*
X112269750Y-93241329D01*
X112733428Y-93049741D01*
X113088494Y-92695294D01*
X113280891Y-92231951D01*
X113281329Y-91730250D01*
X113281329Y-94270250D01*
X113089741Y-93806572D01*
X112735294Y-93451506D01*
X112271951Y-93259109D01*
X111770250Y-93258671D01*
X111306572Y-93450259D01*
X110951506Y-93804706D01*
X110759109Y-94268049D01*
X110758671Y-94769750D01*
X110950259Y-95233428D01*
X111304706Y-95588494D01*
X111768049Y-95780891D01*
X112269750Y-95781329D01*
X112733428Y-95589741D01*
X113088494Y-95235294D01*
X113280891Y-94771951D01*
X113281329Y-94270250D01*
X113281329Y-96810250D01*
X113089741Y-96346572D01*
X112735294Y-95991506D01*
X112271951Y-95799109D01*
X111770250Y-95798671D01*
X111306572Y-95990259D01*
X110951506Y-96344706D01*
X110759109Y-96808049D01*
X110758671Y-97309750D01*
X110950259Y-97773428D01*
X111304706Y-98128494D01*
X111768049Y-98320891D01*
X112269750Y-98321329D01*
X112733428Y-98129741D01*
X113088494Y-97775294D01*
X113280891Y-97311951D01*
X113281329Y-96810250D01*
X113281329Y-99350250D01*
X113089741Y-98886572D01*
X112735294Y-98531506D01*
X112271951Y-98339109D01*
X111770250Y-98338671D01*
X111306572Y-98530259D01*
X110951506Y-98884706D01*
X110759109Y-99348049D01*
X110758671Y-99849750D01*
X110950259Y-100313428D01*
X111304706Y-100668494D01*
X111768049Y-100860891D01*
X112269750Y-100861329D01*
X112733428Y-100669741D01*
X113088494Y-100315294D01*
X113280891Y-99851951D01*
X113281329Y-99350250D01*
X113281329Y-101890250D01*
X113089741Y-101426572D01*
X112735294Y-101071506D01*
X112271951Y-100879109D01*
X111770250Y-100878671D01*
X111306572Y-101070259D01*
X110951506Y-101424706D01*
X110759109Y-101888049D01*
X110758671Y-102389750D01*
X110950259Y-102853428D01*
X111304706Y-103208494D01*
X111768049Y-103400891D01*
X112269750Y-103401329D01*
X112733428Y-103209741D01*
X113088494Y-102855294D01*
X113280891Y-102391951D01*
X113281329Y-101890250D01*
X113281329Y-104430250D01*
X113089741Y-103966572D01*
X112735294Y-103611506D01*
X112271951Y-103419109D01*
X111770250Y-103418671D01*
X111306572Y-103610259D01*
X110951506Y-103964706D01*
X110759109Y-104428049D01*
X110758671Y-104929750D01*
X110950259Y-105393428D01*
X111304706Y-105748494D01*
X111768049Y-105940891D01*
X112269750Y-105941329D01*
X112733428Y-105749741D01*
X113088494Y-105395294D01*
X113280891Y-104931951D01*
X113281329Y-104430250D01*
X113281329Y-115070250D01*
X113089741Y-114606572D01*
X112735294Y-114251506D01*
X112271951Y-114059109D01*
X111770250Y-114058671D01*
X111306572Y-114250259D01*
X110951506Y-114604706D01*
X110759109Y-115068049D01*
X110758671Y-115569750D01*
X110950259Y-116033428D01*
X111304706Y-116388494D01*
X111768049Y-116580891D01*
X112269750Y-116581329D01*
X112733428Y-116389741D01*
X113088494Y-116035294D01*
X113280891Y-115571951D01*
X113281329Y-115070250D01*
X113281329Y-117610250D01*
X113089741Y-117146572D01*
X112735294Y-116791506D01*
X112271951Y-116599109D01*
X111770250Y-116598671D01*
X111306572Y-116790259D01*
X110951506Y-117144706D01*
X110759109Y-117608049D01*
X110758671Y-118109750D01*
X110950259Y-118573428D01*
X111304706Y-118928494D01*
X111768049Y-119120891D01*
X112269750Y-119121329D01*
X112733428Y-118929741D01*
X113088494Y-118575294D01*
X113280891Y-118111951D01*
X113281329Y-117610250D01*
X113281329Y-120150250D01*
X113089741Y-119686572D01*
X112735294Y-119331506D01*
X112271951Y-119139109D01*
X111770250Y-119138671D01*
X111306572Y-119330259D01*
X110951506Y-119684706D01*
X110759109Y-120148049D01*
X110758671Y-120649750D01*
X110950259Y-121113428D01*
X111304706Y-121468494D01*
X111768049Y-121660891D01*
X112269750Y-121661329D01*
X112733428Y-121469741D01*
X113088494Y-121115294D01*
X113280891Y-120651951D01*
X113281329Y-120150250D01*
X113281329Y-122690250D01*
X113089741Y-122226572D01*
X112735294Y-121871506D01*
X112271951Y-121679109D01*
X111770250Y-121678671D01*
X111306572Y-121870259D01*
X110951506Y-122224706D01*
X110759109Y-122688049D01*
X110758671Y-123189750D01*
X110950259Y-123653428D01*
X111304706Y-124008494D01*
X111768049Y-124200891D01*
X112269750Y-124201329D01*
X112733428Y-124009741D01*
X113088494Y-123655294D01*
X113280891Y-123191951D01*
X113281329Y-122690250D01*
X113281329Y-125230250D01*
X113089741Y-124766572D01*
X112735294Y-124411506D01*
X112271951Y-124219109D01*
X111770250Y-124218671D01*
X111306572Y-124410259D01*
X110951506Y-124764706D01*
X110759109Y-125228049D01*
X110758671Y-125729750D01*
X110950259Y-126193428D01*
X111304706Y-126548494D01*
X111768049Y-126740891D01*
X112269750Y-126741329D01*
X112733428Y-126549741D01*
X113088494Y-126195294D01*
X113280891Y-125731951D01*
X113281329Y-125230250D01*
X113281329Y-127770250D01*
X113089741Y-127306572D01*
X112735294Y-126951506D01*
X112271951Y-126759109D01*
X111770250Y-126758671D01*
X111306572Y-126950259D01*
X110951506Y-127304706D01*
X110759109Y-127768049D01*
X110758671Y-128269750D01*
X110950259Y-128733428D01*
X111304706Y-129088494D01*
X111768049Y-129280891D01*
X112269750Y-129281329D01*
X112733428Y-129089741D01*
X113088494Y-128735294D01*
X113280891Y-128271951D01*
X113281329Y-127770250D01*
X113281329Y-130310250D01*
X113089741Y-129846572D01*
X112735294Y-129491506D01*
X112271951Y-129299109D01*
X111770250Y-129298671D01*
X111306572Y-129490259D01*
X110951506Y-129844706D01*
X110759109Y-130308049D01*
X110758671Y-130809750D01*
X110950259Y-131273428D01*
X111304706Y-131628494D01*
X111768049Y-131820891D01*
X112269750Y-131821329D01*
X112733428Y-131629741D01*
X113088494Y-131275294D01*
X113280891Y-130811951D01*
X113281329Y-130310250D01*
X113281329Y-132850250D01*
X113089741Y-132386572D01*
X112735294Y-132031506D01*
X112271951Y-131839109D01*
X111770250Y-131838671D01*
X111306572Y-132030259D01*
X110951506Y-132384706D01*
X110759109Y-132848049D01*
X110758671Y-133349750D01*
X110950259Y-133813428D01*
X111304706Y-134168494D01*
X111768049Y-134360891D01*
X112269750Y-134361329D01*
X112733428Y-134169741D01*
X113088494Y-133815294D01*
X113280891Y-133351951D01*
X113281329Y-132850250D01*
X113281329Y-135390250D01*
X113089741Y-134926572D01*
X112735294Y-134571506D01*
X112271951Y-134379109D01*
X111770250Y-134378671D01*
X111306572Y-134570259D01*
X110951506Y-134924706D01*
X110759109Y-135388049D01*
X110758671Y-135889750D01*
X110950259Y-136353428D01*
X111304706Y-136708494D01*
X111768049Y-136900891D01*
X112269750Y-136901329D01*
X112733428Y-136709741D01*
X113088494Y-136355294D01*
X113280891Y-135891951D01*
X113281329Y-135390250D01*
X113281329Y-137930250D01*
X113089741Y-137466572D01*
X112735294Y-137111506D01*
X112271951Y-136919109D01*
X111770250Y-136918671D01*
X111306572Y-137110259D01*
X110951506Y-137464706D01*
X110759109Y-137928049D01*
X110758671Y-138429750D01*
X110950259Y-138893428D01*
X111304706Y-139248494D01*
X111768049Y-139440891D01*
X112269750Y-139441329D01*
X112733428Y-139249741D01*
X113088494Y-138895294D01*
X113280891Y-138431951D01*
X113281329Y-137930250D01*
X113281329Y-143417000D01*
X110741329Y-143417000D01*
X110741329Y-137930250D01*
X110741329Y-135390250D01*
X110741329Y-132850250D01*
X110741329Y-130310250D01*
X110741329Y-127770250D01*
X110741329Y-125230250D01*
X110741329Y-122690250D01*
X110741329Y-120150250D01*
X110741329Y-117610250D01*
X110741329Y-115070250D01*
X110741329Y-104430250D01*
X110741329Y-101890250D01*
X110741329Y-99350250D01*
X110741329Y-96810250D01*
X110741329Y-94270250D01*
X110741329Y-91730250D01*
X110741329Y-89190250D01*
X110741329Y-86650250D01*
X110741329Y-84110250D01*
X110741329Y-81570250D01*
X110549741Y-81106572D01*
X110195294Y-80751506D01*
X109731951Y-80559109D01*
X109230250Y-80558671D01*
X108766572Y-80750259D01*
X108411506Y-81104706D01*
X108219109Y-81568049D01*
X108218671Y-82069750D01*
X108410259Y-82533428D01*
X108764706Y-82888494D01*
X109228049Y-83080891D01*
X109729750Y-83081329D01*
X110193428Y-82889741D01*
X110548494Y-82535294D01*
X110740891Y-82071951D01*
X110741329Y-81570250D01*
X110741329Y-84110250D01*
X110549741Y-83646572D01*
X110195294Y-83291506D01*
X109731951Y-83099109D01*
X109230250Y-83098671D01*
X108766572Y-83290259D01*
X108411506Y-83644706D01*
X108219109Y-84108049D01*
X108218671Y-84609750D01*
X108410259Y-85073428D01*
X108764706Y-85428494D01*
X109228049Y-85620891D01*
X109729750Y-85621329D01*
X110193428Y-85429741D01*
X110548494Y-85075294D01*
X110740891Y-84611951D01*
X110741329Y-84110250D01*
X110741329Y-86650250D01*
X110549741Y-86186572D01*
X110195294Y-85831506D01*
X109731951Y-85639109D01*
X109230250Y-85638671D01*
X108766572Y-85830259D01*
X108411506Y-86184706D01*
X108219109Y-86648049D01*
X108218671Y-87149750D01*
X108410259Y-87613428D01*
X108764706Y-87968494D01*
X109228049Y-88160891D01*
X109729750Y-88161329D01*
X110193428Y-87969741D01*
X110548494Y-87615294D01*
X110740891Y-87151951D01*
X110741329Y-86650250D01*
X110741329Y-89190250D01*
X110549741Y-88726572D01*
X110195294Y-88371506D01*
X109731951Y-88179109D01*
X109230250Y-88178671D01*
X108766572Y-88370259D01*
X108411506Y-88724706D01*
X108219109Y-89188049D01*
X108218671Y-89689750D01*
X108410259Y-90153428D01*
X108764706Y-90508494D01*
X109228049Y-90700891D01*
X109729750Y-90701329D01*
X110193428Y-90509741D01*
X110548494Y-90155294D01*
X110740891Y-89691951D01*
X110741329Y-89190250D01*
X110741329Y-91730250D01*
X110549741Y-91266572D01*
X110195294Y-90911506D01*
X109731951Y-90719109D01*
X109230250Y-90718671D01*
X108766572Y-90910259D01*
X108411506Y-91264706D01*
X108219109Y-91728049D01*
X108218671Y-92229750D01*
X108410259Y-92693428D01*
X108764706Y-93048494D01*
X109228049Y-93240891D01*
X109729750Y-93241329D01*
X110193428Y-93049741D01*
X110548494Y-92695294D01*
X110740891Y-92231951D01*
X110741329Y-91730250D01*
X110741329Y-94270250D01*
X110549741Y-93806572D01*
X110195294Y-93451506D01*
X109731951Y-93259109D01*
X109230250Y-93258671D01*
X108766572Y-93450259D01*
X108411506Y-93804706D01*
X108219109Y-94268049D01*
X108218671Y-94769750D01*
X108410259Y-95233428D01*
X108764706Y-95588494D01*
X109228049Y-95780891D01*
X109729750Y-95781329D01*
X110193428Y-95589741D01*
X110548494Y-95235294D01*
X110740891Y-94771951D01*
X110741329Y-94270250D01*
X110741329Y-96810250D01*
X110549741Y-96346572D01*
X110195294Y-95991506D01*
X109731951Y-95799109D01*
X109230250Y-95798671D01*
X108766572Y-95990259D01*
X108411506Y-96344706D01*
X108219109Y-96808049D01*
X108218671Y-97309750D01*
X108410259Y-97773428D01*
X108764706Y-98128494D01*
X109228049Y-98320891D01*
X109729750Y-98321329D01*
X110193428Y-98129741D01*
X110548494Y-97775294D01*
X110740891Y-97311951D01*
X110741329Y-96810250D01*
X110741329Y-99350250D01*
X110549741Y-98886572D01*
X110195294Y-98531506D01*
X109731951Y-98339109D01*
X109230250Y-98338671D01*
X108766572Y-98530259D01*
X108411506Y-98884706D01*
X108219109Y-99348049D01*
X108218671Y-99849750D01*
X108410259Y-100313428D01*
X108764706Y-100668494D01*
X109228049Y-100860891D01*
X109729750Y-100861329D01*
X110193428Y-100669741D01*
X110548494Y-100315294D01*
X110740891Y-99851951D01*
X110741329Y-99350250D01*
X110741329Y-101890250D01*
X110549741Y-101426572D01*
X110195294Y-101071506D01*
X109731951Y-100879109D01*
X109230250Y-100878671D01*
X108766572Y-101070259D01*
X108411506Y-101424706D01*
X108219109Y-101888049D01*
X108218671Y-102389750D01*
X108410259Y-102853428D01*
X108764706Y-103208494D01*
X109228049Y-103400891D01*
X109729750Y-103401329D01*
X110193428Y-103209741D01*
X110548494Y-102855294D01*
X110740891Y-102391951D01*
X110741329Y-101890250D01*
X110741329Y-104430250D01*
X110549741Y-103966572D01*
X110195294Y-103611506D01*
X109731951Y-103419109D01*
X109230250Y-103418671D01*
X108766572Y-103610259D01*
X108411506Y-103964706D01*
X108219109Y-104428049D01*
X108218671Y-104929750D01*
X108410259Y-105393428D01*
X108764706Y-105748494D01*
X109228049Y-105940891D01*
X109729750Y-105941329D01*
X110193428Y-105749741D01*
X110548494Y-105395294D01*
X110740891Y-104931951D01*
X110741329Y-104430250D01*
X110741329Y-115070250D01*
X110549741Y-114606572D01*
X110195294Y-114251506D01*
X109731951Y-114059109D01*
X109230250Y-114058671D01*
X108766572Y-114250259D01*
X108411506Y-114604706D01*
X108219109Y-115068049D01*
X108218671Y-115569750D01*
X108410259Y-116033428D01*
X108764706Y-116388494D01*
X109228049Y-116580891D01*
X109729750Y-116581329D01*
X110193428Y-116389741D01*
X110548494Y-116035294D01*
X110740891Y-115571951D01*
X110741329Y-115070250D01*
X110741329Y-117610250D01*
X110549741Y-117146572D01*
X110195294Y-116791506D01*
X109731951Y-116599109D01*
X109230250Y-116598671D01*
X108766572Y-116790259D01*
X108411506Y-117144706D01*
X108219109Y-117608049D01*
X108218671Y-118109750D01*
X108410259Y-118573428D01*
X108764706Y-118928494D01*
X109228049Y-119120891D01*
X109729750Y-119121329D01*
X110193428Y-118929741D01*
X110548494Y-118575294D01*
X110740891Y-118111951D01*
X110741329Y-117610250D01*
X110741329Y-120150250D01*
X110549741Y-119686572D01*
X110195294Y-119331506D01*
X109731951Y-119139109D01*
X109230250Y-119138671D01*
X108766572Y-119330259D01*
X108411506Y-119684706D01*
X108219109Y-120148049D01*
X108218671Y-120649750D01*
X108410259Y-121113428D01*
X108764706Y-121468494D01*
X109228049Y-121660891D01*
X109729750Y-121661329D01*
X110193428Y-121469741D01*
X110548494Y-121115294D01*
X110740891Y-120651951D01*
X110741329Y-120150250D01*
X110741329Y-122690250D01*
X110549741Y-122226572D01*
X110195294Y-121871506D01*
X109731951Y-121679109D01*
X109230250Y-121678671D01*
X108766572Y-121870259D01*
X108411506Y-122224706D01*
X108219109Y-122688049D01*
X108218671Y-123189750D01*
X108410259Y-123653428D01*
X108764706Y-124008494D01*
X109228049Y-124200891D01*
X109729750Y-124201329D01*
X110193428Y-124009741D01*
X110548494Y-123655294D01*
X110740891Y-123191951D01*
X110741329Y-122690250D01*
X110741329Y-125230250D01*
X110549741Y-124766572D01*
X110195294Y-124411506D01*
X109731951Y-124219109D01*
X109230250Y-124218671D01*
X108766572Y-124410259D01*
X108411506Y-124764706D01*
X108219109Y-125228049D01*
X108218671Y-125729750D01*
X108410259Y-126193428D01*
X108764706Y-126548494D01*
X109228049Y-126740891D01*
X109729750Y-126741329D01*
X110193428Y-126549741D01*
X110548494Y-126195294D01*
X110740891Y-125731951D01*
X110741329Y-125230250D01*
X110741329Y-127770250D01*
X110549741Y-127306572D01*
X110195294Y-126951506D01*
X109731951Y-126759109D01*
X109230250Y-126758671D01*
X108766572Y-126950259D01*
X108411506Y-127304706D01*
X108219109Y-127768049D01*
X108218671Y-128269750D01*
X108410259Y-128733428D01*
X108764706Y-129088494D01*
X109228049Y-129280891D01*
X109729750Y-129281329D01*
X110193428Y-129089741D01*
X110548494Y-128735294D01*
X110740891Y-128271951D01*
X110741329Y-127770250D01*
X110741329Y-130310250D01*
X110549741Y-129846572D01*
X110195294Y-129491506D01*
X109731951Y-129299109D01*
X109230250Y-129298671D01*
X108766572Y-129490259D01*
X108411506Y-129844706D01*
X108219109Y-130308049D01*
X108218671Y-130809750D01*
X108410259Y-131273428D01*
X108764706Y-131628494D01*
X109228049Y-131820891D01*
X109729750Y-131821329D01*
X110193428Y-131629741D01*
X110548494Y-131275294D01*
X110740891Y-130811951D01*
X110741329Y-130310250D01*
X110741329Y-132850250D01*
X110549741Y-132386572D01*
X110195294Y-132031506D01*
X109731951Y-131839109D01*
X109230250Y-131838671D01*
X108766572Y-132030259D01*
X108411506Y-132384706D01*
X108219109Y-132848049D01*
X108218671Y-133349750D01*
X108410259Y-133813428D01*
X108764706Y-134168494D01*
X109228049Y-134360891D01*
X109729750Y-134361329D01*
X110193428Y-134169741D01*
X110548494Y-133815294D01*
X110740891Y-133351951D01*
X110741329Y-132850250D01*
X110741329Y-135390250D01*
X110549741Y-134926572D01*
X110195294Y-134571506D01*
X109731951Y-134379109D01*
X109230250Y-134378671D01*
X108766572Y-134570259D01*
X108411506Y-134924706D01*
X108219109Y-135388049D01*
X108218671Y-135889750D01*
X108410259Y-136353428D01*
X108764706Y-136708494D01*
X109228049Y-136900891D01*
X109729750Y-136901329D01*
X110193428Y-136709741D01*
X110548494Y-136355294D01*
X110740891Y-135891951D01*
X110741329Y-135390250D01*
X110741329Y-137930250D01*
X110549741Y-137466572D01*
X110195294Y-137111506D01*
X109731951Y-136919109D01*
X109230250Y-136918671D01*
X108766572Y-137110259D01*
X108411506Y-137464706D01*
X108219109Y-137928049D01*
X108218671Y-138429750D01*
X108410259Y-138893428D01*
X108764706Y-139248494D01*
X109228049Y-139440891D01*
X109729750Y-139441329D01*
X110193428Y-139249741D01*
X110548494Y-138895294D01*
X110740891Y-138431951D01*
X110741329Y-137930250D01*
X110741329Y-143417000D01*
X106000000Y-143417000D01*
X105583000Y-143417000D01*
X105583000Y-76583000D01*
X183417000Y-76583000D01*
X183417000Y-143417000D01*
G36*
X196800000Y-105900000D02*
X196700000Y-105800000D01*
X196800000Y-105800000D01*
X196800000Y-105900000D01*
X196800000Y-105900000D01*
G37*
X196800000Y-105900000D02*
X196700000Y-105800000D01*
X196800000Y-105800000D01*
X196800000Y-105900000D01*
G36*
X138473000Y-126047395D02*
X128847395Y-135673000D01*
X126752605Y-135673000D01*
X126527000Y-135447395D01*
X126527000Y-132752605D01*
X134727000Y-124552605D01*
X134727000Y-116352605D01*
X135852605Y-115227000D01*
X137847395Y-115227000D01*
X138473000Y-115852605D01*
X138473000Y-126047395D01*
X138473000Y-126047395D01*
G37*
X138473000Y-126047395D02*
X128847395Y-135673000D01*
X126752605Y-135673000D01*
X126527000Y-135447395D01*
X126527000Y-132752605D01*
X134727000Y-124552605D01*
X134727000Y-116352605D01*
X135852605Y-115227000D01*
X137847395Y-115227000D01*
X138473000Y-115852605D01*
X138473000Y-126047395D01*
G36*
X140120395Y-82700000D02*
X133873000Y-88947395D01*
X133873000Y-96347395D01*
X132747395Y-97473000D01*
X129647395Y-97473000D01*
X116847395Y-110273000D01*
X114452605Y-110273000D01*
X113927000Y-109747395D01*
X113927000Y-104952605D01*
X137352605Y-81527000D01*
X138947395Y-81527000D01*
X139710197Y-82289803D01*
X140120395Y-82700000D01*
X140120395Y-82700000D01*
G37*
X140120395Y-82700000D02*
X133873000Y-88947395D01*
X133873000Y-96347395D01*
X132747395Y-97473000D01*
X129647395Y-97473000D01*
X116847395Y-110273000D01*
X114452605Y-110273000D01*
X113927000Y-109747395D01*
X113927000Y-104952605D01*
X137352605Y-81527000D01*
X138947395Y-81527000D01*
X139710197Y-82289803D01*
X140120395Y-82700000D01*
M02*
