%FSLAX46Y46*%
G04 Gerber Fmt 4.6, Leading zero omitted, Abs format (unit mm)*
G04 Created by KiCad (PCBNEW (2014-09-25 BZR 5147)-product) date dom 28 dic 2014 10:43:20 ART*
%MOMM*%
G01*
G04 APERTURE LIST*
%ADD10C,0.100000*%
%ADD11C,0.127000*%
%ADD12C,0.381000*%
%ADD13C,0.066040*%
%ADD14C,0.101600*%
%ADD15C,0.050800*%
%ADD16C,0.304800*%
%ADD17C,0.254000*%
%ADD18C,0.203200*%
%ADD19C,0.060960*%
%ADD20C,0.271780*%
%ADD21C,0.088900*%
G04 APERTURE END LIST*
D10*
D11*
X134885000Y-83365000D02*
X134885000Y-84635000D01*
X133615000Y-83365000D02*
X133615000Y-84609600D01*
X133234000Y-83365000D02*
X135266000Y-83365000D01*
X135266000Y-83365000D02*
X135266000Y-84635000D01*
X135266000Y-84635000D02*
X133234000Y-84635000D01*
X133234000Y-84635000D02*
X133234000Y-83365000D01*
X127465000Y-139765000D02*
X128735000Y-139765000D01*
X127465000Y-141035000D02*
X128709600Y-141035000D01*
X127465000Y-141416000D02*
X127465000Y-139384000D01*
X127465000Y-139384000D02*
X128735000Y-139384000D01*
X128735000Y-139384000D02*
X128735000Y-141416000D01*
X128735000Y-141416000D02*
X127465000Y-141416000D01*
X125365000Y-139765000D02*
X126635000Y-139765000D01*
X125365000Y-141035000D02*
X126609600Y-141035000D01*
X125365000Y-141416000D02*
X125365000Y-139384000D01*
X125365000Y-139384000D02*
X126635000Y-139384000D01*
X126635000Y-139384000D02*
X126635000Y-141416000D01*
X126635000Y-141416000D02*
X125365000Y-141416000D01*
X126565000Y-120065000D02*
X127835000Y-120065000D01*
X126565000Y-121335000D02*
X127809600Y-121335000D01*
X126565000Y-121716000D02*
X126565000Y-119684000D01*
X126565000Y-119684000D02*
X127835000Y-119684000D01*
X127835000Y-119684000D02*
X127835000Y-121716000D01*
X127835000Y-121716000D02*
X126565000Y-121716000D01*
X130535000Y-126965000D02*
X130535000Y-128235000D01*
X129265000Y-126965000D02*
X129265000Y-128209600D01*
X128884000Y-126965000D02*
X130916000Y-126965000D01*
X130916000Y-126965000D02*
X130916000Y-128235000D01*
X130916000Y-128235000D02*
X128884000Y-128235000D01*
X128884000Y-128235000D02*
X128884000Y-126965000D01*
X148265000Y-125535000D02*
X148265000Y-124265000D01*
X149535000Y-125535000D02*
X149535000Y-124290400D01*
X149916000Y-125535000D02*
X147884000Y-125535000D01*
X147884000Y-125535000D02*
X147884000Y-124265000D01*
X147884000Y-124265000D02*
X149916000Y-124265000D01*
X149916000Y-124265000D02*
X149916000Y-125535000D01*
X157665000Y-119035000D02*
X157665000Y-117765000D01*
X158935000Y-119035000D02*
X158935000Y-117790400D01*
X159316000Y-119035000D02*
X157284000Y-119035000D01*
X157284000Y-119035000D02*
X157284000Y-117765000D01*
X157284000Y-117765000D02*
X159316000Y-117765000D01*
X159316000Y-117765000D02*
X159316000Y-119035000D01*
X163965000Y-108635000D02*
X163965000Y-107365000D01*
X165235000Y-108635000D02*
X165235000Y-107390400D01*
X165616000Y-108635000D02*
X163584000Y-108635000D01*
X163584000Y-108635000D02*
X163584000Y-107365000D01*
X163584000Y-107365000D02*
X165616000Y-107365000D01*
X165616000Y-107365000D02*
X165616000Y-108635000D01*
X163465000Y-98165000D02*
X164735000Y-98165000D01*
X163465000Y-99435000D02*
X164709600Y-99435000D01*
X163465000Y-99816000D02*
X163465000Y-97784000D01*
X163465000Y-97784000D02*
X164735000Y-97784000D01*
X164735000Y-97784000D02*
X164735000Y-99816000D01*
X164735000Y-99816000D02*
X163465000Y-99816000D01*
X149565000Y-88335000D02*
X149565000Y-87065000D01*
X150835000Y-88335000D02*
X150835000Y-87090400D01*
X151216000Y-88335000D02*
X149184000Y-88335000D01*
X149184000Y-88335000D02*
X149184000Y-87065000D01*
X149184000Y-87065000D02*
X151216000Y-87065000D01*
X151216000Y-87065000D02*
X151216000Y-88335000D01*
X139465000Y-91335000D02*
X139465000Y-90065000D01*
X140735000Y-91335000D02*
X140735000Y-90090400D01*
X141116000Y-91335000D02*
X139084000Y-91335000D01*
X139084000Y-91335000D02*
X139084000Y-90065000D01*
X139084000Y-90065000D02*
X141116000Y-90065000D01*
X141116000Y-90065000D02*
X141116000Y-91335000D01*
X133165000Y-95765000D02*
X134435000Y-95765000D01*
X133165000Y-97035000D02*
X134409600Y-97035000D01*
X133165000Y-97416000D02*
X133165000Y-95384000D01*
X133165000Y-95384000D02*
X134435000Y-95384000D01*
X134435000Y-95384000D02*
X134435000Y-97416000D01*
X134435000Y-97416000D02*
X133165000Y-97416000D01*
X128635000Y-105165000D02*
X128635000Y-106435000D01*
X127365000Y-105165000D02*
X127365000Y-106409600D01*
X126984000Y-105165000D02*
X129016000Y-105165000D01*
X129016000Y-105165000D02*
X129016000Y-106435000D01*
X129016000Y-106435000D02*
X126984000Y-106435000D01*
X126984000Y-106435000D02*
X126984000Y-105165000D01*
X126735000Y-113535000D02*
X125465000Y-113535000D01*
X126735000Y-112265000D02*
X125490400Y-112265000D01*
X126735000Y-111884000D02*
X126735000Y-113916000D01*
X126735000Y-113916000D02*
X125465000Y-113916000D01*
X125465000Y-113916000D02*
X125465000Y-111884000D01*
X125465000Y-111884000D02*
X126735000Y-111884000D01*
X138565000Y-119835000D02*
X138565000Y-118565000D01*
X139835000Y-119835000D02*
X139835000Y-118590400D01*
X140216000Y-119835000D02*
X138184000Y-119835000D01*
X138184000Y-119835000D02*
X138184000Y-118565000D01*
X138184000Y-118565000D02*
X140216000Y-118565000D01*
X140216000Y-118565000D02*
X140216000Y-119835000D01*
X138565000Y-121935000D02*
X138565000Y-120665000D01*
X139835000Y-121935000D02*
X139835000Y-120690400D01*
X140216000Y-121935000D02*
X138184000Y-121935000D01*
X138184000Y-121935000D02*
X138184000Y-120665000D01*
X138184000Y-120665000D02*
X140216000Y-120665000D01*
X140216000Y-120665000D02*
X140216000Y-121935000D01*
D12*
X131149360Y-142099180D02*
X138850640Y-142099180D01*
X131149360Y-143099940D02*
X138850640Y-143099940D01*
X138850640Y-143099940D02*
X138850640Y-133900060D01*
X138850640Y-133900060D02*
X131149360Y-133900060D01*
X131149360Y-133900060D02*
X131149360Y-143099940D01*
D13*
X120297840Y-102999720D02*
X120297840Y-103324840D01*
X120297840Y-103324840D02*
X120798220Y-103324840D01*
X120798220Y-102999720D02*
X120798220Y-103324840D01*
X120297840Y-102999720D02*
X120798220Y-102999720D01*
X120297840Y-102377420D02*
X120297840Y-102527280D01*
X120297840Y-102527280D02*
X120549300Y-102527280D01*
X120549300Y-102377420D02*
X120549300Y-102527280D01*
X120297840Y-102377420D02*
X120549300Y-102377420D01*
X120297840Y-102872720D02*
X120297840Y-103022580D01*
X120297840Y-103022580D02*
X120549300Y-103022580D01*
X120549300Y-102872720D02*
X120549300Y-103022580D01*
X120297840Y-102872720D02*
X120549300Y-102872720D01*
X120297840Y-102501880D02*
X120297840Y-102898120D01*
X120297840Y-102898120D02*
X120473100Y-102898120D01*
X120473100Y-102501880D02*
X120473100Y-102898120D01*
X120297840Y-102501880D02*
X120473100Y-102501880D01*
X118801780Y-102999720D02*
X118801780Y-103324840D01*
X118801780Y-103324840D02*
X119302160Y-103324840D01*
X119302160Y-102999720D02*
X119302160Y-103324840D01*
X118801780Y-102999720D02*
X119302160Y-102999720D01*
X118801780Y-102075160D02*
X118801780Y-102400280D01*
X118801780Y-102400280D02*
X119302160Y-102400280D01*
X119302160Y-102075160D02*
X119302160Y-102400280D01*
X118801780Y-102075160D02*
X119302160Y-102075160D01*
X119050700Y-102872720D02*
X119050700Y-103022580D01*
X119050700Y-103022580D02*
X119302160Y-103022580D01*
X119302160Y-102872720D02*
X119302160Y-103022580D01*
X119050700Y-102872720D02*
X119302160Y-102872720D01*
X119050700Y-102377420D02*
X119050700Y-102527280D01*
X119050700Y-102527280D02*
X119302160Y-102527280D01*
X119302160Y-102377420D02*
X119302160Y-102527280D01*
X119050700Y-102377420D02*
X119302160Y-102377420D01*
X119126900Y-102501880D02*
X119126900Y-102898120D01*
X119126900Y-102898120D02*
X119302160Y-102898120D01*
X119302160Y-102501880D02*
X119302160Y-102898120D01*
X119126900Y-102501880D02*
X119302160Y-102501880D01*
X119800000Y-102600940D02*
X119800000Y-102799060D01*
X119800000Y-102799060D02*
X119998120Y-102799060D01*
X119998120Y-102600940D02*
X119998120Y-102799060D01*
X119800000Y-102600940D02*
X119998120Y-102600940D01*
X120297840Y-102100560D02*
X120297840Y-102400280D01*
X120297840Y-102400280D02*
X120597560Y-102400280D01*
X120597560Y-102100560D02*
X120597560Y-102400280D01*
X120297840Y-102100560D02*
X120597560Y-102100560D01*
X120724560Y-102075160D02*
X120724560Y-102301220D01*
X120724560Y-102301220D02*
X120798220Y-102301220D01*
X120798220Y-102075160D02*
X120798220Y-102301220D01*
X120724560Y-102075160D02*
X120798220Y-102075160D01*
D14*
X120323240Y-103274040D02*
X119276760Y-103274040D01*
X119302160Y-102125960D02*
X120724560Y-102125960D01*
D15*
X120720202Y-102250420D02*
G75*
G03X120720202Y-102250420I-71842J0D01*
G74*
G01*
D14*
X120798220Y-102352020D02*
G75*
G03X120798220Y-103047980I0J-347980D01*
G74*
G01*
X118801780Y-103047980D02*
G75*
G03X118801780Y-102352020I0J347980D01*
G74*
G01*
D16*
X118230000Y-110680000D02*
X120770000Y-110680000D01*
X120770000Y-110680000D02*
X120770000Y-123380000D01*
X120770000Y-123380000D02*
X118230000Y-123380000D01*
X118230000Y-123380000D02*
X118230000Y-110680000D01*
X118230000Y-113220000D02*
X120770000Y-113220000D01*
D17*
X141125000Y-77190000D02*
X140490000Y-76555000D01*
X141125000Y-84810000D02*
X140490000Y-85445000D01*
X172875000Y-77190000D02*
X173510000Y-76555000D01*
X173510000Y-85445000D02*
X172875000Y-84810000D01*
X172875000Y-84810000D02*
X172875000Y-77190000D01*
X172875000Y-77190000D02*
X158905000Y-77190000D01*
X158905000Y-77190000D02*
X158905000Y-76555000D01*
X172875000Y-84810000D02*
X141125000Y-84810000D01*
X141125000Y-84810000D02*
X141125000Y-77190000D01*
X141125000Y-77190000D02*
X155095000Y-77190000D01*
X155095000Y-77190000D02*
X155095000Y-76555000D01*
X140490000Y-85445000D02*
X173510000Y-85445000D01*
X173510000Y-76555000D02*
X140490000Y-76555000D01*
X173510000Y-85445000D02*
X173510000Y-76555000D01*
X140490000Y-85445000D02*
X140490000Y-76555000D01*
X170848080Y-79031500D02*
X170149580Y-77962160D01*
X170149580Y-77962160D02*
X169448540Y-79031500D01*
X169448540Y-79031500D02*
X170848080Y-79031500D01*
X106940000Y-109125000D02*
X106305000Y-109760000D01*
X114560000Y-109125000D02*
X115195000Y-109760000D01*
X106940000Y-77375000D02*
X106305000Y-76740000D01*
X115195000Y-76740000D02*
X114560000Y-77375000D01*
X114560000Y-77375000D02*
X106940000Y-77375000D01*
X106940000Y-77375000D02*
X106940000Y-91345000D01*
X106940000Y-91345000D02*
X106305000Y-91345000D01*
X114560000Y-77375000D02*
X114560000Y-109125000D01*
X114560000Y-109125000D02*
X106940000Y-109125000D01*
X106940000Y-109125000D02*
X106940000Y-95155000D01*
X106940000Y-95155000D02*
X106305000Y-95155000D01*
X115195000Y-109760000D02*
X115195000Y-76740000D01*
X106305000Y-76740000D02*
X106305000Y-109760000D01*
X115195000Y-76740000D02*
X106305000Y-76740000D01*
X115195000Y-109760000D02*
X106305000Y-109760000D01*
X108781500Y-79401920D02*
X107712160Y-80100420D01*
X107712160Y-80100420D02*
X108781500Y-80801460D01*
X108781500Y-80801460D02*
X108781500Y-79401920D01*
X106940000Y-142625000D02*
X106305000Y-143260000D01*
X114560000Y-142625000D02*
X115195000Y-143260000D01*
X106940000Y-110875000D02*
X106305000Y-110240000D01*
X115195000Y-110240000D02*
X114560000Y-110875000D01*
X114560000Y-110875000D02*
X106940000Y-110875000D01*
X106940000Y-110875000D02*
X106940000Y-124845000D01*
X106940000Y-124845000D02*
X106305000Y-124845000D01*
X114560000Y-110875000D02*
X114560000Y-142625000D01*
X114560000Y-142625000D02*
X106940000Y-142625000D01*
X106940000Y-142625000D02*
X106940000Y-128655000D01*
X106940000Y-128655000D02*
X106305000Y-128655000D01*
X115195000Y-143260000D02*
X115195000Y-110240000D01*
X106305000Y-110240000D02*
X106305000Y-143260000D01*
X115195000Y-110240000D02*
X106305000Y-110240000D01*
X115195000Y-143260000D02*
X106305000Y-143260000D01*
X108781500Y-112901920D02*
X107712160Y-113600420D01*
X107712160Y-113600420D02*
X108781500Y-114301460D01*
X108781500Y-114301460D02*
X108781500Y-112901920D01*
X174690000Y-108875000D02*
X174055000Y-109510000D01*
X182310000Y-108875000D02*
X182945000Y-109510000D01*
X174690000Y-77125000D02*
X174055000Y-76490000D01*
X182945000Y-76490000D02*
X182310000Y-77125000D01*
X182310000Y-77125000D02*
X174690000Y-77125000D01*
X174690000Y-77125000D02*
X174690000Y-91095000D01*
X174690000Y-91095000D02*
X174055000Y-91095000D01*
X182310000Y-77125000D02*
X182310000Y-108875000D01*
X182310000Y-108875000D02*
X174690000Y-108875000D01*
X174690000Y-108875000D02*
X174690000Y-94905000D01*
X174690000Y-94905000D02*
X174055000Y-94905000D01*
X182945000Y-109510000D02*
X182945000Y-76490000D01*
X174055000Y-76490000D02*
X174055000Y-109510000D01*
X182945000Y-76490000D02*
X174055000Y-76490000D01*
X182945000Y-109510000D02*
X174055000Y-109510000D01*
X176531500Y-79151920D02*
X175462160Y-79850420D01*
X175462160Y-79850420D02*
X176531500Y-80551460D01*
X176531500Y-80551460D02*
X176531500Y-79151920D01*
X174690000Y-142375000D02*
X174055000Y-143010000D01*
X182310000Y-142375000D02*
X182945000Y-143010000D01*
X174690000Y-110625000D02*
X174055000Y-109990000D01*
X182945000Y-109990000D02*
X182310000Y-110625000D01*
X182310000Y-110625000D02*
X174690000Y-110625000D01*
X174690000Y-110625000D02*
X174690000Y-124595000D01*
X174690000Y-124595000D02*
X174055000Y-124595000D01*
X182310000Y-110625000D02*
X182310000Y-142375000D01*
X182310000Y-142375000D02*
X174690000Y-142375000D01*
X174690000Y-142375000D02*
X174690000Y-128405000D01*
X174690000Y-128405000D02*
X174055000Y-128405000D01*
X182945000Y-143010000D02*
X182945000Y-109990000D01*
X174055000Y-109990000D02*
X174055000Y-143010000D01*
X182945000Y-109990000D02*
X174055000Y-109990000D01*
X182945000Y-143010000D02*
X174055000Y-143010000D01*
X176531500Y-112651920D02*
X175462160Y-113350420D01*
X175462160Y-113350420D02*
X176531500Y-114051460D01*
X176531500Y-114051460D02*
X176531500Y-112651920D01*
X141375000Y-134690000D02*
X140740000Y-134055000D01*
X141375000Y-142310000D02*
X140740000Y-142945000D01*
X173125000Y-134690000D02*
X173760000Y-134055000D01*
X173760000Y-142945000D02*
X173125000Y-142310000D01*
X173125000Y-142310000D02*
X173125000Y-134690000D01*
X173125000Y-134690000D02*
X159155000Y-134690000D01*
X159155000Y-134690000D02*
X159155000Y-134055000D01*
X173125000Y-142310000D02*
X141375000Y-142310000D01*
X141375000Y-142310000D02*
X141375000Y-134690000D01*
X141375000Y-134690000D02*
X155345000Y-134690000D01*
X155345000Y-134690000D02*
X155345000Y-134055000D01*
X140740000Y-142945000D02*
X173760000Y-142945000D01*
X173760000Y-134055000D02*
X140740000Y-134055000D01*
X173760000Y-142945000D02*
X173760000Y-134055000D01*
X140740000Y-142945000D02*
X140740000Y-134055000D01*
X171098080Y-136531500D02*
X170399580Y-135462160D01*
X170399580Y-135462160D02*
X169698540Y-136531500D01*
X169698540Y-136531500D02*
X171098080Y-136531500D01*
D12*
X134250000Y-82393000D02*
X135266000Y-82393000D01*
X134250000Y-82393000D02*
X133234000Y-82393000D01*
X134250000Y-80107000D02*
X135266000Y-80107000D01*
X134250000Y-80107000D02*
X133234000Y-80107000D01*
X134250000Y-79643000D02*
X135266000Y-79643000D01*
X134250000Y-79643000D02*
X133234000Y-79643000D01*
X134250000Y-77357000D02*
X135266000Y-77357000D01*
X134250000Y-77357000D02*
X133234000Y-77357000D01*
X118543000Y-105600000D02*
X118543000Y-104584000D01*
X118543000Y-105600000D02*
X118543000Y-106616000D01*
X116257000Y-105600000D02*
X116257000Y-104584000D01*
X116257000Y-105600000D02*
X116257000Y-106616000D01*
D11*
X129290000Y-81000000D02*
G75*
G03X129290000Y-81000000I-2540000J0D01*
G74*
G01*
X130560000Y-84810000D02*
X122940000Y-84810000D01*
X122940000Y-84810000D02*
X122940000Y-77190000D01*
X122940000Y-77190000D02*
X130560000Y-77190000D01*
X130560000Y-84810000D02*
X130560000Y-77190000D01*
D18*
X121624000Y-143056000D02*
X124672000Y-143056000D01*
X124672000Y-143056000D02*
X124672000Y-135944000D01*
X124672000Y-135944000D02*
X121624000Y-135944000D01*
X118576000Y-143056000D02*
X117814000Y-143056000D01*
X117814000Y-143056000D02*
X115528000Y-141532000D01*
X115528000Y-141532000D02*
X115528000Y-137468000D01*
X115528000Y-137468000D02*
X117814000Y-135944000D01*
X117814000Y-135944000D02*
X118576000Y-135944000D01*
D16*
X157390000Y-96745000D02*
G75*
G03X157390000Y-96745000I-635000J0D01*
G74*
G01*
X157136000Y-95602000D02*
X157364600Y-95602000D01*
X157364600Y-95602000D02*
X157364600Y-94840000D01*
X157136000Y-94840000D02*
X157136000Y-95602000D01*
X138975000Y-94840000D02*
X138340000Y-95475000D01*
X138340000Y-95475000D02*
X138340000Y-114525000D01*
X138340000Y-114525000D02*
X138975000Y-115160000D01*
X138975000Y-115160000D02*
X158025000Y-115160000D01*
X158025000Y-115160000D02*
X158660000Y-114525000D01*
X158660000Y-114525000D02*
X158660000Y-95475000D01*
X158660000Y-95475000D02*
X158025000Y-94840000D01*
X158025000Y-94840000D02*
X138975000Y-94840000D01*
D12*
X128400640Y-118350960D02*
X129200740Y-118350960D01*
X133399360Y-118350960D02*
X132599260Y-118350960D01*
X133399360Y-125849040D02*
X132599260Y-125849040D01*
X128400640Y-125849040D02*
X129200740Y-125849040D01*
X128400640Y-118350960D02*
X128400640Y-125849040D01*
X133399360Y-125849040D02*
X133399360Y-118350960D01*
D19*
X134200046Y-83116443D02*
X134185774Y-83130715D01*
X134142957Y-83144988D01*
X134114412Y-83144988D01*
X134071595Y-83130715D01*
X134043050Y-83102170D01*
X134028778Y-83073626D01*
X134014506Y-83016536D01*
X134014506Y-82973719D01*
X134028778Y-82916630D01*
X134043050Y-82888085D01*
X134071595Y-82859540D01*
X134114412Y-82845268D01*
X134142957Y-82845268D01*
X134185774Y-82859540D01*
X134200046Y-82873812D01*
X134485494Y-83144988D02*
X134314226Y-83144988D01*
X134399860Y-83144988D02*
X134399860Y-82845268D01*
X134371315Y-82888085D01*
X134342770Y-82916630D01*
X134314226Y-82930902D01*
X127216443Y-140449954D02*
X127230715Y-140464226D01*
X127244988Y-140507043D01*
X127244988Y-140535588D01*
X127230715Y-140578405D01*
X127202170Y-140606950D01*
X127173626Y-140621222D01*
X127116536Y-140635494D01*
X127073719Y-140635494D01*
X127016630Y-140621222D01*
X126988085Y-140606950D01*
X126959540Y-140578405D01*
X126945268Y-140535588D01*
X126945268Y-140507043D01*
X126959540Y-140464226D01*
X126973812Y-140449954D01*
X126973812Y-140335774D02*
X126959540Y-140321502D01*
X126945268Y-140292957D01*
X126945268Y-140221595D01*
X126959540Y-140193051D01*
X126973812Y-140178778D01*
X127002357Y-140164506D01*
X127030902Y-140164506D01*
X127073719Y-140178778D01*
X127244988Y-140350047D01*
X127244988Y-140164506D01*
X125116443Y-140449954D02*
X125130715Y-140464226D01*
X125144988Y-140507043D01*
X125144988Y-140535588D01*
X125130715Y-140578405D01*
X125102170Y-140606950D01*
X125073626Y-140621222D01*
X125016536Y-140635494D01*
X124973719Y-140635494D01*
X124916630Y-140621222D01*
X124888085Y-140606950D01*
X124859540Y-140578405D01*
X124845268Y-140535588D01*
X124845268Y-140507043D01*
X124859540Y-140464226D01*
X124873812Y-140449954D01*
X124845268Y-140350047D02*
X124845268Y-140164506D01*
X124959447Y-140264413D01*
X124959447Y-140221595D01*
X124973719Y-140193051D01*
X124987991Y-140178778D01*
X125016536Y-140164506D01*
X125087898Y-140164506D01*
X125116443Y-140178778D01*
X125130715Y-140193051D01*
X125144988Y-140221595D01*
X125144988Y-140307230D01*
X125130715Y-140335774D01*
X125116443Y-140350047D01*
X126316443Y-120749954D02*
X126330715Y-120764226D01*
X126344988Y-120807043D01*
X126344988Y-120835588D01*
X126330715Y-120878405D01*
X126302170Y-120906950D01*
X126273626Y-120921222D01*
X126216536Y-120935494D01*
X126173719Y-120935494D01*
X126116630Y-120921222D01*
X126088085Y-120906950D01*
X126059540Y-120878405D01*
X126045268Y-120835588D01*
X126045268Y-120807043D01*
X126059540Y-120764226D01*
X126073812Y-120749954D01*
X126145174Y-120493051D02*
X126344988Y-120493051D01*
X126030995Y-120564413D02*
X126245081Y-120635774D01*
X126245081Y-120450234D01*
X129850046Y-126716443D02*
X129835774Y-126730715D01*
X129792957Y-126744988D01*
X129764412Y-126744988D01*
X129721595Y-126730715D01*
X129693050Y-126702170D01*
X129678778Y-126673626D01*
X129664506Y-126616536D01*
X129664506Y-126573719D01*
X129678778Y-126516630D01*
X129693050Y-126488085D01*
X129721595Y-126459540D01*
X129764412Y-126445268D01*
X129792957Y-126445268D01*
X129835774Y-126459540D01*
X129850046Y-126473812D01*
X130121222Y-126445268D02*
X129978498Y-126445268D01*
X129964226Y-126587991D01*
X129978498Y-126573719D01*
X130007043Y-126559447D01*
X130078405Y-126559447D01*
X130106949Y-126573719D01*
X130121222Y-126587991D01*
X130135494Y-126616536D01*
X130135494Y-126687898D01*
X130121222Y-126716443D01*
X130106949Y-126730715D01*
X130078405Y-126744988D01*
X130007043Y-126744988D01*
X129978498Y-126730715D01*
X129964226Y-126716443D01*
X148850046Y-125997643D02*
X148835774Y-126011915D01*
X148792957Y-126026188D01*
X148764412Y-126026188D01*
X148721595Y-126011915D01*
X148693050Y-125983370D01*
X148678778Y-125954826D01*
X148664506Y-125897736D01*
X148664506Y-125854919D01*
X148678778Y-125797830D01*
X148693050Y-125769285D01*
X148721595Y-125740740D01*
X148764412Y-125726468D01*
X148792957Y-125726468D01*
X148835774Y-125740740D01*
X148850046Y-125755012D01*
X149106949Y-125726468D02*
X149049860Y-125726468D01*
X149021315Y-125740740D01*
X149007043Y-125755012D01*
X148978498Y-125797830D01*
X148964226Y-125854919D01*
X148964226Y-125969098D01*
X148978498Y-125997643D01*
X148992770Y-126011915D01*
X149021315Y-126026188D01*
X149078405Y-126026188D01*
X149106949Y-126011915D01*
X149121222Y-125997643D01*
X149135494Y-125969098D01*
X149135494Y-125897736D01*
X149121222Y-125869191D01*
X149106949Y-125854919D01*
X149078405Y-125840647D01*
X149021315Y-125840647D01*
X148992770Y-125854919D01*
X148978498Y-125869191D01*
X148964226Y-125897736D01*
X158250046Y-119497643D02*
X158235774Y-119511915D01*
X158192957Y-119526188D01*
X158164412Y-119526188D01*
X158121595Y-119511915D01*
X158093050Y-119483370D01*
X158078778Y-119454826D01*
X158064506Y-119397736D01*
X158064506Y-119354919D01*
X158078778Y-119297830D01*
X158093050Y-119269285D01*
X158121595Y-119240740D01*
X158164412Y-119226468D01*
X158192957Y-119226468D01*
X158235774Y-119240740D01*
X158250046Y-119255012D01*
X158349953Y-119226468D02*
X158549766Y-119226468D01*
X158421315Y-119526188D01*
X164550046Y-109097643D02*
X164535774Y-109111915D01*
X164492957Y-109126188D01*
X164464412Y-109126188D01*
X164421595Y-109111915D01*
X164393050Y-109083370D01*
X164378778Y-109054826D01*
X164364506Y-108997736D01*
X164364506Y-108954919D01*
X164378778Y-108897830D01*
X164393050Y-108869285D01*
X164421595Y-108840740D01*
X164464412Y-108826468D01*
X164492957Y-108826468D01*
X164535774Y-108840740D01*
X164550046Y-108855012D01*
X164721315Y-108954919D02*
X164692770Y-108940647D01*
X164678498Y-108926374D01*
X164664226Y-108897830D01*
X164664226Y-108883557D01*
X164678498Y-108855012D01*
X164692770Y-108840740D01*
X164721315Y-108826468D01*
X164778405Y-108826468D01*
X164806949Y-108840740D01*
X164821222Y-108855012D01*
X164835494Y-108883557D01*
X164835494Y-108897830D01*
X164821222Y-108926374D01*
X164806949Y-108940647D01*
X164778405Y-108954919D01*
X164721315Y-108954919D01*
X164692770Y-108969191D01*
X164678498Y-108983464D01*
X164664226Y-109012009D01*
X164664226Y-109069098D01*
X164678498Y-109097643D01*
X164692770Y-109111915D01*
X164721315Y-109126188D01*
X164778405Y-109126188D01*
X164806949Y-109111915D01*
X164821222Y-109097643D01*
X164835494Y-109069098D01*
X164835494Y-109012009D01*
X164821222Y-108983464D01*
X164806949Y-108969191D01*
X164778405Y-108954919D01*
X163216443Y-98849954D02*
X163230715Y-98864226D01*
X163244988Y-98907043D01*
X163244988Y-98935588D01*
X163230715Y-98978405D01*
X163202170Y-99006950D01*
X163173626Y-99021222D01*
X163116536Y-99035494D01*
X163073719Y-99035494D01*
X163016630Y-99021222D01*
X162988085Y-99006950D01*
X162959540Y-98978405D01*
X162945268Y-98935588D01*
X162945268Y-98907043D01*
X162959540Y-98864226D01*
X162973812Y-98849954D01*
X163244988Y-98707230D02*
X163244988Y-98650140D01*
X163230715Y-98621595D01*
X163216443Y-98607323D01*
X163173626Y-98578778D01*
X163116536Y-98564506D01*
X163002357Y-98564506D01*
X162973812Y-98578778D01*
X162959540Y-98593051D01*
X162945268Y-98621595D01*
X162945268Y-98678685D01*
X162959540Y-98707230D01*
X162973812Y-98721502D01*
X163002357Y-98735774D01*
X163073719Y-98735774D01*
X163102264Y-98721502D01*
X163116536Y-98707230D01*
X163130809Y-98678685D01*
X163130809Y-98621595D01*
X163116536Y-98593051D01*
X163102264Y-98578778D01*
X163073719Y-98564506D01*
X150007322Y-88797643D02*
X149993050Y-88811915D01*
X149950233Y-88826188D01*
X149921688Y-88826188D01*
X149878871Y-88811915D01*
X149850326Y-88783370D01*
X149836054Y-88754826D01*
X149821782Y-88697736D01*
X149821782Y-88654919D01*
X149836054Y-88597830D01*
X149850326Y-88569285D01*
X149878871Y-88540740D01*
X149921688Y-88526468D01*
X149950233Y-88526468D01*
X149993050Y-88540740D01*
X150007322Y-88555012D01*
X150292770Y-88826188D02*
X150121502Y-88826188D01*
X150207136Y-88826188D02*
X150207136Y-88526468D01*
X150178591Y-88569285D01*
X150150046Y-88597830D01*
X150121502Y-88612102D01*
X150478311Y-88526468D02*
X150506856Y-88526468D01*
X150535401Y-88540740D01*
X150549673Y-88555012D01*
X150563946Y-88583557D01*
X150578218Y-88640647D01*
X150578218Y-88712009D01*
X150563946Y-88769098D01*
X150549673Y-88797643D01*
X150535401Y-88811915D01*
X150506856Y-88826188D01*
X150478311Y-88826188D01*
X150449767Y-88811915D01*
X150435494Y-88797643D01*
X150421222Y-88769098D01*
X150406950Y-88712009D01*
X150406950Y-88640647D01*
X150421222Y-88583557D01*
X150435494Y-88555012D01*
X150449767Y-88540740D01*
X150478311Y-88526468D01*
X139907322Y-91797643D02*
X139893050Y-91811915D01*
X139850233Y-91826188D01*
X139821688Y-91826188D01*
X139778871Y-91811915D01*
X139750326Y-91783370D01*
X139736054Y-91754826D01*
X139721782Y-91697736D01*
X139721782Y-91654919D01*
X139736054Y-91597830D01*
X139750326Y-91569285D01*
X139778871Y-91540740D01*
X139821688Y-91526468D01*
X139850233Y-91526468D01*
X139893050Y-91540740D01*
X139907322Y-91555012D01*
X140192770Y-91826188D02*
X140021502Y-91826188D01*
X140107136Y-91826188D02*
X140107136Y-91526468D01*
X140078591Y-91569285D01*
X140050046Y-91597830D01*
X140021502Y-91612102D01*
X140478218Y-91826188D02*
X140306950Y-91826188D01*
X140392584Y-91826188D02*
X140392584Y-91526468D01*
X140364039Y-91569285D01*
X140335494Y-91597830D01*
X140306950Y-91612102D01*
X132916443Y-96592678D02*
X132930715Y-96606950D01*
X132944988Y-96649767D01*
X132944988Y-96678312D01*
X132930715Y-96721129D01*
X132902170Y-96749674D01*
X132873626Y-96763946D01*
X132816536Y-96778218D01*
X132773719Y-96778218D01*
X132716630Y-96763946D01*
X132688085Y-96749674D01*
X132659540Y-96721129D01*
X132645268Y-96678312D01*
X132645268Y-96649767D01*
X132659540Y-96606950D01*
X132673812Y-96592678D01*
X132944988Y-96307230D02*
X132944988Y-96478498D01*
X132944988Y-96392864D02*
X132645268Y-96392864D01*
X132688085Y-96421409D01*
X132716630Y-96449954D01*
X132730902Y-96478498D01*
X132673812Y-96193050D02*
X132659540Y-96178778D01*
X132645268Y-96150233D01*
X132645268Y-96078871D01*
X132659540Y-96050327D01*
X132673812Y-96036054D01*
X132702357Y-96021782D01*
X132730902Y-96021782D01*
X132773719Y-96036054D01*
X132944988Y-96207323D01*
X132944988Y-96021782D01*
X127807322Y-104916443D02*
X127793050Y-104930715D01*
X127750233Y-104944988D01*
X127721688Y-104944988D01*
X127678871Y-104930715D01*
X127650326Y-104902170D01*
X127636054Y-104873626D01*
X127621782Y-104816536D01*
X127621782Y-104773719D01*
X127636054Y-104716630D01*
X127650326Y-104688085D01*
X127678871Y-104659540D01*
X127721688Y-104645268D01*
X127750233Y-104645268D01*
X127793050Y-104659540D01*
X127807322Y-104673812D01*
X128092770Y-104944988D02*
X127921502Y-104944988D01*
X128007136Y-104944988D02*
X128007136Y-104645268D01*
X127978591Y-104688085D01*
X127950046Y-104716630D01*
X127921502Y-104730902D01*
X128192677Y-104645268D02*
X128378218Y-104645268D01*
X128278311Y-104759447D01*
X128321129Y-104759447D01*
X128349673Y-104773719D01*
X128363946Y-104787991D01*
X128378218Y-104816536D01*
X128378218Y-104887898D01*
X128363946Y-104916443D01*
X128349673Y-104930715D01*
X128321129Y-104944988D01*
X128235494Y-104944988D01*
X128206950Y-104930715D01*
X128192677Y-104916443D01*
X127197643Y-113092678D02*
X127211915Y-113106950D01*
X127226188Y-113149767D01*
X127226188Y-113178312D01*
X127211915Y-113221129D01*
X127183370Y-113249674D01*
X127154826Y-113263946D01*
X127097736Y-113278218D01*
X127054919Y-113278218D01*
X126997830Y-113263946D01*
X126969285Y-113249674D01*
X126940740Y-113221129D01*
X126926468Y-113178312D01*
X126926468Y-113149767D01*
X126940740Y-113106950D01*
X126955012Y-113092678D01*
X127226188Y-112807230D02*
X127226188Y-112978498D01*
X127226188Y-112892864D02*
X126926468Y-112892864D01*
X126969285Y-112921409D01*
X126997830Y-112949954D01*
X127012102Y-112978498D01*
X127026374Y-112550327D02*
X127226188Y-112550327D01*
X126912195Y-112621689D02*
X127126281Y-112693050D01*
X127126281Y-112507510D01*
X139007322Y-120297643D02*
X138993050Y-120311915D01*
X138950233Y-120326188D01*
X138921688Y-120326188D01*
X138878871Y-120311915D01*
X138850326Y-120283370D01*
X138836054Y-120254826D01*
X138821782Y-120197736D01*
X138821782Y-120154919D01*
X138836054Y-120097830D01*
X138850326Y-120069285D01*
X138878871Y-120040740D01*
X138921688Y-120026468D01*
X138950233Y-120026468D01*
X138993050Y-120040740D01*
X139007322Y-120055012D01*
X139292770Y-120326188D02*
X139121502Y-120326188D01*
X139207136Y-120326188D02*
X139207136Y-120026468D01*
X139178591Y-120069285D01*
X139150046Y-120097830D01*
X139121502Y-120112102D01*
X139563946Y-120026468D02*
X139421222Y-120026468D01*
X139406950Y-120169191D01*
X139421222Y-120154919D01*
X139449767Y-120140647D01*
X139521129Y-120140647D01*
X139549673Y-120154919D01*
X139563946Y-120169191D01*
X139578218Y-120197736D01*
X139578218Y-120269098D01*
X139563946Y-120297643D01*
X139549673Y-120311915D01*
X139521129Y-120326188D01*
X139449767Y-120326188D01*
X139421222Y-120311915D01*
X139406950Y-120297643D01*
X139007322Y-122397643D02*
X138993050Y-122411915D01*
X138950233Y-122426188D01*
X138921688Y-122426188D01*
X138878871Y-122411915D01*
X138850326Y-122383370D01*
X138836054Y-122354826D01*
X138821782Y-122297736D01*
X138821782Y-122254919D01*
X138836054Y-122197830D01*
X138850326Y-122169285D01*
X138878871Y-122140740D01*
X138921688Y-122126468D01*
X138950233Y-122126468D01*
X138993050Y-122140740D01*
X139007322Y-122155012D01*
X139292770Y-122426188D02*
X139121502Y-122426188D01*
X139207136Y-122426188D02*
X139207136Y-122126468D01*
X139178591Y-122169285D01*
X139150046Y-122197830D01*
X139121502Y-122212102D01*
X139549673Y-122126468D02*
X139492584Y-122126468D01*
X139464039Y-122140740D01*
X139449767Y-122155012D01*
X139421222Y-122197830D01*
X139406950Y-122254919D01*
X139406950Y-122369098D01*
X139421222Y-122397643D01*
X139435494Y-122411915D01*
X139464039Y-122426188D01*
X139521129Y-122426188D01*
X139549673Y-122411915D01*
X139563946Y-122397643D01*
X139578218Y-122369098D01*
X139578218Y-122297736D01*
X139563946Y-122269191D01*
X139549673Y-122254919D01*
X139521129Y-122240647D01*
X139464039Y-122240647D01*
X139435494Y-122254919D01*
X139421222Y-122269191D01*
X139406950Y-122297736D01*
D18*
X131466286Y-133262857D02*
X131417905Y-133311238D01*
X131272762Y-133359619D01*
X131176000Y-133359619D01*
X131030858Y-133311238D01*
X130934096Y-133214476D01*
X130885715Y-133117714D01*
X130837334Y-132924190D01*
X130837334Y-132779048D01*
X130885715Y-132585524D01*
X130934096Y-132488762D01*
X131030858Y-132392000D01*
X131176000Y-132343619D01*
X131272762Y-132343619D01*
X131417905Y-132392000D01*
X131466286Y-132440381D01*
X132095239Y-132343619D02*
X132288762Y-132343619D01*
X132385524Y-132392000D01*
X132482286Y-132488762D01*
X132530667Y-132682286D01*
X132530667Y-133020952D01*
X132482286Y-133214476D01*
X132385524Y-133311238D01*
X132288762Y-133359619D01*
X132095239Y-133359619D01*
X131998477Y-133311238D01*
X131901715Y-133214476D01*
X131853334Y-133020952D01*
X131853334Y-132682286D01*
X131901715Y-132488762D01*
X131998477Y-132392000D01*
X132095239Y-132343619D01*
X132966096Y-133359619D02*
X132966096Y-132343619D01*
X133546667Y-133359619D01*
X133546667Y-132343619D01*
X134562667Y-133359619D02*
X133982096Y-133359619D01*
X134272382Y-133359619D02*
X134272382Y-132343619D01*
X134175620Y-132488762D01*
X134078858Y-132585524D01*
X133982096Y-132633905D01*
D11*
X118237572Y-101644714D02*
X118237572Y-100882714D01*
X118419000Y-100882714D01*
X118527857Y-100919000D01*
X118600429Y-100991571D01*
X118636714Y-101064143D01*
X118673000Y-101209286D01*
X118673000Y-101318143D01*
X118636714Y-101463286D01*
X118600429Y-101535857D01*
X118527857Y-101608429D01*
X118419000Y-101644714D01*
X118237572Y-101644714D01*
X119398714Y-101644714D02*
X118963286Y-101644714D01*
X119181000Y-101644714D02*
X119181000Y-100882714D01*
X119108429Y-100991571D01*
X119035857Y-101064143D01*
X118963286Y-101100429D01*
X120210143Y-101644714D02*
X119956143Y-101281857D01*
X119774715Y-101644714D02*
X119774715Y-100882714D01*
X120065000Y-100882714D01*
X120137572Y-100919000D01*
X120173857Y-100955286D01*
X120210143Y-101027857D01*
X120210143Y-101136714D01*
X120173857Y-101209286D01*
X120137572Y-101245571D01*
X120065000Y-101281857D01*
X119774715Y-101281857D01*
X120536715Y-101245571D02*
X120790715Y-101245571D01*
X120899572Y-101644714D02*
X120536715Y-101644714D01*
X120536715Y-100882714D01*
X120899572Y-100882714D01*
X121226144Y-101644714D02*
X121226144Y-100882714D01*
X121407572Y-100882714D01*
X121516429Y-100919000D01*
X121589001Y-100991571D01*
X121625286Y-101064143D01*
X121661572Y-101209286D01*
X121661572Y-101318143D01*
X121625286Y-101463286D01*
X121589001Y-101535857D01*
X121516429Y-101608429D01*
X121407572Y-101644714D01*
X121226144Y-101644714D01*
D20*
X122882501Y-112002398D02*
X121152761Y-112002398D01*
X121152761Y-111588257D01*
X121235130Y-111484722D01*
X121317499Y-111432954D01*
X121482236Y-111381186D01*
X121729341Y-111381186D01*
X121894079Y-111432954D01*
X121976447Y-111484722D01*
X122058816Y-111588257D01*
X122058816Y-112002398D01*
X122882501Y-110345834D02*
X122882501Y-110967046D01*
X122882501Y-110656440D02*
X121152761Y-110656440D01*
X121399867Y-110759975D01*
X121564604Y-110863510D01*
X121646973Y-110967046D01*
D16*
D21*
X154687667Y-88054333D02*
X154687667Y-86276333D01*
X155365001Y-86276333D01*
X155534334Y-86361000D01*
X155619001Y-86445667D01*
X155703667Y-86615000D01*
X155703667Y-86869000D01*
X155619001Y-87038333D01*
X155534334Y-87123000D01*
X155365001Y-87207667D01*
X154687667Y-87207667D01*
X156381001Y-86445667D02*
X156465667Y-86361000D01*
X156635001Y-86276333D01*
X157058334Y-86276333D01*
X157227667Y-86361000D01*
X157312334Y-86445667D01*
X157397001Y-86615000D01*
X157397001Y-86784333D01*
X157312334Y-87038333D01*
X156296334Y-88054333D01*
X157397001Y-88054333D01*
X159385666Y-87635000D02*
X159301000Y-87719667D01*
X159047000Y-87804333D01*
X158877666Y-87804333D01*
X158623666Y-87719667D01*
X158454333Y-87550333D01*
X158369666Y-87381000D01*
X158285000Y-87042333D01*
X158285000Y-86788333D01*
X158369666Y-86449667D01*
X158454333Y-86280333D01*
X158623666Y-86111000D01*
X158877666Y-86026333D01*
X159047000Y-86026333D01*
X159301000Y-86111000D01*
X159385666Y-86195667D01*
X160486333Y-86026333D02*
X160825000Y-86026333D01*
X160994333Y-86111000D01*
X161163666Y-86280333D01*
X161248333Y-86619000D01*
X161248333Y-87211667D01*
X161163666Y-87550333D01*
X160994333Y-87719667D01*
X160825000Y-87804333D01*
X160486333Y-87804333D01*
X160317000Y-87719667D01*
X160147666Y-87550333D01*
X160063000Y-87211667D01*
X160063000Y-86619000D01*
X160147666Y-86280333D01*
X160317000Y-86111000D01*
X160486333Y-86026333D01*
X162010333Y-87804333D02*
X162010333Y-86026333D01*
X163026333Y-87804333D01*
X163026333Y-86026333D01*
X163873000Y-87804333D02*
X163873000Y-86026333D01*
X164889000Y-87804333D01*
X164889000Y-86026333D01*
X165312334Y-87973667D02*
X166667001Y-87973667D01*
X167005668Y-86195667D02*
X167090334Y-86111000D01*
X167259668Y-86026333D01*
X167683001Y-86026333D01*
X167852334Y-86111000D01*
X167937001Y-86195667D01*
X168021668Y-86365000D01*
X168021668Y-86534333D01*
X167937001Y-86788333D01*
X166921001Y-87804333D01*
X168021668Y-87804333D01*
X169122334Y-86026333D02*
X169291667Y-86026333D01*
X169461001Y-86111000D01*
X169545667Y-86195667D01*
X169630334Y-86365000D01*
X169715001Y-86703667D01*
X169715001Y-87127000D01*
X169630334Y-87465667D01*
X169545667Y-87635000D01*
X169461001Y-87719667D01*
X169291667Y-87804333D01*
X169122334Y-87804333D01*
X168953001Y-87719667D01*
X168868334Y-87635000D01*
X168783667Y-87465667D01*
X168699001Y-87127000D01*
X168699001Y-86703667D01*
X168783667Y-86365000D01*
X168868334Y-86195667D01*
X168953001Y-86111000D01*
X169122334Y-86026333D01*
X117504333Y-94662333D02*
X115726333Y-94662333D01*
X115726333Y-93984999D01*
X115811000Y-93815666D01*
X115895667Y-93730999D01*
X116065000Y-93646333D01*
X116319000Y-93646333D01*
X116488333Y-93730999D01*
X116573000Y-93815666D01*
X116657667Y-93984999D01*
X116657667Y-94662333D01*
X115726333Y-93053666D02*
X115726333Y-91952999D01*
X116403667Y-92545666D01*
X116403667Y-92291666D01*
X116488333Y-92122333D01*
X116573000Y-92037666D01*
X116742333Y-91952999D01*
X117165667Y-91952999D01*
X117335000Y-92037666D01*
X117419667Y-92122333D01*
X117504333Y-92291666D01*
X117504333Y-92799666D01*
X117419667Y-92968999D01*
X117335000Y-93053666D01*
X117235000Y-89314334D02*
X117319667Y-89399000D01*
X117404333Y-89653000D01*
X117404333Y-89822334D01*
X117319667Y-90076334D01*
X117150333Y-90245667D01*
X116981000Y-90330334D01*
X116642333Y-90415000D01*
X116388333Y-90415000D01*
X116049667Y-90330334D01*
X115880333Y-90245667D01*
X115711000Y-90076334D01*
X115626333Y-89822334D01*
X115626333Y-89653000D01*
X115711000Y-89399000D01*
X115795667Y-89314334D01*
X115626333Y-88213667D02*
X115626333Y-87875000D01*
X115711000Y-87705667D01*
X115880333Y-87536334D01*
X116219000Y-87451667D01*
X116811667Y-87451667D01*
X117150333Y-87536334D01*
X117319667Y-87705667D01*
X117404333Y-87875000D01*
X117404333Y-88213667D01*
X117319667Y-88383000D01*
X117150333Y-88552334D01*
X116811667Y-88637000D01*
X116219000Y-88637000D01*
X115880333Y-88552334D01*
X115711000Y-88383000D01*
X115626333Y-88213667D01*
X117404333Y-86689667D02*
X115626333Y-86689667D01*
X117404333Y-85673667D01*
X115626333Y-85673667D01*
X117404333Y-84827000D02*
X115626333Y-84827000D01*
X117404333Y-83811000D01*
X115626333Y-83811000D01*
X117573667Y-83387666D02*
X117573667Y-82032999D01*
X115795667Y-81694332D02*
X115711000Y-81609666D01*
X115626333Y-81440332D01*
X115626333Y-81016999D01*
X115711000Y-80847666D01*
X115795667Y-80762999D01*
X115965000Y-80678332D01*
X116134333Y-80678332D01*
X116388333Y-80762999D01*
X117404333Y-81778999D01*
X117404333Y-80678332D01*
X115626333Y-79577666D02*
X115626333Y-79408333D01*
X115711000Y-79238999D01*
X115795667Y-79154333D01*
X115965000Y-79069666D01*
X116303667Y-78984999D01*
X116727000Y-78984999D01*
X117065667Y-79069666D01*
X117235000Y-79154333D01*
X117319667Y-79238999D01*
X117404333Y-79408333D01*
X117404333Y-79577666D01*
X117319667Y-79746999D01*
X117235000Y-79831666D01*
X117065667Y-79916333D01*
X116727000Y-80000999D01*
X116303667Y-80000999D01*
X115965000Y-79916333D01*
X115795667Y-79831666D01*
X115711000Y-79746999D01*
X115626333Y-79577666D01*
X117304333Y-119812333D02*
X115526333Y-119812333D01*
X115526333Y-119134999D01*
X115611000Y-118965666D01*
X115695667Y-118880999D01*
X115865000Y-118796333D01*
X116119000Y-118796333D01*
X116288333Y-118880999D01*
X116373000Y-118965666D01*
X116457667Y-119134999D01*
X116457667Y-119812333D01*
X116119000Y-117272333D02*
X117304333Y-117272333D01*
X115441667Y-117695666D02*
X116711667Y-118118999D01*
X116711667Y-117018333D01*
X117135000Y-131364334D02*
X117219667Y-131449000D01*
X117304333Y-131703000D01*
X117304333Y-131872334D01*
X117219667Y-132126334D01*
X117050333Y-132295667D01*
X116881000Y-132380334D01*
X116542333Y-132465000D01*
X116288333Y-132465000D01*
X115949667Y-132380334D01*
X115780333Y-132295667D01*
X115611000Y-132126334D01*
X115526333Y-131872334D01*
X115526333Y-131703000D01*
X115611000Y-131449000D01*
X115695667Y-131364334D01*
X115526333Y-130263667D02*
X115526333Y-129925000D01*
X115611000Y-129755667D01*
X115780333Y-129586334D01*
X116119000Y-129501667D01*
X116711667Y-129501667D01*
X117050333Y-129586334D01*
X117219667Y-129755667D01*
X117304333Y-129925000D01*
X117304333Y-130263667D01*
X117219667Y-130433000D01*
X117050333Y-130602334D01*
X116711667Y-130687000D01*
X116119000Y-130687000D01*
X115780333Y-130602334D01*
X115611000Y-130433000D01*
X115526333Y-130263667D01*
X117304333Y-128739667D02*
X115526333Y-128739667D01*
X117304333Y-127723667D01*
X115526333Y-127723667D01*
X117304333Y-126877000D02*
X115526333Y-126877000D01*
X117304333Y-125861000D01*
X115526333Y-125861000D01*
X117473667Y-125437666D02*
X117473667Y-124082999D01*
X115695667Y-123744332D02*
X115611000Y-123659666D01*
X115526333Y-123490332D01*
X115526333Y-123066999D01*
X115611000Y-122897666D01*
X115695667Y-122812999D01*
X115865000Y-122728332D01*
X116034333Y-122728332D01*
X116288333Y-122812999D01*
X117304333Y-123828999D01*
X117304333Y-122728332D01*
X115526333Y-121627666D02*
X115526333Y-121458333D01*
X115611000Y-121288999D01*
X115695667Y-121204333D01*
X115865000Y-121119666D01*
X116203667Y-121034999D01*
X116627000Y-121034999D01*
X116965667Y-121119666D01*
X117135000Y-121204333D01*
X117219667Y-121288999D01*
X117304333Y-121458333D01*
X117304333Y-121627666D01*
X117219667Y-121796999D01*
X117135000Y-121881666D01*
X116965667Y-121966333D01*
X116627000Y-122050999D01*
X116203667Y-122050999D01*
X115865000Y-121966333D01*
X115695667Y-121881666D01*
X115611000Y-121796999D01*
X115526333Y-121627666D01*
X173054333Y-102812333D02*
X171276333Y-102812333D01*
X171276333Y-102134999D01*
X171361000Y-101965666D01*
X171445667Y-101880999D01*
X171615000Y-101796333D01*
X171869000Y-101796333D01*
X172038333Y-101880999D01*
X172123000Y-101965666D01*
X172207667Y-102134999D01*
X172207667Y-102812333D01*
X171276333Y-100187666D02*
X171276333Y-101034333D01*
X172123000Y-101118999D01*
X172038333Y-101034333D01*
X171953667Y-100864999D01*
X171953667Y-100441666D01*
X172038333Y-100272333D01*
X172123000Y-100187666D01*
X172292333Y-100102999D01*
X172715667Y-100102999D01*
X172885000Y-100187666D01*
X172969667Y-100272333D01*
X173054333Y-100441666D01*
X173054333Y-100864999D01*
X172969667Y-101034333D01*
X172885000Y-101118999D01*
X172785000Y-97614334D02*
X172869667Y-97699000D01*
X172954333Y-97953000D01*
X172954333Y-98122334D01*
X172869667Y-98376334D01*
X172700333Y-98545667D01*
X172531000Y-98630334D01*
X172192333Y-98715000D01*
X171938333Y-98715000D01*
X171599667Y-98630334D01*
X171430333Y-98545667D01*
X171261000Y-98376334D01*
X171176333Y-98122334D01*
X171176333Y-97953000D01*
X171261000Y-97699000D01*
X171345667Y-97614334D01*
X171176333Y-96513667D02*
X171176333Y-96175000D01*
X171261000Y-96005667D01*
X171430333Y-95836334D01*
X171769000Y-95751667D01*
X172361667Y-95751667D01*
X172700333Y-95836334D01*
X172869667Y-96005667D01*
X172954333Y-96175000D01*
X172954333Y-96513667D01*
X172869667Y-96683000D01*
X172700333Y-96852334D01*
X172361667Y-96937000D01*
X171769000Y-96937000D01*
X171430333Y-96852334D01*
X171261000Y-96683000D01*
X171176333Y-96513667D01*
X172954333Y-94989667D02*
X171176333Y-94989667D01*
X172954333Y-93973667D01*
X171176333Y-93973667D01*
X172954333Y-93127000D02*
X171176333Y-93127000D01*
X172954333Y-92111000D01*
X171176333Y-92111000D01*
X173123667Y-91687666D02*
X173123667Y-90332999D01*
X171345667Y-89994332D02*
X171261000Y-89909666D01*
X171176333Y-89740332D01*
X171176333Y-89316999D01*
X171261000Y-89147666D01*
X171345667Y-89062999D01*
X171515000Y-88978332D01*
X171684333Y-88978332D01*
X171938333Y-89062999D01*
X172954333Y-90078999D01*
X172954333Y-88978332D01*
X171176333Y-87877666D02*
X171176333Y-87708333D01*
X171261000Y-87538999D01*
X171345667Y-87454333D01*
X171515000Y-87369666D01*
X171853667Y-87284999D01*
X172277000Y-87284999D01*
X172615667Y-87369666D01*
X172785000Y-87454333D01*
X172869667Y-87538999D01*
X172954333Y-87708333D01*
X172954333Y-87877666D01*
X172869667Y-88046999D01*
X172785000Y-88131666D01*
X172615667Y-88216333D01*
X172277000Y-88300999D01*
X171853667Y-88300999D01*
X171515000Y-88216333D01*
X171345667Y-88131666D01*
X171261000Y-88046999D01*
X171176333Y-87877666D01*
X173054333Y-113312333D02*
X171276333Y-113312333D01*
X171276333Y-112634999D01*
X171361000Y-112465666D01*
X171445667Y-112380999D01*
X171615000Y-112296333D01*
X171869000Y-112296333D01*
X172038333Y-112380999D01*
X172123000Y-112465666D01*
X172207667Y-112634999D01*
X172207667Y-113312333D01*
X171276333Y-110772333D02*
X171276333Y-111110999D01*
X171361000Y-111280333D01*
X171445667Y-111364999D01*
X171699667Y-111534333D01*
X172038333Y-111618999D01*
X172715667Y-111618999D01*
X172885000Y-111534333D01*
X172969667Y-111449666D01*
X173054333Y-111280333D01*
X173054333Y-110941666D01*
X172969667Y-110772333D01*
X172885000Y-110687666D01*
X172715667Y-110602999D01*
X172292333Y-110602999D01*
X172123000Y-110687666D01*
X172038333Y-110772333D01*
X171953667Y-110941666D01*
X171953667Y-111280333D01*
X172038333Y-111449666D01*
X172123000Y-111534333D01*
X172292333Y-111618999D01*
X172785000Y-131114334D02*
X172869667Y-131199000D01*
X172954333Y-131453000D01*
X172954333Y-131622334D01*
X172869667Y-131876334D01*
X172700333Y-132045667D01*
X172531000Y-132130334D01*
X172192333Y-132215000D01*
X171938333Y-132215000D01*
X171599667Y-132130334D01*
X171430333Y-132045667D01*
X171261000Y-131876334D01*
X171176333Y-131622334D01*
X171176333Y-131453000D01*
X171261000Y-131199000D01*
X171345667Y-131114334D01*
X171176333Y-130013667D02*
X171176333Y-129675000D01*
X171261000Y-129505667D01*
X171430333Y-129336334D01*
X171769000Y-129251667D01*
X172361667Y-129251667D01*
X172700333Y-129336334D01*
X172869667Y-129505667D01*
X172954333Y-129675000D01*
X172954333Y-130013667D01*
X172869667Y-130183000D01*
X172700333Y-130352334D01*
X172361667Y-130437000D01*
X171769000Y-130437000D01*
X171430333Y-130352334D01*
X171261000Y-130183000D01*
X171176333Y-130013667D01*
X172954333Y-128489667D02*
X171176333Y-128489667D01*
X172954333Y-127473667D01*
X171176333Y-127473667D01*
X172954333Y-126627000D02*
X171176333Y-126627000D01*
X172954333Y-125611000D01*
X171176333Y-125611000D01*
X173123667Y-125187666D02*
X173123667Y-123832999D01*
X171345667Y-123494332D02*
X171261000Y-123409666D01*
X171176333Y-123240332D01*
X171176333Y-122816999D01*
X171261000Y-122647666D01*
X171345667Y-122562999D01*
X171515000Y-122478332D01*
X171684333Y-122478332D01*
X171938333Y-122562999D01*
X172954333Y-123578999D01*
X172954333Y-122478332D01*
X171176333Y-121377666D02*
X171176333Y-121208333D01*
X171261000Y-121038999D01*
X171345667Y-120954333D01*
X171515000Y-120869666D01*
X171853667Y-120784999D01*
X172277000Y-120784999D01*
X172615667Y-120869666D01*
X172785000Y-120954333D01*
X172869667Y-121038999D01*
X172954333Y-121208333D01*
X172954333Y-121377666D01*
X172869667Y-121546999D01*
X172785000Y-121631666D01*
X172615667Y-121716333D01*
X172277000Y-121800999D01*
X171853667Y-121800999D01*
X171515000Y-121716333D01*
X171345667Y-121631666D01*
X171261000Y-121546999D01*
X171176333Y-121377666D01*
X164437667Y-133054333D02*
X164437667Y-131276333D01*
X165115001Y-131276333D01*
X165284334Y-131361000D01*
X165369001Y-131445667D01*
X165453667Y-131615000D01*
X165453667Y-131869000D01*
X165369001Y-132038333D01*
X165284334Y-132123000D01*
X165115001Y-132207667D01*
X164437667Y-132207667D01*
X166046334Y-131276333D02*
X167231667Y-131276333D01*
X166469667Y-133054333D01*
X152635666Y-132785000D02*
X152551000Y-132869667D01*
X152297000Y-132954333D01*
X152127666Y-132954333D01*
X151873666Y-132869667D01*
X151704333Y-132700333D01*
X151619666Y-132531000D01*
X151535000Y-132192333D01*
X151535000Y-131938333D01*
X151619666Y-131599667D01*
X151704333Y-131430333D01*
X151873666Y-131261000D01*
X152127666Y-131176333D01*
X152297000Y-131176333D01*
X152551000Y-131261000D01*
X152635666Y-131345667D01*
X153736333Y-131176333D02*
X154075000Y-131176333D01*
X154244333Y-131261000D01*
X154413666Y-131430333D01*
X154498333Y-131769000D01*
X154498333Y-132361667D01*
X154413666Y-132700333D01*
X154244333Y-132869667D01*
X154075000Y-132954333D01*
X153736333Y-132954333D01*
X153567000Y-132869667D01*
X153397666Y-132700333D01*
X153313000Y-132361667D01*
X153313000Y-131769000D01*
X153397666Y-131430333D01*
X153567000Y-131261000D01*
X153736333Y-131176333D01*
X155260333Y-132954333D02*
X155260333Y-131176333D01*
X156276333Y-132954333D01*
X156276333Y-131176333D01*
X157123000Y-132954333D02*
X157123000Y-131176333D01*
X158139000Y-132954333D01*
X158139000Y-131176333D01*
X158562334Y-133123667D02*
X159917001Y-133123667D01*
X160255668Y-131345667D02*
X160340334Y-131261000D01*
X160509668Y-131176333D01*
X160933001Y-131176333D01*
X161102334Y-131261000D01*
X161187001Y-131345667D01*
X161271668Y-131515000D01*
X161271668Y-131684333D01*
X161187001Y-131938333D01*
X160171001Y-132954333D01*
X161271668Y-132954333D01*
X162372334Y-131176333D02*
X162541667Y-131176333D01*
X162711001Y-131261000D01*
X162795667Y-131345667D01*
X162880334Y-131515000D01*
X162965001Y-131853667D01*
X162965001Y-132277000D01*
X162880334Y-132615667D01*
X162795667Y-132785000D01*
X162711001Y-132869667D01*
X162541667Y-132954333D01*
X162372334Y-132954333D01*
X162203001Y-132869667D01*
X162118334Y-132785000D01*
X162033667Y-132615667D01*
X161949001Y-132277000D01*
X161949001Y-131853667D01*
X162033667Y-131515000D01*
X162118334Y-131345667D01*
X162203001Y-131261000D01*
X162372334Y-131176333D01*
D16*
X137996000Y-81939429D02*
X137488000Y-81213714D01*
X137125143Y-81939429D02*
X137125143Y-80415429D01*
X137705715Y-80415429D01*
X137850857Y-80488000D01*
X137923429Y-80560571D01*
X137996000Y-80705714D01*
X137996000Y-80923429D01*
X137923429Y-81068571D01*
X137850857Y-81141143D01*
X137705715Y-81213714D01*
X137125143Y-81213714D01*
X139447429Y-81939429D02*
X138576572Y-81939429D01*
X139012000Y-81939429D02*
X139012000Y-80415429D01*
X138866857Y-80633143D01*
X138721715Y-80778286D01*
X138576572Y-80850857D01*
X137996000Y-79189429D02*
X137488000Y-78463714D01*
X137125143Y-79189429D02*
X137125143Y-77665429D01*
X137705715Y-77665429D01*
X137850857Y-77738000D01*
X137923429Y-77810571D01*
X137996000Y-77955714D01*
X137996000Y-78173429D01*
X137923429Y-78318571D01*
X137850857Y-78391143D01*
X137705715Y-78463714D01*
X137125143Y-78463714D01*
X138576572Y-77810571D02*
X138649143Y-77738000D01*
X138794286Y-77665429D01*
X139157143Y-77665429D01*
X139302286Y-77738000D01*
X139374857Y-77810571D01*
X139447429Y-77955714D01*
X139447429Y-78100857D01*
X139374857Y-78318571D01*
X138504000Y-79189429D01*
X139447429Y-79189429D01*
X120589429Y-105854000D02*
X119863714Y-106362000D01*
X120589429Y-106724857D02*
X119065429Y-106724857D01*
X119065429Y-106144285D01*
X119138000Y-105999143D01*
X119210571Y-105926571D01*
X119355714Y-105854000D01*
X119573429Y-105854000D01*
X119718571Y-105926571D01*
X119791143Y-105999143D01*
X119863714Y-106144285D01*
X119863714Y-106724857D01*
X119065429Y-105346000D02*
X119065429Y-104402571D01*
X119646000Y-104910571D01*
X119646000Y-104692857D01*
X119718571Y-104547714D01*
X119791143Y-104475143D01*
X119936286Y-104402571D01*
X120299143Y-104402571D01*
X120444286Y-104475143D01*
X120516857Y-104547714D01*
X120589429Y-104692857D01*
X120589429Y-105128285D01*
X120516857Y-105273428D01*
X120444286Y-105346000D01*
D18*
X125395334Y-82173238D02*
X125540477Y-82221619D01*
X125782381Y-82221619D01*
X125879143Y-82173238D01*
X125927524Y-82124857D01*
X125975905Y-82028095D01*
X125975905Y-81931333D01*
X125927524Y-81834571D01*
X125879143Y-81786190D01*
X125782381Y-81737810D01*
X125588858Y-81689429D01*
X125492096Y-81641048D01*
X125443715Y-81592667D01*
X125395334Y-81495905D01*
X125395334Y-81399143D01*
X125443715Y-81302381D01*
X125492096Y-81254000D01*
X125588858Y-81205619D01*
X125830762Y-81205619D01*
X125975905Y-81254000D01*
X126314572Y-81205619D02*
X126556477Y-82221619D01*
X126750000Y-81495905D01*
X126943524Y-82221619D01*
X127185429Y-81205619D01*
X128104667Y-82221619D02*
X127524096Y-82221619D01*
X127814382Y-82221619D02*
X127814382Y-81205619D01*
X127717620Y-81350762D01*
X127620858Y-81447524D01*
X127524096Y-81495905D01*
X125274381Y-80443619D02*
X124935715Y-79959810D01*
X124693810Y-80443619D02*
X124693810Y-79427619D01*
X125080857Y-79427619D01*
X125177619Y-79476000D01*
X125226000Y-79524381D01*
X125274381Y-79621143D01*
X125274381Y-79766286D01*
X125226000Y-79863048D01*
X125177619Y-79911429D01*
X125080857Y-79959810D01*
X124693810Y-79959810D01*
X125709810Y-79911429D02*
X126048476Y-79911429D01*
X126193619Y-80443619D02*
X125709810Y-80443619D01*
X125709810Y-79427619D01*
X126193619Y-79427619D01*
X126580667Y-80395238D02*
X126725810Y-80443619D01*
X126967714Y-80443619D01*
X127064476Y-80395238D01*
X127112857Y-80346857D01*
X127161238Y-80250095D01*
X127161238Y-80153333D01*
X127112857Y-80056571D01*
X127064476Y-80008190D01*
X126967714Y-79959810D01*
X126774191Y-79911429D01*
X126677429Y-79863048D01*
X126629048Y-79814667D01*
X126580667Y-79717905D01*
X126580667Y-79621143D01*
X126629048Y-79524381D01*
X126677429Y-79476000D01*
X126774191Y-79427619D01*
X127016095Y-79427619D01*
X127161238Y-79476000D01*
X127596667Y-79911429D02*
X127935333Y-79911429D01*
X128080476Y-80443619D02*
X127596667Y-80443619D01*
X127596667Y-79427619D01*
X128080476Y-79427619D01*
X128370762Y-79427619D02*
X128951333Y-79427619D01*
X128661048Y-80443619D02*
X128661048Y-79427619D01*
X119325905Y-132693619D02*
X119325905Y-133516095D01*
X119374286Y-133612857D01*
X119422667Y-133661238D01*
X119519429Y-133709619D01*
X119712952Y-133709619D01*
X119809714Y-133661238D01*
X119858095Y-133612857D01*
X119906476Y-133516095D01*
X119906476Y-132693619D01*
X120922476Y-133709619D02*
X120341905Y-133709619D01*
X120632191Y-133709619D02*
X120632191Y-132693619D01*
X120535429Y-132838762D01*
X120438667Y-132935524D01*
X120341905Y-132983905D01*
X115641144Y-135459619D02*
X115641144Y-134443619D01*
X116221715Y-135459619D01*
X116221715Y-134443619D01*
X117286096Y-135362857D02*
X117237715Y-135411238D01*
X117092572Y-135459619D01*
X116995810Y-135459619D01*
X116850668Y-135411238D01*
X116753906Y-135314476D01*
X116705525Y-135217714D01*
X116657144Y-135024190D01*
X116657144Y-134879048D01*
X116705525Y-134685524D01*
X116753906Y-134588762D01*
X116850668Y-134492000D01*
X116995810Y-134443619D01*
X117092572Y-134443619D01*
X117237715Y-134492000D01*
X117286096Y-134540381D01*
X117721525Y-135459619D02*
X117721525Y-134443619D01*
X118108572Y-134443619D01*
X118205334Y-134492000D01*
X118253715Y-134540381D01*
X118302096Y-134637143D01*
X118302096Y-134782286D01*
X118253715Y-134879048D01*
X118205334Y-134927429D01*
X118108572Y-134975810D01*
X117721525Y-134975810D01*
X119269715Y-135459619D02*
X118689144Y-135459619D01*
X118979430Y-135459619D02*
X118979430Y-134443619D01*
X118882668Y-134588762D01*
X118785906Y-134685524D01*
X118689144Y-134733905D01*
X120237334Y-135459619D02*
X119656763Y-135459619D01*
X119947049Y-135459619D02*
X119947049Y-134443619D01*
X119850287Y-134588762D01*
X119753525Y-134685524D01*
X119656763Y-134733905D01*
X121204953Y-135459619D02*
X120624382Y-135459619D01*
X120914668Y-135459619D02*
X120914668Y-134443619D01*
X120817906Y-134588762D01*
X120721144Y-134685524D01*
X120624382Y-134733905D01*
X121543620Y-134443619D02*
X122220953Y-134443619D01*
X121785525Y-135459619D01*
X122559620Y-135411238D02*
X122704763Y-135459619D01*
X122946667Y-135459619D01*
X123043429Y-135411238D01*
X123091810Y-135362857D01*
X123140191Y-135266095D01*
X123140191Y-135169333D01*
X123091810Y-135072571D01*
X123043429Y-135024190D01*
X122946667Y-134975810D01*
X122753144Y-134927429D01*
X122656382Y-134879048D01*
X122608001Y-134830667D01*
X122559620Y-134733905D01*
X122559620Y-134637143D01*
X122608001Y-134540381D01*
X122656382Y-134492000D01*
X122753144Y-134443619D01*
X122995048Y-134443619D01*
X123140191Y-134492000D01*
X123430477Y-134443619D02*
X124011048Y-134443619D01*
X123720763Y-135459619D02*
X123720763Y-134443619D01*
X124833524Y-134443619D02*
X124349715Y-134443619D01*
X124301334Y-134927429D01*
X124349715Y-134879048D01*
X124446477Y-134830667D01*
X124688381Y-134830667D01*
X124785143Y-134879048D01*
X124833524Y-134927429D01*
X124881905Y-135024190D01*
X124881905Y-135266095D01*
X124833524Y-135362857D01*
X124785143Y-135411238D01*
X124688381Y-135459619D01*
X124446477Y-135459619D01*
X124349715Y-135411238D01*
X124301334Y-135362857D01*
X125510858Y-134443619D02*
X125607619Y-134443619D01*
X125704381Y-134492000D01*
X125752762Y-134540381D01*
X125801143Y-134637143D01*
X125849524Y-134830667D01*
X125849524Y-135072571D01*
X125801143Y-135266095D01*
X125752762Y-135362857D01*
X125704381Y-135411238D01*
X125607619Y-135459619D01*
X125510858Y-135459619D01*
X125414096Y-135411238D01*
X125365715Y-135362857D01*
X125317334Y-135266095D01*
X125268953Y-135072571D01*
X125268953Y-134830667D01*
X125317334Y-134637143D01*
X125365715Y-134540381D01*
X125414096Y-134492000D01*
X125510858Y-134443619D01*
X126139810Y-134443619D02*
X126720381Y-134443619D01*
X126430096Y-135459619D02*
X126430096Y-134443619D01*
X126962286Y-134443619D02*
X127591238Y-134443619D01*
X127252572Y-134830667D01*
X127397714Y-134830667D01*
X127494476Y-134879048D01*
X127542857Y-134927429D01*
X127591238Y-135024190D01*
X127591238Y-135266095D01*
X127542857Y-135362857D01*
X127494476Y-135411238D01*
X127397714Y-135459619D01*
X127107429Y-135459619D01*
X127010667Y-135411238D01*
X126962286Y-135362857D01*
X128558857Y-134492000D02*
X128462095Y-134443619D01*
X128316952Y-134443619D01*
X128171810Y-134492000D01*
X128075048Y-134588762D01*
X128026667Y-134685524D01*
X127978286Y-134879048D01*
X127978286Y-135024190D01*
X128026667Y-135217714D01*
X128075048Y-135314476D01*
X128171810Y-135411238D01*
X128316952Y-135459619D01*
X128413714Y-135459619D01*
X128558857Y-135411238D01*
X128607238Y-135362857D01*
X128607238Y-135024190D01*
X128413714Y-135024190D01*
D17*
X147725905Y-102260429D02*
X147725905Y-103494143D01*
X147774286Y-103639286D01*
X147822667Y-103711857D01*
X147919429Y-103784429D01*
X148112952Y-103784429D01*
X148209714Y-103711857D01*
X148258095Y-103639286D01*
X148306476Y-103494143D01*
X148306476Y-102260429D01*
X148741905Y-102405571D02*
X148790286Y-102333000D01*
X148887048Y-102260429D01*
X149128952Y-102260429D01*
X149225714Y-102333000D01*
X149274095Y-102405571D01*
X149322476Y-102550714D01*
X149322476Y-102695857D01*
X149274095Y-102913571D01*
X148693524Y-103784429D01*
X149322476Y-103784429D01*
D16*
D17*
X143371619Y-107594429D02*
X143371619Y-106070429D01*
X143758666Y-106070429D01*
X143855428Y-106143000D01*
X143903809Y-106215571D01*
X143952190Y-106360714D01*
X143952190Y-106578429D01*
X143903809Y-106723571D01*
X143855428Y-106796143D01*
X143758666Y-106868714D01*
X143371619Y-106868714D01*
X144387619Y-107594429D02*
X144387619Y-106070429D01*
X145452000Y-107449286D02*
X145403619Y-107521857D01*
X145258476Y-107594429D01*
X145161714Y-107594429D01*
X145016572Y-107521857D01*
X144919810Y-107376714D01*
X144871429Y-107231571D01*
X144823048Y-106941286D01*
X144823048Y-106723571D01*
X144871429Y-106433286D01*
X144919810Y-106288143D01*
X145016572Y-106143000D01*
X145161714Y-106070429D01*
X145258476Y-106070429D01*
X145403619Y-106143000D01*
X145452000Y-106215571D01*
X145790667Y-106070429D02*
X146419619Y-106070429D01*
X146080953Y-106651000D01*
X146226095Y-106651000D01*
X146322857Y-106723571D01*
X146371238Y-106796143D01*
X146419619Y-106941286D01*
X146419619Y-107304143D01*
X146371238Y-107449286D01*
X146322857Y-107521857D01*
X146226095Y-107594429D01*
X145935810Y-107594429D01*
X145839048Y-107521857D01*
X145790667Y-107449286D01*
X146806667Y-106215571D02*
X146855048Y-106143000D01*
X146951810Y-106070429D01*
X147193714Y-106070429D01*
X147290476Y-106143000D01*
X147338857Y-106215571D01*
X147387238Y-106360714D01*
X147387238Y-106505857D01*
X147338857Y-106723571D01*
X146758286Y-107594429D01*
X147387238Y-107594429D01*
X147822667Y-107594429D02*
X147822667Y-106070429D01*
X148161333Y-107159000D01*
X148500000Y-106070429D01*
X148500000Y-107594429D01*
X148887048Y-106070429D02*
X149564381Y-106070429D01*
X148887048Y-107594429D01*
X149564381Y-107594429D01*
X149951429Y-107013857D02*
X150725524Y-107013857D01*
X151741524Y-107594429D02*
X151160953Y-107594429D01*
X151451239Y-107594429D02*
X151451239Y-106070429D01*
X151354477Y-106288143D01*
X151257715Y-106433286D01*
X151160953Y-106505857D01*
X152612381Y-106578429D02*
X152612381Y-107594429D01*
X152370477Y-105997857D02*
X152128572Y-107086429D01*
X152757524Y-107086429D01*
X153580000Y-106578429D02*
X153580000Y-107594429D01*
X153338096Y-105997857D02*
X153096191Y-107086429D01*
X153725143Y-107086429D01*
D16*
X133875429Y-123333715D02*
X135399429Y-122317715D01*
X133875429Y-122317715D02*
X135399429Y-123333715D01*
X135399429Y-120938857D02*
X135399429Y-121809714D01*
X135399429Y-121374286D02*
X133875429Y-121374286D01*
X134093143Y-121519429D01*
X134238286Y-121664571D01*
X134310857Y-121809714D01*
M02*
