M48
;DRILL file {kicad (2014-09-25 BZR 5147)-product} date jue 25 dic 2014 15:50:36 ART
;FORMAT={-:-/ absolute / inch / decimal}
FMAT,2
INCH,TZ
T1C0.032
T2C0.039
T3C0.039
%
G90
G05
M72
T1
X4.7047Y-4.4075
X4.7047Y-4.5075
X4.7047Y-4.6075
X4.7047Y-4.7075
X4.7047Y-4.8075
X4.8402Y-3.089
X4.8402Y-3.289
X5.1402Y-3.089
X5.1402Y-3.289
T2
X4.3102Y-3.2213
X4.3102Y-3.3213
X4.3102Y-3.4213
X4.3102Y-3.5213
X4.3102Y-3.6213
X4.3102Y-3.7213
X4.3102Y-3.8213
X4.3102Y-3.9213
X4.3102Y-4.0213
X4.3102Y-4.1213
X4.3102Y-4.5402
X4.3102Y-4.6402
X4.3102Y-4.7402
X4.3102Y-4.8402
X4.3102Y-4.9402
X4.3102Y-5.0402
X4.3102Y-5.1402
X4.3102Y-5.2402
X4.3102Y-5.3402
X4.3102Y-5.4402
X4.4102Y-3.2213
X4.4102Y-3.3213
X4.4102Y-3.4213
X4.4102Y-3.5213
X4.4102Y-3.6213
X4.4102Y-3.7213
X4.4102Y-3.8213
X4.4102Y-3.9213
X4.4102Y-4.0213
X4.4102Y-4.1213
X4.4102Y-4.5402
X4.4102Y-4.6402
X4.4102Y-4.7402
X4.4102Y-4.8402
X4.4102Y-4.9402
X4.4102Y-5.0402
X4.4102Y-5.1402
X4.4102Y-5.2402
X4.4102Y-5.3402
X4.4102Y-5.4402
X5.7311Y-3.139
X5.7311Y-3.239
X5.7409Y-5.4028
X5.7409Y-5.5028
X5.8311Y-3.139
X5.8311Y-3.239
X5.8409Y-5.4028
X5.8409Y-5.5028
X5.9311Y-3.139
X5.9311Y-3.239
X5.9409Y-5.4028
X5.9409Y-5.5028
X6.0311Y-3.139
X6.0311Y-3.239
X6.0409Y-5.4028
X6.0409Y-5.5028
X6.1311Y-3.139
X6.1311Y-3.239
X6.1409Y-5.4028
X6.1409Y-5.5028
X6.2311Y-3.139
X6.2311Y-3.239
X6.2409Y-5.4028
X6.2409Y-5.5028
X6.3311Y-3.139
X6.3311Y-3.239
X6.3409Y-5.4028
X6.3409Y-5.5028
X6.4311Y-3.139
X6.4311Y-3.239
X6.4409Y-5.4028
X6.4409Y-5.5028
X6.5311Y-3.139
X6.5311Y-3.239
X6.5409Y-5.4028
X6.5409Y-5.5028
X6.6311Y-3.139
X6.6311Y-3.239
X6.6409Y-5.4028
X6.6409Y-5.5028
X6.9776Y-3.2114
X6.9776Y-3.3114
X6.9776Y-3.4114
X6.9776Y-3.5114
X6.9776Y-3.6114
X6.9776Y-3.7114
X6.9776Y-3.8114
X6.9776Y-3.9114
X6.9776Y-4.0114
X6.9776Y-4.1114
X6.9776Y-4.5303
X6.9776Y-4.6303
X6.9776Y-4.7303
X6.9776Y-4.8303
X6.9776Y-4.9303
X6.9776Y-5.0303
X6.9776Y-5.1303
X6.9776Y-5.2303
X6.9776Y-5.3303
X6.9776Y-5.4303
X7.0776Y-3.2114
X7.0776Y-3.3114
X7.0776Y-3.4114
X7.0776Y-3.5114
X7.0776Y-3.6114
X7.0776Y-3.7114
X7.0776Y-3.8114
X7.0776Y-3.9114
X7.0776Y-4.0114
X7.0776Y-4.1114
X7.0776Y-4.5303
X7.0776Y-4.6303
X7.0776Y-4.7303
X7.0776Y-4.8303
X7.0776Y-4.9303
X7.0776Y-5.0303
X7.0776Y-5.1303
X7.0776Y-5.2303
X7.0776Y-5.3303
X7.0776Y-5.4303
T3
X4.5472Y-4.2717
X4.6024Y-4.811
X4.6299Y-4.4449
X4.9016Y-4.4134
X4.9449Y-4.1654
X5.0039Y-5.0236
X5.0433Y-5.252
X5.2047Y-3.7559
X5.3228Y-3.5551
X5.3898Y-4.6024
X5.4094Y-5.1929
X5.4409Y-3.2717
X5.5157Y-4.8465
X5.7323Y-3.3622
X5.9488Y-3.3819
X5.9685Y-4.9803
X6.3307Y-4.6614
X6.5787Y-4.248
T0
M30
